COMMENT (c) Copyright 1989, 1990, 1991, 1992 OPEN SOFTWARE FOUNDATION, INC. 
COMMENT ALL RIGHTS RESERVED 
COMMENT 
COMMENT Motif Release 1.2
STARTFONT 2.1
COMMENT 14x14 public domain font
FONT -k14-screen-medium-r-normal--14-140-75-75-m-140-jisx0208.1983-1
SIZE 6 78 78
FONTBOUNDINGBOX 14 14 0 2
STARTPROPERTIES 4
FONT_ASCENT 12
FONT_DESCENT 2
DEFAULT_CHAR 41377
COPYRIGHT "Public domain font.  Share and enjoy."
ENDPROPERTIES
CHARS 6877
STARTCHAR a1a1
ENCODING 41377
SWIDTH 84 0
DWIDTH 14 0
BBX 14 14 0 -2
BITMAP
0000
0000
0000
0000
0000
0000
0000
0000
0000
0000
0000
0000
0000
0000
ENDCHAR
STARTCHAR a1a2
ENCODING 41378
SWIDTH 84 0
DWIDTH 14 0
BBX 14 14 0 -2
BITMAP
0000
0000
0000
0000
0000
0000
0000
0000
0000
0000
4000
3000
1800
0800
ENDCHAR
STARTCHAR a1a3
ENCODING 41379
SWIDTH 84 0
DWIDTH 14 0
BBX 14 14 0 -2
BITMAP
0000
0000
0000
0000
0000
0000
0000
0000
0000
0000
3000
4800
4800
3000
ENDCHAR
STARTCHAR a1a4
ENCODING 41380
SWIDTH 84 0
DWIDTH 14 0
BBX 14 14 0 -2
BITMAP
0000
0000
0000
0000
0000
0000
0000
0000
0000
0000
6000
6000
2000
4000
ENDCHAR
STARTCHAR a1a5
ENCODING 41381
SWIDTH 84 0
DWIDTH 14 0
BBX 14 14 0 -2
BITMAP
0000
0000
0000
0000
0000
0000
0000
0000
0000
0000
0000
6000
6000
0000
ENDCHAR
STARTCHAR a1a6
ENCODING 41382
SWIDTH 84 0
DWIDTH 14 0
BBX 14 14 0 -2
BITMAP
0000
0000
0000
0000
0000
0300
0780
0780
0300
0000
0000
0000
0000
0000
ENDCHAR
STARTCHAR a1a7
ENCODING 41383
SWIDTH 84 0
DWIDTH 14 0
BBX 14 14 0 -2
BITMAP
0000
0000
0000
0300
0300
0000
0000
0000
0300
0300
0000
0000
0000
0000
ENDCHAR
STARTCHAR a1a8
ENCODING 41384
SWIDTH 84 0
DWIDTH 14 0
BBX 14 14 0 -2
BITMAP
0000
0000
0000
0300
0300
0000
0000
0000
0300
0300
0100
0200
0000
0000
ENDCHAR
STARTCHAR a1a9
ENCODING 41385
SWIDTH 84 0
DWIDTH 14 0
BBX 14 14 0 -2
BITMAP
0000
0380
04C0
0860
0C60
0C60
00C0
0080
0100
0100
0100
0000
0180
0180
ENDCHAR
STARTCHAR a1aa
ENCODING 41386
SWIDTH 84 0
DWIDTH 14 0
BBX 14 14 0 -2
BITMAP
0100
0380
0380
0380
0380
0380
0380
0100
0100
0100
0000
0100
0380
0100
ENDCHAR
STARTCHAR a1ab
ENCODING 41387
SWIDTH 84 0
DWIDTH 14 0
BBX 14 14 0 -2
BITMAP
1000
4800
2000
0000
0000
0000
0000
0000
0000
0000
0000
0000
0000
0000
ENDCHAR
STARTCHAR a1ac
ENCODING 41388
SWIDTH 84 0
DWIDTH 14 0
BBX 14 14 0 -2
BITMAP
3000
4800
4800
3000
0000
0000
0000
0000
0000
0000
0000
0000
0000
0000
ENDCHAR
STARTCHAR a1ad
ENCODING 41389
SWIDTH 84 0
DWIDTH 14 0
BBX 14 14 0 -2
BITMAP
0180
0300
0400
0000
0000
0000
0000
0000
0000
0000
0000
0000
0000
0000
ENDCHAR
STARTCHAR a1ae
ENCODING 41390
SWIDTH 84 0
DWIDTH 14 0
BBX 14 14 0 -2
BITMAP
0600
0300
0080
0000
0000
0000
0000
0000
0000
0000
0000
0000
0000
0000
ENDCHAR
STARTCHAR a1af
ENCODING 41391
SWIDTH 84 0
DWIDTH 14 0
BBX 14 14 0 -2
BITMAP
0C60
0C60
0000
0000
0000
0000
0000
0000
0000
0000
0000
0000
0000
0000
ENDCHAR
STARTCHAR a1b0
ENCODING 41392
SWIDTH 84 0
DWIDTH 14 0
BBX 14 14 0 -2
BITMAP
0100
0280
0440
0820
0000
0000
0000
0000
0000
0000
0000
0000
0000
0000
ENDCHAR
STARTCHAR a1b1
ENCODING 41393
SWIDTH 84 0
DWIDTH 14 0
BBX 14 14 0 -2
BITMAP
FFFC
0000
0000
0000
0000
0000
0000
0000
0000
0000
0000
0000
0000
0000
ENDCHAR
STARTCHAR a1b2
ENCODING 41394
SWIDTH 84 0
DWIDTH 14 0
BBX 14 14 0 -2
BITMAP
0000
0000
0000
0000
0000
0000
0000
0000
0000
0000
0000
0000
0000
FFFC
ENDCHAR
STARTCHAR a1b3
ENCODING 41395
SWIDTH 84 0
DWIDTH 14 0
BBX 14 14 0 -2
BITMAP
0000
0000
0000
0000
0C00
0300
0080
0040
0020
0000
0000
0000
0000
0000
ENDCHAR
STARTCHAR a1b4
ENCODING 41396
SWIDTH 84 0
DWIDTH 14 0
BBX 14 14 0 -2
BITMAP
0000
0000
0020
0090
0C40
0300
0080
0040
0020
0000
0000
0000
0000
0000
ENDCHAR
STARTCHAR a1b5
ENCODING 41397
SWIDTH 84 0
DWIDTH 14 0
BBX 14 14 0 -2
BITMAP
0000
0000
0000
0000
0C00
0300
0080
00C0
0100
0000
0000
0000
0000
0000
ENDCHAR
STARTCHAR a1b6
ENCODING 41398
SWIDTH 84 0
DWIDTH 14 0
BBX 14 14 0 -2
BITMAP
0000
0000
0020
0090
0C40
0300
0080
00C0
0100
0000
0000
0000
0000
0000
ENDCHAR
STARTCHAR a1b7
ENCODING 41399
SWIDTH 84 0
DWIDTH 14 0
BBX 14 14 0 -2
BITMAP
0000
0000
0000
0000
0440
0440
0440
0880
0880
1100
0000
0000
0000
0000
ENDCHAR
STARTCHAR a1b8
ENCODING 41400
SWIDTH 84 0
DWIDTH 14 0
BBX 14 14 0 -2
BITMAP
0100
0100
0280
0440
0820
1010
600C
0FE0
0100
0100
0100
0100
7FFC
0000
ENDCHAR
STARTCHAR a1b9
ENCODING 41401
SWIDTH 84 0
DWIDTH 14 0
BBX 14 14 0 -2
BITMAP
0000
0000
0000
0000
0200
0200
03F0
0420
0420
0840
1280
0180
0040
0020
ENDCHAR
STARTCHAR a1ba
ENCODING 41402
SWIDTH 84 0
DWIDTH 14 0
BBX 14 14 0 -2
BITMAP
0000
0000
0010
0010
0020
0640
0980
0900
1280
1400
1800
1000
2000
0000
ENDCHAR
STARTCHAR a1bb
ENCODING 41403
SWIDTH 84 0
DWIDTH 14 0
BBX 14 14 0 -2
BITMAP
0000
07C0
1830
2008
2008
4004
4004
4004
4004
4004
2008
2008
1830
07C0
ENDCHAR
STARTCHAR a1bc
ENCODING 41404
SWIDTH 84 0
DWIDTH 14 0
BBX 14 14 0 -2
BITMAP
0000
0000
0000
0000
0000
0000
40F8
3F00
0000
0000
0000
0000
0000
0000
ENDCHAR
STARTCHAR a1bd
ENCODING 41405
SWIDTH 84 0
DWIDTH 14 0
BBX 14 14 0 -2
BITMAP
0000
0000
0000
0000
0000
0000
FFFC
0000
0000
0000
0000
0000
0000
0000
ENDCHAR
STARTCHAR a1be
ENCODING 41406
SWIDTH 84 0
DWIDTH 14 0
BBX 14 14 0 -2
BITMAP
0000
0000
0000
0000
0000
0000
07C0
0000
0000
0000
0000
0000
0000
0000
ENDCHAR
STARTCHAR a1bf
ENCODING 41407
SWIDTH 84 0
DWIDTH 14 0
BBX 14 14 0 -2
BITMAP
0004
0008
0010
0020
0040
0080
0100
0200
0400
0800
1000
2000
4000
8000
ENDCHAR
STARTCHAR a1c0
ENCODING 41408
SWIDTH 84 0
DWIDTH 14 0
BBX 14 14 0 -2
BITMAP
8000
4000
2000
1000
0800
0400
0200
0100
0080
0040
0020
0010
0008
0004
ENDCHAR
STARTCHAR a1c1
ENCODING 41409
SWIDTH 84 0
DWIDTH 14 0
BBX 14 14 0 -2
BITMAP
0000
0000
0000
0000
0000
1C00
2208
4110
00E0
0000
0000
0000
0000
0000
ENDCHAR
STARTCHAR a1c2
ENCODING 41410
SWIDTH 84 0
DWIDTH 14 0
BBX 14 14 0 -2
BITMAP
0480
0480
0480
0480
0480
0480
0480
0480
0480
0480
0480
0480
0480
0480
ENDCHAR
STARTCHAR a1c3
ENCODING 41411
SWIDTH 84 0
DWIDTH 14 0
BBX 14 14 0 -2
BITMAP
0100
0100
0100
0100
0100
0100
0100
0100
0100
0100
0100
0100
0100
0100
ENDCHAR
STARTCHAR a1c4
ENCODING 41412
SWIDTH 84 0
DWIDTH 14 0
BBX 14 14 0 -2
BITMAP
0000
0000
0000
0000
0000
0000
3330
3330
0000
0000
0000
0000
0000
0000
ENDCHAR
STARTCHAR a1c5
ENCODING 41413
SWIDTH 84 0
DWIDTH 14 0
BBX 14 14 0 -2
BITMAP
0000
0000
0000
0000
0000
0000
1860
1860
0000
0000
0000
0000
0000
0000
ENDCHAR
STARTCHAR a1c6
ENCODING 41414
SWIDTH 84 0
DWIDTH 14 0
BBX 14 14 0 -2
BITMAP
0018
0020
0030
0038
0010
0000
0000
0000
0000
0000
0000
0000
0000
0000
ENDCHAR
STARTCHAR a1c7
ENCODING 41415
SWIDTH 84 0
DWIDTH 14 0
BBX 14 14 0 -2
BITMAP
2000
7000
3000
1000
6000
0000
0000
0000
0000
0000
0000
0000
0000
0000
ENDCHAR
STARTCHAR a1c8
ENCODING 41416
SWIDTH 84 0
DWIDTH 14 0
BBX 14 14 0 -2
BITMAP
0198
0220
0330
03B8
0110
0000
0000
0000
0000
0000
0000
0000
0000
0000
ENDCHAR
STARTCHAR a1c9
ENCODING 41417
SWIDTH 84 0
DWIDTH 14 0
BBX 14 14 0 -2
BITMAP
2200
7700
3300
1100
6600
0000
0000
0000
0000
0000
0000
0000
0000
0000
ENDCHAR
STARTCHAR a1ca
ENCODING 41418
SWIDTH 84 0
DWIDTH 14 0
BBX 14 14 0 -2
BITMAP
0008
0010
0020
0060
0040
00C0
00C0
00C0
00C0
0040
0060
0020
0010
0008
ENDCHAR
STARTCHAR a1cb
ENCODING 41419
SWIDTH 84 0
DWIDTH 14 0
BBX 14 14 0 -2
BITMAP
4000
2000
1000
1800
0800
0C00
0C00
0C00
0C00
0800
1800
1000
2000
4000
ENDCHAR
STARTCHAR a1cc
ENCODING 41420
SWIDTH 84 0
DWIDTH 14 0
BBX 14 14 0 -2
BITMAP
0008
0010
0020
0040
0040
0040
0040
0040
0040
0040
0040
0020
0010
0008
ENDCHAR
STARTCHAR a1cd
ENCODING 41421
SWIDTH 84 0
DWIDTH 14 0
BBX 14 14 0 -2
BITMAP
4000
2000
1000
0800
0800
0800
0800
0800
0800
0800
0800
1000
2000
4000
ENDCHAR
STARTCHAR a1ce
ENCODING 41422
SWIDTH 84 0
DWIDTH 14 0
BBX 14 14 0 -2
BITMAP
00F8
00C0
00C0
00C0
00C0
00C0
00C0
00C0
00C0
00C0
00C0
00C0
00C0
00F8
ENDCHAR
STARTCHAR a1cf
ENCODING 41423
SWIDTH 84 0
DWIDTH 14 0
BBX 14 14 0 -2
BITMAP
7C00
0C00
0C00
0C00
0C00
0C00
0C00
0C00
0C00
0C00
0C00
0C00
0C00
7C00
ENDCHAR
STARTCHAR a1d0
ENCODING 41424
SWIDTH 84 0
DWIDTH 14 0
BBX 14 14 0 -2
BITMAP
0018
0020
0060
0060
0060
0040
0180
0040
0060
0060
0060
0060
0020
0018
ENDCHAR
STARTCHAR a1d1
ENCODING 41425
SWIDTH 84 0
DWIDTH 14 0
BBX 14 14 0 -2
BITMAP
6000
1000
1800
1800
1800
0800
0600
0800
1800
1800
1800
1800
1000
6000
ENDCHAR
STARTCHAR a1d2
ENCODING 41426
SWIDTH 84 0
DWIDTH 14 0
BBX 14 14 0 -2
BITMAP
0008
0010
0020
0040
0080
0100
0200
0200
0100
0080
0040
0020
0010
0008
ENDCHAR
STARTCHAR a1d3
ENCODING 41427
SWIDTH 84 0
DWIDTH 14 0
BBX 14 14 0 -2
BITMAP
4000
2000
1000
0800
0400
0200
0100
0100
0200
0400
0800
1000
2000
4000
ENDCHAR
STARTCHAR a1d4
ENCODING 41428
SWIDTH 84 0
DWIDTH 14 0
BBX 14 14 0 -2
BITMAP
0048
0048
0090
0090
0120
0120
0240
0240
0120
0120
0090
0090
0048
0048
ENDCHAR
STARTCHAR a1d5
ENCODING 41429
SWIDTH 84 0
DWIDTH 14 0
BBX 14 14 0 -2
BITMAP
4800
4800
2400
2400
1200
1200
0900
0900
1200
1200
2400
2400
4800
4800
ENDCHAR
STARTCHAR a1d6
ENCODING 41430
SWIDTH 84 0
DWIDTH 14 0
BBX 14 14 0 -2
BITMAP
01F8
0100
0100
0100
0100
0100
0100
0100
0100
0100
0100
0100
0100
0100
ENDCHAR
STARTCHAR a1d7
ENCODING 41431
SWIDTH 84 0
DWIDTH 14 0
BBX 14 14 0 -2
BITMAP
0200
0200
0200
0200
0200
0200
0200
0200
0200
0200
0200
0200
0200
7E00
ENDCHAR
STARTCHAR a1d8
ENCODING 41432
SWIDTH 84 0
DWIDTH 14 0
BBX 14 14 0 -2
BITMAP
03F8
0208
02F8
0280
0280
0280
0280
0280
0280
0280
0280
0280
0280
0380
ENDCHAR
STARTCHAR a1d9
ENCODING 41433
SWIDTH 84 0
DWIDTH 14 0
BBX 14 14 0 -2
BITMAP
0700
0500
0500
0500
0500
0500
0500
0500
0500
0500
0500
7D00
4100
7F00
ENDCHAR
STARTCHAR a1da
ENCODING 41434
SWIDTH 84 0
DWIDTH 14 0
BBX 14 14 0 -2
BITMAP
00F8
00F0
00E0
00E0
00C0
00C0
00C0
00C0
00C0
00C0
00E0
00E0
00F0
00F8
ENDCHAR
STARTCHAR a1db
ENCODING 41435
SWIDTH 84 0
DWIDTH 14 0
BBX 14 14 0 -2
BITMAP
7C00
3C00
1C00
1C00
0C00
0C00
0C00
0C00
0C00
0C00
1C00
1C00
3C00
7C00
ENDCHAR
STARTCHAR a1dc
ENCODING 41436
SWIDTH 84 0
DWIDTH 14 0
BBX 14 14 0 -2
BITMAP
0000
0100
0100
0100
0100
0100
3FF8
0100
0100
0100
0100
0100
0100
0000
ENDCHAR
STARTCHAR a1dd
ENCODING 41437
SWIDTH 84 0
DWIDTH 14 0
BBX 14 14 0 -2
BITMAP
0000
0000
0000
0000
0000
0000
3FF8
0000
0000
0000
0000
0000
0000
0000
ENDCHAR
STARTCHAR a1de
ENCODING 41438
SWIDTH 84 0
DWIDTH 14 0
BBX 14 14 0 -2
BITMAP
0000
0100
0100
0100
0100
3FF8
0100
0100
0100
0100
0000
3FF8
0000
0000
ENDCHAR
STARTCHAR a1df
ENCODING 41439
SWIDTH 84 0
DWIDTH 14 0
BBX 14 14 0 -2
BITMAP
0000
2008
1010
0820
0440
0280
0100
0280
0440
0820
1010
2008
0000
0000
ENDCHAR
STARTCHAR a1e0
ENCODING 41440
SWIDTH 84 0
DWIDTH 14 0
BBX 14 14 0 -2
BITMAP
0000
0100
0380
0100
0000
0000
3FF8
0000
0000
0100
0380
0100
0000
0000
ENDCHAR
STARTCHAR a1e1
ENCODING 41441
SWIDTH 84 0
DWIDTH 14 0
BBX 14 14 0 -2
BITMAP
0000
0000
0000
0000
3FF8
0000
0000
0000
3FF8
0000
0000
0000
0000
0000
ENDCHAR
STARTCHAR a1e2
ENCODING 41442
SWIDTH 84 0
DWIDTH 14 0
BBX 14 14 0 -2
BITMAP
0000
0080
0080
0080
3FF8
0100
0100
0100
3FF8
0200
0200
0200
0000
0000
ENDCHAR
STARTCHAR a1e3
ENCODING 41443
SWIDTH 84 0
DWIDTH 14 0
BBX 14 14 0 -2
BITMAP
0010
0060
0080
0300
0400
1800
2000
1800
0400
0300
0080
0060
0010
0000
ENDCHAR
STARTCHAR a1e4
ENCODING 41444
SWIDTH 84 0
DWIDTH 14 0
BBX 14 14 0 -2
BITMAP
2000
1800
0400
0300
0080
0060
0010
0060
0080
0300
0400
1800
2000
0000
ENDCHAR
STARTCHAR a1e5
ENCODING 41445
SWIDTH 84 0
DWIDTH 14 0
BBX 14 14 0 -2
BITMAP
0030
00C0
0300
0C00
3000
0C00
0300
00C0
0030
0000
3FF8
0000
3FF8
0000
ENDCHAR
STARTCHAR a1e6
ENCODING 41446
SWIDTH 84 0
DWIDTH 14 0
BBX 14 14 0 -2
BITMAP
3000
0C00
0300
00C0
0030
00C0
0300
0C00
3000
0000
3FF8
0000
3FF8
0000
ENDCHAR
STARTCHAR a1e7
ENCODING 41447
SWIDTH 84 0
DWIDTH 14 0
BBX 14 14 0 -2
BITMAP
0000
0000
0000
0000
1C70
36D8
2388
2388
36D8
1C70
0000
0000
0000
0000
ENDCHAR
STARTCHAR a1e8
ENCODING 41448
SWIDTH 84 0
DWIDTH 14 0
BBX 14 14 0 -2
BITMAP
0000
0000
0100
0380
0100
0000
0000
0000
0000
1010
3838
1010
0000
0000
ENDCHAR
STARTCHAR a1e9
ENCODING 41449
SWIDTH 84 0
DWIDTH 14 0
BBX 14 14 0 -2
BITMAP
0000
03F8
0018
0028
0048
0088
1D08
2208
4100
4100
4100
2200
1C00
0000
ENDCHAR
STARTCHAR a1ea
ENCODING 41450
SWIDTH 84 0
DWIDTH 14 0
BBX 14 14 0 -2
BITMAP
0000
0380
0440
0820
0820
0820
0440
0380
0100
0100
1FF0
0100
0100
0100
ENDCHAR
STARTCHAR a1eb
ENCODING 41451
SWIDTH 84 0
DWIDTH 14 0
BBX 14 14 0 -2
BITMAP
0000
1800
2400
2400
1800
0000
0000
0000
0000
0000
0000
0000
0000
0000
ENDCHAR
STARTCHAR a1ec
ENCODING 41452
SWIDTH 84 0
DWIDTH 14 0
BBX 14 14 0 -2
BITMAP
0000
1800
1800
3000
2000
4000
0000
0000
0000
0000
0000
0000
0000
0000
ENDCHAR
STARTCHAR a1ed
ENCODING 41453
SWIDTH 84 0
DWIDTH 14 0
BBX 14 14 0 -2
BITMAP
0000
1B00
1B00
3600
2400
4800
0000
0000
0000
0000
0000
0000
0000
0000
ENDCHAR
STARTCHAR a1ee
ENCODING 41454
SWIDTH 84 0
DWIDTH 14 0
BBX 14 14 0 -2
BITMAP
0000
3000
48E8
4918
3308
0608
0600
0600
0600
0600
0208
0110
00E0
0000
ENDCHAR
STARTCHAR a1ef
ENCODING 41455
SWIDTH 84 0
DWIDTH 14 0
BBX 14 14 0 -2
BITMAP
0000
7838
3010
1820
0C40
3FF0
0680
0300
3FF0
0300
0300
0300
0FC0
0000
ENDCHAR
STARTCHAR a1f0
ENCODING 41456
SWIDTH 84 0
DWIDTH 14 0
BBX 14 14 0 -2
BITMAP
0000
0100
07C0
0920
1130
1930
0F00
03C0
0160
1930
1910
0920
07C0
0100
ENDCHAR
STARTCHAR a1f1
ENCODING 41457
SWIDTH 84 0
DWIDTH 14 0
BBX 14 14 0 -2
BITMAP
0000
0080
0080
0380
0540
0960
1960
1900
1A00
0A20
0640
0780
0400
0400
ENDCHAR
STARTCHAR a1f2
ENCODING 41458
SWIDTH 84 0
DWIDTH 14 0
BBX 14 14 0 -2
BITMAP
0000
00C0
0120
0230
0220
0600
0600
3FE0
0600
3600
4C08
4FF0
39E0
0000
ENDCHAR
STARTCHAR a1f3
ENCODING 41459
SWIDTH 84 0
DWIDTH 14 0
BBX 14 14 0 -2
BITMAP
0000
1808
2410
6620
6640
2480
1900
0260
0490
0998
1198
2090
4060
0000
ENDCHAR
STARTCHAR a1f4
ENCODING 41460
SWIDTH 84 0
DWIDTH 14 0
BBX 14 14 0 -2
BITMAP
0000
0220
0220
0220
1FF8
0440
0440
0440
0440
3FF0
0880
0880
0880
0880
ENDCHAR
STARTCHAR a1f5
ENCODING 41461
SWIDTH 84 0
DWIDTH 14 0
BBX 14 14 0 -2
BITMAP
0000
0700
0880
1880
1900
0E00
0C78
1630
3320
31C0
30C0
1960
0E18
0000
ENDCHAR
STARTCHAR a1f6
ENCODING 41462
SWIDTH 84 0
DWIDTH 14 0
BBX 14 14 0 -2
BITMAP
0000
0000
0100
0380
1930
1D70
0380
0380
1D70
1930
0380
0100
0000
0000
ENDCHAR
STARTCHAR a1f7
ENCODING 41463
SWIDTH 84 0
DWIDTH 14 0
BBX 14 14 0 -2
BITMAP
0000
0380
0C60
1010
23C8
24C8
44C8
4888
4990
2760
2008
1830
07C0
0000
ENDCHAR
STARTCHAR a1f8
ENCODING 41464
SWIDTH 84 0
DWIDTH 14 0
BBX 14 14 0 -2
BITMAP
0380
0440
0440
0600
0300
0380
04C0
0640
0380
0180
00C0
0440
0440
0380
ENDCHAR
STARTCHAR a1f9
ENCODING 41465
SWIDTH 84 0
DWIDTH 14 0
BBX 14 14 0 -2
BITMAP
0000
0100
0100
0280
0280
7C7C
3018
0C60
0440
0920
0AA0
1C70
1010
0000
ENDCHAR
STARTCHAR a1fa
ENCODING 41466
SWIDTH 84 0
DWIDTH 14 0
BBX 14 14 0 -2
BITMAP
0000
0100
0100
0380
0380
7FFC
3FF8
0FE0
07C0
0FE0
0EE0
1C70
1010
0000
ENDCHAR
STARTCHAR a1fb
ENCODING 41467
SWIDTH 84 0
DWIDTH 14 0
BBX 14 14 0 -2
BITMAP
0000
0000
0380
0C60
1010
1010
2008
2008
2008
1010
1010
0C60
0380
0000
ENDCHAR
STARTCHAR a1fc
ENCODING 41468
SWIDTH 84 0
DWIDTH 14 0
BBX 14 14 0 -2
BITMAP
0000
0000
0380
0FE0
1FF0
1FF0
3FF8
3FF8
3FF8
1FF0
1FF0
0FE0
0380
0000
ENDCHAR
STARTCHAR a1fd
ENCODING 41469
SWIDTH 84 0
DWIDTH 14 0
BBX 14 14 0 -2
BITMAP
0000
0000
0380
0C60
1390
1450
2828
2828
2828
1450
1390
0C60
0380
0000
ENDCHAR
STARTCHAR a1fe
ENCODING 41470
SWIDTH 84 0
DWIDTH 14 0
BBX 14 14 0 -2
BITMAP
0000
0100
0280
0440
0820
1010
2008
4004
2008
1010
0820
0440
0280
0100
ENDCHAR
STARTCHAR a2a1
ENCODING 41633
SWIDTH 84 0
DWIDTH 14 0
BBX 14 14 0 -2
BITMAP
0000
0100
0380
07C0
0FE0
1FF0
3FF8
7FFC
3FF8
1FF0
0FE0
07C0
0380
0100
ENDCHAR
STARTCHAR a2a2
ENCODING 41634
SWIDTH 84 0
DWIDTH 14 0
BBX 14 14 0 -2
BITMAP
0000
7FF8
4008
4008
4008
4008
4008
4008
4008
4008
4008
4008
7FF8
0000
ENDCHAR
STARTCHAR a2a3
ENCODING 41635
SWIDTH 84 0
DWIDTH 14 0
BBX 14 14 0 -2
BITMAP
0000
7FF8
7FF8
7FF8
7FF8
7FF8
7FF8
7FF8
7FF8
7FF8
7FF8
7FF8
7FF8
0000
ENDCHAR
STARTCHAR a2a4
ENCODING 41636
SWIDTH 84 0
DWIDTH 14 0
BBX 14 14 0 -2
BITMAP
0000
0100
0100
0280
0280
0440
0440
0820
0820
1010
1010
3FF8
0000
0000
ENDCHAR
STARTCHAR a2a5
ENCODING 41637
SWIDTH 84 0
DWIDTH 14 0
BBX 14 14 0 -2
BITMAP
0000
0100
0100
0380
0380
07C0
07C0
0FE0
0FE0
1FF0
1FF0
3FF8
0000
0000
ENDCHAR
STARTCHAR a2a6
ENCODING 41638
SWIDTH 84 0
DWIDTH 14 0
BBX 14 14 0 -2
BITMAP
0000
3FF8
1010
1010
0820
0820
0440
0440
0280
0280
0100
0100
0000
0000
ENDCHAR
STARTCHAR a2a7
ENCODING 41639
SWIDTH 84 0
DWIDTH 14 0
BBX 14 14 0 -2
BITMAP
0000
3FF8
1FF0
1FF0
0FE0
0FE0
07C0
07C0
0380
0380
0100
0100
0000
0000
ENDCHAR
STARTCHAR a2a8
ENCODING 41640
SWIDTH 84 0
DWIDTH 14 0
BBX 14 14 0 -2
BITMAP
0000
0000
2108
1390
0920
0440
1290
3938
1290
0440
0920
1390
2108
0000
ENDCHAR
STARTCHAR a2a9
ENCODING 41641
SWIDTH 84 0
DWIDTH 14 0
BBX 14 14 0 -2
BITMAP
0000
3FF0
3FF0
0000
0000
7FF8
7FF8
0300
0300
0300
0300
0300
0300
0000
ENDCHAR
STARTCHAR a2aa
ENCODING 41642
SWIDTH 84 0
DWIDTH 14 0
BBX 14 14 0 -2
BITMAP
0000
0000
0000
0100
0080
0060
7FF8
0060
0080
0100
0000
0000
0000
0000
ENDCHAR
STARTCHAR a2ab
ENCODING 41643
SWIDTH 84 0
DWIDTH 14 0
BBX 14 14 0 -2
BITMAP
0000
0000
0000
0200
0400
1800
7FF8
1800
0400
0200
0000
0000
0000
0000
ENDCHAR
STARTCHAR a2ac
ENCODING 41644
SWIDTH 84 0
DWIDTH 14 0
BBX 14 14 0 -2
BITMAP
0000
0100
0100
0380
0380
0540
0920
0100
0100
0100
0100
0100
0100
0000
ENDCHAR
STARTCHAR a2ad
ENCODING 41645
SWIDTH 84 0
DWIDTH 14 0
BBX 14 14 0 -2
BITMAP
0000
0100
0100
0100
0100
0100
0100
0920
0540
0380
0380
0100
0100
0000
ENDCHAR
STARTCHAR a2ae
ENCODING 41646
SWIDTH 84 0
DWIDTH 14 0
BBX 14 14 0 -2
BITMAP
0000
0000
0000
0000
3FF0
3FF0
0000
0000
3FF0
3FF0
0000
0000
0000
0000
ENDCHAR
STARTCHAR a2ba
ENCODING 41658
SWIDTH 84 0
DWIDTH 14 0
BBX 14 14 0 -2
BITMAP
0000
0000
03F0
0C00
1000
2000
3FF0
2000
1000
0C00
03F0
0000
0000
0000
ENDCHAR
STARTCHAR a2bb
ENCODING 41659
SWIDTH 84 0
DWIDTH 14 0
BBX 14 14 0 -2
BITMAP
0000
0000
3F00
00C0
0020
0010
3FF0
0010
0020
00C0
3F00
0000
0000
0000
ENDCHAR
STARTCHAR a2bc
ENCODING 41660
SWIDTH 84 0
DWIDTH 14 0
BBX 14 14 0 -2
BITMAP
0000
0000
0FF0
1000
2000
2000
2000
1000
0FF0
0000
0000
3FF0
0000
0000
ENDCHAR
STARTCHAR a2bd
ENCODING 41661
SWIDTH 84 0
DWIDTH 14 0
BBX 14 14 0 -2
BITMAP
0000
0000
3FC0
0020
0010
0010
0010
0020
3FC0
0000
0000
3FF0
0000
0000
ENDCHAR
STARTCHAR a2be
ENCODING 41662
SWIDTH 84 0
DWIDTH 14 0
BBX 14 14 0 -2
BITMAP
0000
0000
03F0
0C00
1000
2000
2000
2000
2000
1000
0C00
03F0
0000
0000
ENDCHAR
STARTCHAR a2bf
ENCODING 41663
SWIDTH 84 0
DWIDTH 14 0
BBX 14 14 0 -2
BITMAP
0000
0000
3F00
00C0
0020
0010
0010
0010
0010
0020
00C0
3F00
0000
0000
ENDCHAR
STARTCHAR a2c0
ENCODING 41664
SWIDTH 84 0
DWIDTH 14 0
BBX 14 14 0 -2
BITMAP
0000
0000
2010
2010
2010
2010
2010
2010
1020
1020
0840
0780
0000
0000
ENDCHAR
STARTCHAR a2c1
ENCODING 41665
SWIDTH 84 0
DWIDTH 14 0
BBX 14 14 0 -2
BITMAP
0000
0000
0780
0840
1020
1020
2010
2010
2010
2010
2010
2010
0000
0000
ENDCHAR
STARTCHAR a2ca
ENCODING 41674
SWIDTH 84 0
DWIDTH 14 0
BBX 14 14 0 -2
BITMAP
0000
0000
0100
0100
0280
0280
0440
0440
0820
0820
1010
1010
0000
0000
ENDCHAR
STARTCHAR a2cb
ENCODING 41675
SWIDTH 84 0
DWIDTH 14 0
BBX 14 14 0 -2
BITMAP
0000
0000
1010
1010
0820
0820
0440
0440
0280
0280
0100
0100
0000
0000
ENDCHAR
STARTCHAR a2cc
ENCODING 41676
SWIDTH 84 0
DWIDTH 14 0
BBX 14 14 0 -2
BITMAP
0000
0000
0000
0000
0000
0000
3FF0
0010
0010
0010
0010
0010
0000
0000
ENDCHAR
STARTCHAR a2cd
ENCODING 41677
SWIDTH 84 0
DWIDTH 14 0
BBX 14 14 0 -2
BITMAP
0000
0000
0000
0040
0020
7FF0
0008
7FF0
0020
0040
0000
0000
0000
0000
ENDCHAR
STARTCHAR a2ce
ENCODING 41678
SWIDTH 84 0
DWIDTH 14 0
BBX 14 14 0 -2
BITMAP
0000
0000
0000
0840
1020
3FF0
4008
3FF0
1020
0840
0000
0000
0000
0000
ENDCHAR
STARTCHAR a2cf
ENCODING 41679
SWIDTH 84 0
DWIDTH 14 0
BBX 14 14 0 -2
BITMAP
0000
2008
2008
1010
1FF0
0820
0820
0440
0440
0280
0280
0100
0100
0000
ENDCHAR
STARTCHAR a2d0
ENCODING 41680
SWIDTH 84 0
DWIDTH 14 0
BBX 14 14 0 -2
BITMAP
0000
1FE0
0020
0020
0020
0020
1FE0
0020
0020
0020
0020
1FE0
0000
0000
ENDCHAR
STARTCHAR a2dc
ENCODING 41692
SWIDTH 84 0
DWIDTH 14 0
BBX 14 14 0 -2
BITMAP
0000
0000
0010
0020
0040
0080
0100
0200
0400
0800
1000
3FF0
0000
0000
ENDCHAR
STARTCHAR a2dd
ENCODING 41693
SWIDTH 84 0
DWIDTH 14 0
BBX 14 14 0 -2
BITMAP
0000
0000
0100
0100
0100
0100
0100
0100
0100
0100
0100
3FF8
0000
0000
ENDCHAR
STARTCHAR a2de
ENCODING 41694
SWIDTH 84 0
DWIDTH 14 0
BBX 14 14 0 -2
BITMAP
0000
0FE0
3018
4004
0000
0000
0000
0000
0000
0000
0000
0000
0000
0000
ENDCHAR
STARTCHAR a2df
ENCODING 41695
SWIDTH 84 0
DWIDTH 14 0
BBX 14 14 0 -2
BITMAP
0000
01C0
0260
0020
0020
03A0
0660
0460
0C60
0C40
0CC0
0580
0300
0000
ENDCHAR
STARTCHAR a2e0
ENCODING 41696
SWIDTH 84 0
DWIDTH 14 0
BBX 14 14 0 -2
BITMAP
0000
0000
3FF8
1FF0
1810
0820
0C20
0440
0640
0280
0380
0100
0100
0000
ENDCHAR
STARTCHAR a2e1
ENCODING 41697
SWIDTH 84 0
DWIDTH 14 0
BBX 14 14 0 -2
BITMAP
0000
0000
0000
3FF0
0000
0000
3FF0
0000
0000
3FF0
0000
0000
0000
0000
ENDCHAR
STARTCHAR a2e2
ENCODING 41698
SWIDTH 84 0
DWIDTH 14 0
BBX 14 14 0 -2
BITMAP
0000
0000
0800
1C00
0800
3FF0
0000
0000
3FF0
0040
00E0
0040
0000
0000
ENDCHAR
STARTCHAR a2e3
ENCODING 41699
SWIDTH 84 0
DWIDTH 14 0
BBX 14 14 0 -2
BITMAP
0000
0110
0220
0440
0880
1100
2200
1100
0880
0440
0220
0110
0000
0000
ENDCHAR
STARTCHAR a2e4
ENCODING 41700
SWIDTH 84 0
DWIDTH 14 0
BBX 14 14 0 -2
BITMAP
0000
2200
1100
0880
0440
0220
0110
0220
0440
0880
1100
2200
0000
0000
ENDCHAR
STARTCHAR a2e5
ENCODING 41701
SWIDTH 84 0
DWIDTH 14 0
BBX 14 14 0 -2
BITMAP
0000
01F8
0100
0100
0100
0200
0200
0200
2200
7400
1C00
0C00
0400
0000
ENDCHAR
STARTCHAR a2e6
ENCODING 41702
SWIDTH 84 0
DWIDTH 14 0
BBX 14 14 0 -2
BITMAP
0000
0000
0000
0000
0C60
1090
2108
2108
1210
0C60
0000
0000
0000
0000
ENDCHAR
STARTCHAR a2e7
ENCODING 41703
SWIDTH 84 0
DWIDTH 14 0
BBX 14 14 0 -2
BITMAP
0000
0000
0000
0000
0630
0940
1080
1080
0940
0630
0000
0000
0000
0000
ENDCHAR
STARTCHAR a2e8
ENCODING 41704
SWIDTH 84 0
DWIDTH 14 0
BBX 14 14 0 -2
BITMAP
0000
0000
1010
3838
1010
0000
0000
0000
0000
0100
0380
0100
0000
0000
ENDCHAR
STARTCHAR a2e9
ENCODING 41705
SWIDTH 84 0
DWIDTH 14 0
BBX 14 14 0 -2
BITMAP
00C0
01C0
0200
0200
0300
0300
0180
0180
00C0
00C0
0040
0040
0380
0300
ENDCHAR
STARTCHAR a2ea
ENCODING 41706
SWIDTH 84 0
DWIDTH 14 0
BBX 14 14 0 -2
BITMAP
0660
0EE0
1100
1100
1980
1980
0CC0
0CC0
0660
0660
0220
0220
1DC0
1980
ENDCHAR
STARTCHAR a2f2
ENCODING 41714
SWIDTH 84 0
DWIDTH 14 0
BBX 14 14 0 -2
BITMAP
0300
0480
0480
0300
0100
0380
0380
04C0
04C0
0860
0FE0
1030
3878
0000
ENDCHAR
STARTCHAR a2f3
ENCODING 41715
SWIDTH 84 0
DWIDTH 14 0
BBX 14 14 0 -2
BITMAP
0000
1820
2440
6680
6680
2500
1A00
0310
06A8
0EEC
16EC
12A8
2110
0000
ENDCHAR
STARTCHAR a2f4
ENCODING 41716
SWIDTH 84 0
DWIDTH 14 0
BBX 14 14 0 -2
BITMAP
0080
0480
04E0
07E0
1F80
1C80
0480
04E0
07E0
1F80
1C80
0480
0400
0000
ENDCHAR
STARTCHAR a2f5
ENCODING 41717
SWIDTH 84 0
DWIDTH 14 0
BBX 14 14 0 -2
BITMAP
0000
0400
0400
0400
0400
0400
05C0
0660
0460
0440
0480
0500
0600
0000
ENDCHAR
STARTCHAR a2f6
ENCODING 41718
SWIDTH 84 0
DWIDTH 14 0
BBX 14 14 0 -2
BITMAP
0100
0180
01C0
0160
0120
0130
0110
0110
0110
0720
0F00
0F00
0600
0000
ENDCHAR
STARTCHAR a2f7
ENCODING 41719
SWIDTH 84 0
DWIDTH 14 0
BBX 14 14 0 -2
BITMAP
0100
0380
0100
0920
1FF0
0920
0380
0380
0100
0100
0100
0100
0100
0100
ENDCHAR
STARTCHAR a2f8
ENCODING 41720
SWIDTH 84 0
DWIDTH 14 0
BBX 14 14 0 -2
BITMAP
0100
0380
0920
1FF0
0920
0380
0100
0100
0380
0920
1FF0
0920
0380
0100
ENDCHAR
STARTCHAR a2f9
ENCODING 41721
SWIDTH 84 0
DWIDTH 14 0
BBX 14 14 0 -2
BITMAP
0000
03C0
0740
0740
0740
0340
0140
0140
0140
0140
0140
0140
0140
0000
ENDCHAR
STARTCHAR a2fe
ENCODING 41726
SWIDTH 84 0
DWIDTH 14 0
BBX 14 14 0 -2
BITMAP
0000
07C0
1830
2008
2008
4004
4004
4004
4004
4004
2008
2008
1830
07C0
ENDCHAR
STARTCHAR a3b0
ENCODING 41904
SWIDTH 84 0
DWIDTH 14 0
BBX 14 14 0 -2
BITMAP
0000
0380
0C60
1830
1830
1830
1830
1830
1830
1830
0C60
0380
0000
0000
ENDCHAR
STARTCHAR a3b1
ENCODING 41905
SWIDTH 84 0
DWIDTH 14 0
BBX 14 14 0 -2
BITMAP
0000
0100
0300
0F00
0300
0300
0300
0300
0300
0300
0300
0FC0
0000
0000
ENDCHAR
STARTCHAR a3b2
ENCODING 41906
SWIDTH 84 0
DWIDTH 14 0
BBX 14 14 0 -2
BITMAP
0000
0780
08C0
1860
1C60
08C0
0080
0100
0200
0420
0FC0
1FC0
0000
0000
ENDCHAR
STARTCHAR a3b3
ENCODING 41907
SWIDTH 84 0
DWIDTH 14 0
BBX 14 14 0 -2
BITMAP
0000
0780
08C0
1860
1860
00C0
0380
0040
1860
1860
08C0
0780
0000
0000
ENDCHAR
STARTCHAR a3b4
ENCODING 41908
SWIDTH 84 0
DWIDTH 14 0
BBX 14 14 0 -2
BITMAP
0000
00C0
01C0
02C0
02C0
04C0
08C0
18C0
1FF0
00C0
00C0
01E0
0000
0000
ENDCHAR
STARTCHAR a3b5
ENCODING 41909
SWIDTH 84 0
DWIDTH 14 0
BBX 14 14 0 -2
BITMAP
0000
0FE0
0FC0
0800
0800
0F80
00C0
0060
0060
1860
18C0
0F00
0000
0000
ENDCHAR
STARTCHAR a3b6
ENCODING 41910
SWIDTH 84 0
DWIDTH 14 0
BBX 14 14 0 -2
BITMAP
0000
03C0
0460
0C60
0800
1BC0
1C60
1830
1830
1830
0C60
0380
0000
0000
ENDCHAR
STARTCHAR a3b7
ENCODING 41911
SWIDTH 84 0
DWIDTH 14 0
BBX 14 14 0 -2
BITMAP
0000
0FF0
0FE0
1040
0080
0080
0100
0100
0300
0300
0300
0300
0000
0000
ENDCHAR
STARTCHAR a3b8
ENCODING 41912
SWIDTH 84 0
DWIDTH 14 0
BBX 14 14 0 -2
BITMAP
0000
0780
0840
1860
1C60
0EC0
0780
0DC0
18E0
1860
0840
0780
0000
0000
ENDCHAR
STARTCHAR a3b9
ENCODING 41913
SWIDTH 84 0
DWIDTH 14 0
BBX 14 14 0 -2
BITMAP
0000
0300
0CC0
1860
1860
1860
0CE0
0760
0060
1840
1880
0F00
0000
0000
ENDCHAR
STARTCHAR a3c1
ENCODING 41921
SWIDTH 84 0
DWIDTH 14 0
BBX 14 14 0 -2
BITMAP
0000
0100
0100
0380
0380
04C0
04C0
0860
0FE0
1030
1030
7878
0000
0000
ENDCHAR
STARTCHAR a3c2
ENCODING 41922
SWIDTH 84 0
DWIDTH 14 0
BBX 14 14 0 -2
BITMAP
0000
3F80
0C60
0C30
0C30
0C60
0FC0
0C30
0C18
0C18
0C30
3FC0
0000
0000
ENDCHAR
STARTCHAR a3c3
ENCODING 41923
SWIDTH 84 0
DWIDTH 14 0
BBX 14 14 0 -2
BITMAP
0000
03D0
0C30
1810
3010
3000
3000
3000
3000
1810
0C30
03C0
0000
0000
ENDCHAR
STARTCHAR a3c4
ENCODING 41924
SWIDTH 84 0
DWIDTH 14 0
BBX 14 14 0 -2
BITMAP
0000
3F80
0C60
0C30
0C18
0C18
0C18
0C18
0C18
0C30
0C60
3F80
0000
0000
ENDCHAR
STARTCHAR a3c5
ENCODING 41925
SWIDTH 84 0
DWIDTH 14 0
BBX 14 14 0 -2
BITMAP
0000
3FE0
0C20
0C10
0C00
0C40
0FC0
0C40
0C00
0C08
0C10
3FF0
0000
0000
ENDCHAR
STARTCHAR a3c6
ENCODING 41926
SWIDTH 84 0
DWIDTH 14 0
BBX 14 14 0 -2
BITMAP
0000
3FE0
0C20
0C10
0C00
0C40
0FC0
0C40
0C00
0C00
0C00
3F00
0000
0000
ENDCHAR
STARTCHAR a3c7
ENCODING 41927
SWIDTH 84 0
DWIDTH 14 0
BBX 14 14 0 -2
BITMAP
0000
03D0
0C30
1810
3000
3000
30F8
3030
3030
1830
0C60
0380
0000
0000
ENDCHAR
STARTCHAR a3c8
ENCODING 41928
SWIDTH 84 0
DWIDTH 14 0
BBX 14 14 0 -2
BITMAP
0000
3C78
1830
1830
1830
1830
1FF0
1830
1830
1830
1830
3C78
0000
0000
ENDCHAR
STARTCHAR a3c9
ENCODING 41929
SWIDTH 84 0
DWIDTH 14 0
BBX 14 14 0 -2
BITMAP
0000
0FC0
0300
0300
0300
0300
0300
0300
0300
0300
0300
0FC0
0000
0000
ENDCHAR
STARTCHAR a3ca
ENCODING 41930
SWIDTH 84 0
DWIDTH 14 0
BBX 14 14 0 -2
BITMAP
0000
01F8
0060
0060
0060
0060
0060
1060
3860
3060
18C0
0700
0000
0000
ENDCHAR
STARTCHAR a3cb
ENCODING 41931
SWIDTH 84 0
DWIDTH 14 0
BBX 14 14 0 -2
BITMAP
0000
3C78
1820
1840
1880
1980
1AC0
1CC0
1860
1860
1830
3C78
0000
0000
ENDCHAR
STARTCHAR a3cc
ENCODING 41932
SWIDTH 84 0
DWIDTH 14 0
BBX 14 14 0 -2
BITMAP
0000
3F00
0C00
0C00
0C00
0C00
0C00
0C00
0C00
0C08
0C10
3FF0
0000
0000
ENDCHAR
STARTCHAR a3cd
ENCODING 41933
SWIDTH 84 0
DWIDTH 14 0
BBX 14 14 0 -2
BITMAP
0000
3838
1830
1C70
1C70
16B0
16B0
1730
1330
1230
1030
3878
0000
0000
ENDCHAR
STARTCHAR a3ce
ENCODING 41934
SWIDTH 84 0
DWIDTH 14 0
BBX 14 14 0 -2
BITMAP
0000
3870
1820
1C20
1620
1620
1320
11A0
11A0
10E0
1060
3860
0000
0000
ENDCHAR
STARTCHAR a3cf
ENCODING 41935
SWIDTH 84 0
DWIDTH 14 0
BBX 14 14 0 -2
BITMAP
0000
0380
0C60
1830
3018
3018
3018
3018
3018
1830
0C60
0380
0000
0000
ENDCHAR
STARTCHAR a3d0
ENCODING 41936
SWIDTH 84 0
DWIDTH 14 0
BBX 14 14 0 -2
BITMAP
0000
3F80
0C60
0C30
0C30
0C60
0F80
0C00
0C00
0C00
0C00
3F00
0000
0000
ENDCHAR
STARTCHAR a3d1
ENCODING 41937
SWIDTH 84 0
DWIDTH 14 0
BBX 14 14 0 -2
BITMAP
0000
0380
0C60
1830
3018
3018
3018
3018
3318
1CB0
0C60
03E0
0018
0000
ENDCHAR
STARTCHAR a3d2
ENCODING 41938
SWIDTH 84 0
DWIDTH 14 0
BBX 14 14 0 -2
BITMAP
0000
3F80
0C60
0C30
0C30
0C60
0F80
0CC0
0C60
0C60
0C30
3E38
0000
0000
ENDCHAR
STARTCHAR a3d3
ENCODING 41939
SWIDTH 84 0
DWIDTH 14 0
BBX 14 14 0 -2
BITMAP
0000
07A0
0860
1820
1C00
0F00
03C0
00E0
1030
1830
1C20
13C0
0000
0000
ENDCHAR
STARTCHAR a3d4
ENCODING 41940
SWIDTH 84 0
DWIDTH 14 0
BBX 14 14 0 -2
BITMAP
0000
3FF0
2310
4308
0300
0300
0300
0300
0300
0300
0300
0FC0
0000
0000
ENDCHAR
STARTCHAR a3d5
ENCODING 41941
SWIDTH 84 0
DWIDTH 14 0
BBX 14 14 0 -2
BITMAP
0000
3C38
1810
1810
1810
1810
1810
1810
1810
1810
0C20
03C0
0000
0000
ENDCHAR
STARTCHAR a3d6
ENCODING 41942
SWIDTH 84 0
DWIDTH 14 0
BBX 14 14 0 -2
BITMAP
0000
3C38
1810
1810
0C20
0C20
0640
0640
0380
0380
0100
0100
0000
0000
ENDCHAR
STARTCHAR a3d7
ENCODING 41943
SWIDTH 84 0
DWIDTH 14 0
BBX 14 14 0 -2
BITMAP
0000
3BB8
1990
1990
1990
0DD0
0EE0
0EE0
0660
0660
0660
0660
0000
0000
ENDCHAR
STARTCHAR a3d8
ENCODING 41944
SWIDTH 84 0
DWIDTH 14 0
BBX 14 14 0 -2
BITMAP
0000
3C78
1820
0C40
0680
0300
0300
0380
04C0
0860
1030
3878
0000
0000
ENDCHAR
STARTCHAR a3d9
ENCODING 41945
SWIDTH 84 0
DWIDTH 14 0
BBX 14 14 0 -2
BITMAP
0000
3C78
1820
0C40
0680
0300
0300
0300
0300
0300
0300
0FC0
0000
0000
ENDCHAR
STARTCHAR a3da
ENCODING 41946
SWIDTH 84 0
DWIDTH 14 0
BBX 14 14 0 -2
BITMAP
0000
1FF0
1060
20C0
0180
0180
0300
0600
0600
0C08
1810
3FF0
0000
0000
ENDCHAR
STARTCHAR a3e1
ENCODING 41953
SWIDTH 84 0
DWIDTH 14 0
BBX 14 14 0 -2
BITMAP
0000
0000
0000
0000
0780
0C40
0C60
03E0
0C60
1860
18E0
0F30
0000
0000
ENDCHAR
STARTCHAR a3e2
ENCODING 41954
SWIDTH 84 0
DWIDTH 14 0
BBX 14 14 0 -2
BITMAP
0000
1C00
0C00
0C00
0D80
0E60
0C30
0C30
0C30
0C30
0E60
1D80
0000
0000
ENDCHAR
STARTCHAR a3e3
ENCODING 41955
SWIDTH 84 0
DWIDTH 14 0
BBX 14 14 0 -2
BITMAP
0000
0000
0000
0000
0380
0C60
1820
1800
1800
1820
0C60
0380
0000
0000
ENDCHAR
STARTCHAR a3e4
ENCODING 41956
SWIDTH 84 0
DWIDTH 14 0
BBX 14 14 0 -2
BITMAP
0000
00E0
0060
0060
0360
0CE0
1860
1860
1860
1860
0CE0
0370
0000
0000
ENDCHAR
STARTCHAR a3e5
ENCODING 41957
SWIDTH 84 0
DWIDTH 14 0
BBX 14 14 0 -2
BITMAP
0000
0000
0000
0000
07C0
0820
1830
1FF0
1800
1810
0C30
03C0
0000
0000
ENDCHAR
STARTCHAR a3e6
ENCODING 41958
SWIDTH 84 0
DWIDTH 14 0
BBX 14 14 0 -2
BITMAP
0000
01C0
0260
0660
0600
1FE0
0600
0600
0600
0600
0600
1F80
0000
0000
ENDCHAR
STARTCHAR a3e7
ENCODING 41959
SWIDTH 84 0
DWIDTH 14 0
BBX 14 14 0 -2
BITMAP
0000
0000
0000
0000
07E0
0CC0
08C0
0880
0700
0C00
0FC0
18E0
0820
07C0
ENDCHAR
STARTCHAR a3e8
ENCODING 41960
SWIDTH 84 0
DWIDTH 14 0
BBX 14 14 0 -2
BITMAP
0000
1C00
0C00
0C00
0DC0
0E60
0C30
0C30
0C30
0C30
0C30
1E78
0000
0000
ENDCHAR
STARTCHAR a3e9
ENCODING 41961
SWIDTH 84 0
DWIDTH 14 0
BBX 14 14 0 -2
BITMAP
0000
0100
0380
0100
0000
0F00
0300
0300
0300
0300
0300
0FC0
0000
0000
ENDCHAR
STARTCHAR a3ea
ENCODING 41962
SWIDTH 84 0
DWIDTH 14 0
BBX 14 14 0 -2
BITMAP
0000
0100
0380
0100
0000
0F80
0180
0180
0180
0180
0180
1980
1900
0E00
ENDCHAR
STARTCHAR a3eb
ENCODING 41963
SWIDTH 84 0
DWIDTH 14 0
BBX 14 14 0 -2
BITMAP
0000
1C00
0C00
0C70
0C40
0C80
0DC0
0EC0
0C60
0C60
0C30
1E38
0000
0000
ENDCHAR
STARTCHAR a3ec
ENCODING 41964
SWIDTH 84 0
DWIDTH 14 0
BBX 14 14 0 -2
BITMAP
0000
0F00
0300
0300
0300
0300
0300
0300
0300
0300
0300
0FC0
0000
0000
ENDCHAR
STARTCHAR a3ed
ENCODING 41965
SWIDTH 84 0
DWIDTH 14 0
BBX 14 14 0 -2
BITMAP
0000
0000
0000
0000
76E0
3B30
3330
3330
3330
3330
3330
7BB8
0000
0000
ENDCHAR
STARTCHAR a3ee
ENCODING 41966
SWIDTH 84 0
DWIDTH 14 0
BBX 14 14 0 -2
BITMAP
0000
0000
0000
0000
1DC0
0E20
0C30
0C30
0C30
0C30
0C30
1E78
0000
0000
ENDCHAR
STARTCHAR a3ef
ENCODING 41967
SWIDTH 84 0
DWIDTH 14 0
BBX 14 14 0 -2
BITMAP
0000
0000
0000
0000
0380
0C60
1830
1830
1830
1830
0C60
0380
0000
0000
ENDCHAR
STARTCHAR a3f0
ENCODING 41968
SWIDTH 84 0
DWIDTH 14 0
BBX 14 14 0 -2
BITMAP
0000
0000
0000
0000
1DC0
0E60
0C30
0C30
0C30
0C30
0E60
0DC0
0C00
1E00
ENDCHAR
STARTCHAR a3f1
ENCODING 41969
SWIDTH 84 0
DWIDTH 14 0
BBX 14 14 0 -2
BITMAP
0000
0000
0000
0000
0770
0CE0
1860
1860
1860
1860
0CE0
0760
0060
00F0
ENDCHAR
STARTCHAR a3f2
ENCODING 41970
SWIDTH 84 0
DWIDTH 14 0
BBX 14 14 0 -2
BITMAP
0000
0000
0000
0000
1DC0
0E60
0C60
0C00
0C00
0C00
0C00
1E00
0000
0000
ENDCHAR
STARTCHAR a3f3
ENCODING 41971
SWIDTH 84 0
DWIDTH 14 0
BBX 14 14 0 -2
BITMAP
0000
0000
0000
0000
0FC0
1840
1C00
0F00
03C0
10E0
1860
17C0
0000
0000
ENDCHAR
STARTCHAR a3f4
ENCODING 41972
SWIDTH 84 0
DWIDTH 14 0
BBX 14 14 0 -2
BITMAP
0000
0000
0200
0600
0600
1FE0
0600
0600
0600
0600
0620
03C0
0000
0000
ENDCHAR
STARTCHAR a3f5
ENCODING 41973
SWIDTH 84 0
DWIDTH 14 0
BBX 14 14 0 -2
BITMAP
0000
0000
0000
0000
1CF0
0C30
0C30
0C30
0C30
0C30
0C70
0798
0000
0000
ENDCHAR
STARTCHAR a3f6
ENCODING 41974
SWIDTH 84 0
DWIDTH 14 0
BBX 14 14 0 -2
BITMAP
0000
0000
0000
0000
3E70
1820
0C40
0C40
0680
0680
0300
0300
0000
0000
ENDCHAR
STARTCHAR a3f7
ENCODING 41975
SWIDTH 84 0
DWIDTH 14 0
BBX 14 14 0 -2
BITMAP
0000
0000
0000
0000
3DB8
1990
1990
0ED0
0EE0
0660
0660
0660
0000
0000
ENDCHAR
STARTCHAR a3f8
ENCODING 41976
SWIDTH 84 0
DWIDTH 14 0
BBX 14 14 0 -2
BITMAP
0000
0000
0000
0000
1E70
0C20
0640
0380
0380
04C0
0860
1CF0
0000
0000
ENDCHAR
STARTCHAR a3f9
ENCODING 41977
SWIDTH 84 0
DWIDTH 14 0
BBX 14 14 0 -2
BITMAP
0000
0000
0000
0000
1F70
0C20
0620
0640
0340
0380
0180
1900
1900
0E00
ENDCHAR
STARTCHAR a3fa
ENCODING 41978
SWIDTH 84 0
DWIDTH 14 0
BBX 14 14 0 -2
BITMAP
0000
0000
0000
0000
1FE0
10C0
0180
0300
0600
0C00
1820
1FE0
0000
0000
ENDCHAR
STARTCHAR a4a1
ENCODING 42145
SWIDTH 84 0
DWIDTH 14 0
BBX 14 14 0 -2
BITMAP
0000
0000
0000
0400
0200
1380
0E00
0480
07E0
0D10
1610
2610
2A20
10C0
ENDCHAR
STARTCHAR a4a2
ENCODING 42146
SWIDTH 84 0
DWIDTH 14 0
BBX 14 14 0 -2
BITMAP
0400
0200
02C0
1F00
0480
0480
07E0
0D10
1508
2208
2608
2A10
1060
0000
ENDCHAR
STARTCHAR a4a3
ENCODING 42147
SWIDTH 84 0
DWIDTH 14 0
BBX 14 14 0 -2
BITMAP
0000
0000
0000
0000
0000
0000
1040
1020
1010
1030
0A00
0C00
0400
0000
ENDCHAR
STARTCHAR a4a4
ENCODING 42148
SWIDTH 84 0
DWIDTH 14 0
BBX 14 14 0 -2
BITMAP
0000
0000
0000
4000
2060
2010
2008
2208
2418
1408
1800
0800
0000
0000
ENDCHAR
STARTCHAR a4a5
ENCODING 42149
SWIDTH 84 0
DWIDTH 14 0
BBX 14 14 0 -2
BITMAP
0000
0000
0000
0000
0200
0180
0000
1380
0C40
0040
0040
0040
0080
0300
ENDCHAR
STARTCHAR a4a6
ENCODING 42150
SWIDTH 84 0
DWIDTH 14 0
BBX 14 14 0 -2
BITMAP
0200
01C0
0000
0000
03C0
1C20
0020
0020
0020
0020
0040
0040
0080
0100
ENDCHAR
STARTCHAR a4a7
ENCODING 42151
SWIDTH 84 0
DWIDTH 14 0
BBX 14 14 0 -2
BITMAP
0000
0000
0000
0000
0200
0180
0000
01C0
0E80
0100
0200
0700
0900
10F0
ENDCHAR
STARTCHAR a4a8
ENCODING 42152
SWIDTH 84 0
DWIDTH 14 0
BBX 14 14 0 -2
BITMAP
0400
0380
0000
0000
11C0
0E80
0100
0200
0400
0E00
1100
2100
20F8
0000
ENDCHAR
STARTCHAR a4a9
ENCODING 42153
SWIDTH 84 0
DWIDTH 14 0
BBX 14 14 0 -2
BITMAP
0000
0000
0000
0000
1040
0830
0C20
3800
0BC0
0C20
1820
2820
18C0
0800
ENDCHAR
STARTCHAR a4aa
ENCODING 42154
SWIDTH 84 0
DWIDTH 14 0
BBX 14 14 0 -2
BITMAP
0000
0800
0430
0508
060C
1C00
0460
0590
0608
0C08
3488
0C70
0400
0000
ENDCHAR
STARTCHAR a4ab
ENCODING 42155
SWIDTH 84 0
DWIDTH 14 0
BBX 14 14 0 -2
BITMAP
0000
0800
0400
0460
4710
3C88
0898
0880
0880
1080
1100
2500
2200
0000
ENDCHAR
STARTCHAR a4ac
ENCODING 42156
SWIDTH 84 0
DWIDTH 14 0
BBX 14 14 0 -2
BITMAP
0008
0824
0410
0440
4720
3C90
0888
0898
0880
1080
1100
2500
2200
0000
ENDCHAR
STARTCHAR a4ad
ENCODING 42157
SWIDTH 84 0
DWIDTH 14 0
BBX 14 14 0 -2
BITMAP
0200
0100
0160
0F80
0080
00F0
1F40
0020
0020
07F0
0810
0800
0600
01C0
ENDCHAR
STARTCHAR a4ae
ENCODING 42158
SWIDTH 84 0
DWIDTH 14 0
BBX 14 14 0 -2
BITMAP
0408
0224
02D0
1F00
0100
01E0
3E80
0040
0040
0FE0
1020
1000
0C00
0380
ENDCHAR
STARTCHAR a4af
ENCODING 42159
SWIDTH 84 0
DWIDTH 14 0
BBX 14 14 0 -2
BITMAP
0080
0040
0040
0080
0100
0600
0800
0800
0400
0200
0100
0080
0040
0040
ENDCHAR
STARTCHAR a4b0
ENCODING 42160
SWIDTH 84 0
DWIDTH 14 0
BBX 14 14 0 -2
BITMAP
0080
0040
0040
0088
0124
0610
0800
0800
0400
0200
0100
0080
0040
0040
ENDCHAR
STARTCHAR a4b1
ENCODING 42161
SWIDTH 84 0
DWIDTH 14 0
BBX 14 14 0 -2
BITMAP
0080
2040
1020
1020
103C
23E0
2020
2020
2020
2020
1820
1040
1040
0080
ENDCHAR
STARTCHAR a4b2
ENCODING 42162
SWIDTH 84 0
DWIDTH 14 0
BBX 14 14 0 -2
BITMAP
0108
40A4
2050
2040
2078
47C0
4040
4040
4040
4040
3040
2080
2080
0100
ENDCHAR
STARTCHAR a4b3
ENCODING 42163
SWIDTH 84 0
DWIDTH 14 0
BBX 14 14 0 -2
BITMAP
0000
0800
07E0
0080
0100
0000
0000
0000
0000
2000
2000
1010
0FE0
0000
ENDCHAR
STARTCHAR a4b4
ENCODING 42164
SWIDTH 84 0
DWIDTH 14 0
BBX 14 14 0 -2
BITMAP
0008
0804
07F0
0088
0100
0000
0000
0000
0000
2000
2000
1010
0FE0
0000
ENDCHAR
STARTCHAR a4b5
ENCODING 42165
SWIDTH 84 0
DWIDTH 14 0
BBX 14 14 0 -2
BITMAP
0400
0200
0130
21C0
1E80
0040
0040
07E0
0820
1000
1000
0C00
03C0
0000
ENDCHAR
STARTCHAR a4b6
ENCODING 42166
SWIDTH 84 0
DWIDTH 14 0
BBX 14 14 0 -2
BITMAP
0408
0204
0130
21C8
1E80
0040
0040
07E0
0820
1000
1000
0C00
03C0
0000
ENDCHAR
STARTCHAR a4b7
ENCODING 42167
SWIDTH 84 0
DWIDTH 14 0
BBX 14 14 0 -2
BITMAP
0000
1000
0800
0800
0800
0800
0800
0800
0800
0808
0810
0460
0380
0000
ENDCHAR
STARTCHAR a4b8
ENCODING 42168
SWIDTH 84 0
DWIDTH 14 0
BBX 14 14 0 -2
BITMAP
0000
1020
0890
0840
0800
0800
0800
0800
0800
0808
0810
0460
0380
0000
ENDCHAR
STARTCHAR a4b9
ENCODING 42169
SWIDTH 84 0
DWIDTH 14 0
BBX 14 14 0 -2
BITMAP
0100
0080
40F8
3F80
0080
0380
04C0
0440
03C0
0040
0080
0080
0100
0200
ENDCHAR
STARTCHAR a4ba
ENCODING 42170
SWIDTH 84 0
DWIDTH 14 0
BBX 14 14 0 -2
BITMAP
0128
0094
40F8
3F80
0080
0380
04C0
0440
03C0
0040
0080
0080
0100
0200
ENDCHAR
STARTCHAR a4bb
ENCODING 42171
SWIDTH 84 0
DWIDTH 14 0
BBX 14 14 0 -2
BITMAP
0000
0080
1040
0840
0878
4BC0
3C40
0840
0840
08C0
0840
0400
03E0
0000
ENDCHAR
STARTCHAR a4bc
ENCODING 42172
SWIDTH 84 0
DWIDTH 14 0
BBX 14 14 0 -2
BITMAP
0008
0084
1050
0848
0878
4BC0
3C40
0840
0840
08C0
0840
0400
03E0
0000
ENDCHAR
STARTCHAR a4bd
ENCODING 42173
SWIDTH 84 0
DWIDTH 14 0
BBX 14 14 0 -2
BITMAP
0000
09C0
0640
0080
0100
0238
07C0
3880
0100
0200
0200
0200
0100
00E0
ENDCHAR
STARTCHAR a4be
ENCODING 42174
SWIDTH 84 0
DWIDTH 14 0
BBX 14 14 0 -2
BITMAP
0000
09C8
0664
0090
0100
0238
07C0
3880
0100
0200
0200
0200
0100
00E0
ENDCHAR
STARTCHAR a4bf
ENCODING 42175
SWIDTH 84 0
DWIDTH 14 0
BBX 14 14 0 -2
BITMAP
0000
0800
0480
0700
3C00
08F0
0818
0820
1000
1000
1100
2100
20F8
0000
ENDCHAR
STARTCHAR a4c0
ENCODING 42176
SWIDTH 84 0
DWIDTH 14 0
BBX 14 14 0 -2
BITMAP
0008
0824
0490
0700
3C00
08F0
0818
0820
1000
1000
1100
2100
20F8
0000
ENDCHAR
STARTCHAR a4c1
ENCODING 42177
SWIDTH 84 0
DWIDTH 14 0
BBX 14 14 0 -2
BITMAP
0800
0400
04C0
4700
3C00
0800
08C0
0B20
1C10
1010
0010
0020
00C0
0700
ENDCHAR
STARTCHAR a4c2
ENCODING 42178
SWIDTH 84 0
DWIDTH 14 0
BBX 14 14 0 -2
BITMAP
0800
0408
04C4
4710
3C08
0800
08C0
0B20
1C10
1010
0010
0020
00C0
0700
ENDCHAR
STARTCHAR a4c3
ENCODING 42179
SWIDTH 84 0
DWIDTH 14 0
BBX 14 14 0 -2
BITMAP
0000
0000
0000
0000
0000
0000
01C0
0620
3810
0010
0010
0020
00C0
0700
ENDCHAR
STARTCHAR a4c4
ENCODING 42180
SWIDTH 84 0
DWIDTH 14 0
BBX 14 14 0 -2
BITMAP
0000
0000
0000
03E0
4C10
3008
0008
0008
0008
0010
0060
0380
0000
0000
ENDCHAR
STARTCHAR a4c5
ENCODING 42181
SWIDTH 84 0
DWIDTH 14 0
BBX 14 14 0 -2
BITMAP
0008
0024
0010
03E0
4C10
3008
0008
0008
0008
0010
0060
0380
0000
0000
ENDCHAR
STARTCHAR a4c6
ENCODING 42182
SWIDTH 84 0
DWIDTH 14 0
BBX 14 14 0 -2
BITMAP
0000
0038
43C0
3C80
0100
0100
0200
0200
0200
0200
0200
0100
00E0
0000
ENDCHAR
STARTCHAR a4c7
ENCODING 42183
SWIDTH 84 0
DWIDTH 14 0
BBX 14 14 0 -2
BITMAP
0000
0038
43C0
3C88
0124
0110
0200
0200
0200
0200
0200
0100
00E0
0000
ENDCHAR
STARTCHAR a4c8
ENCODING 42184
SWIDTH 84 0
DWIDTH 14 0
BBX 14 14 0 -2
BITMAP
0000
0400
0200
0200
0200
0270
0380
0600
0800
1000
1000
0800
07F0
0000
ENDCHAR
STARTCHAR a4c9
ENCODING 42185
SWIDTH 84 0
DWIDTH 14 0
BBX 14 14 0 -2
BITMAP
0000
0408
0224
0210
0200
0270
0380
0600
0800
1000
1000
0800
07F0
0000
ENDCHAR
STARTCHAR a4ca
ENCODING 42186
SWIDTH 84 0
DWIDTH 14 0
BBX 14 14 0 -2
BITMAP
0400
0200
0280
3F00
0470
0818
0820
1040
1040
2040
03C0
0460
0450
0380
ENDCHAR
STARTCHAR a4cb
ENCODING 42187
SWIDTH 84 0
DWIDTH 14 0
BBX 14 14 0 -2
BITMAP
0000
2000
1000
10F0
1318
2020
2000
2000
2000
2200
2A00
11F8
1000
1000
ENDCHAR
STARTCHAR a4cc
ENCODING 42188
SWIDTH 84 0
DWIDTH 14 0
BBX 14 14 0 -2
BITMAP
0000
0100
0080
0080
13E0
1510
1908
1208
2A08
4C08
4C68
5490
2068
0000
ENDCHAR
STARTCHAR a4cd
ENCODING 42189
SWIDTH 84 0
DWIDTH 14 0
BBX 14 14 0 -2
BITMAP
1000
0800
0800
0800
4CE0
3F10
0C10
0810
1810
1810
28F0
5918
08E0
0000
ENDCHAR
STARTCHAR a4ce
ENCODING 42190
SWIDTH 84 0
DWIDTH 14 0
BBX 14 14 0 -2
BITMAP
0000
0000
03C0
0D20
1110
1108
2208
2208
2408
2410
2810
1060
0180
0000
ENDCHAR
STARTCHAR a4cf
ENCODING 42191
SWIDTH 84 0
DWIDTH 14 0
BBX 14 14 0 -2
BITMAP
0040
2020
1020
1438
13E0
2020
2020
2020
2020
29E0
1230
1228
11C0
0000
ENDCHAR
STARTCHAR a4d0
ENCODING 42192
SWIDTH 84 0
DWIDTH 14 0
BBX 14 14 0 -2
BITMAP
0088
4044
2050
2878
27C0
4040
4040
4040
4040
53C0
2460
2450
2380
0000
ENDCHAR
STARTCHAR a4d1
ENCODING 42193
SWIDTH 84 0
DWIDTH 14 0
BBX 14 14 0 -2
BITMAP
0098
4064
2064
2878
27C0
4040
4040
4040
4040
53C0
2460
2450
2380
0000
ENDCHAR
STARTCHAR a4d2
ENCODING 42194
SWIDTH 84 0
DWIDTH 14 0
BBX 14 14 0 -2
BITMAP
0000
0040
0440
3C20
0820
0830
1028
1020
1020
1040
1040
0880
0700
0000
ENDCHAR
STARTCHAR a4d3
ENCODING 42195
SWIDTH 84 0
DWIDTH 14 0
BBX 14 14 0 -2
BITMAP
0008
0044
0450
3C28
0820
0830
1028
1020
1020
1040
1040
0880
0700
0000
ENDCHAR
STARTCHAR a4d4
ENCODING 42196
SWIDTH 84 0
DWIDTH 14 0
BBX 14 14 0 -2
BITMAP
0030
0048
0448
3C30
0820
0830
1028
1020
1020
1040
1040
0880
0700
0000
ENDCHAR
STARTCHAR a4d5
ENCODING 42197
SWIDTH 84 0
DWIDTH 14 0
BBX 14 14 0 -2
BITMAP
0000
0400
0380
0080
0100
0200
0200
0100
02B0
4C88
389C
2480
0300
0000
ENDCHAR
STARTCHAR a4d6
ENCODING 42198
SWIDTH 84 0
DWIDTH 14 0
BBX 14 14 0 -2
BITMAP
0000
0400
0388
00A4
0110
0200
0200
0100
02B0
4C88
389C
2480
0300
0000
ENDCHAR
STARTCHAR a4d7
ENCODING 42199
SWIDTH 84 0
DWIDTH 14 0
BBX 14 14 0 -2
BITMAP
0000
0400
0398
00A4
0124
0218
0200
0100
02B0
4C88
389C
2480
0300
0000
ENDCHAR
STARTCHAR a4d8
ENCODING 42200
SWIDTH 84 0
DWIDTH 14 0
BBX 14 14 0 -2
BITMAP
0000
0000
0000
0000
0600
0900
5080
2040
0030
000C
0000
0000
0000
0000
ENDCHAR
STARTCHAR a4d9
ENCODING 42201
SWIDTH 84 0
DWIDTH 14 0
BBX 14 14 0 -2
BITMAP
0000
0000
0010
0048
0620
0900
5080
2040
0030
000C
0000
0000
0000
0000
ENDCHAR
STARTCHAR a4da
ENCODING 42202
SWIDTH 84 0
DWIDTH 14 0
BBX 14 14 0 -2
BITMAP
0000
0030
0048
0048
0630
0900
5080
2040
0030
000C
0000
0000
0000
0000
ENDCHAR
STARTCHAR a4db
ENCODING 42203
SWIDTH 84 0
DWIDTH 14 0
BBX 14 14 0 -2
BITMAP
0000
2230
11C0
1040
1038
23E0
2020
2020
2020
29E0
1230
1228
11C0
0000
ENDCHAR
STARTCHAR a4dc
ENCODING 42204
SWIDTH 84 0
DWIDTH 14 0
BBX 14 14 0 -2
BITMAP
0000
4468
2384
2090
2078
47C0
4040
4040
4040
53C0
2460
2450
2380
0000
ENDCHAR
STARTCHAR a4dd
ENCODING 42205
SWIDTH 84 0
DWIDTH 14 0
BBX 14 14 0 -2
BITMAP
0018
4464
23A4
2098
2070
47C0
4040
4040
4040
53C0
2460
2450
2380
0000
ENDCHAR
STARTCHAR a4de
ENCODING 42206
SWIDTH 84 0
DWIDTH 14 0
BBX 14 14 0 -2
BITMAP
0100
0080
10F0
0F80
0080
10E0
0F80
0080
0080
0F80
10E0
1090
0F00
0000
ENDCHAR
STARTCHAR a4df
ENCODING 42207
SWIDTH 84 0
DWIDTH 14 0
BBX 14 14 0 -2
BITMAP
0000
0880
0780
0100
0100
0220
0210
0FF0
3418
4424
4820
3040
0080
0000
ENDCHAR
STARTCHAR a4e0
ENCODING 42208
SWIDTH 84 0
DWIDTH 14 0
BBX 14 14 0 -2
BITMAP
0800
0400
2700
1C30
0408
1C0C
2400
2400
2C20
1810
0810
0810
07E0
0000
ENDCHAR
STARTCHAR a4e1
ENCODING 42209
SWIDTH 84 0
DWIDTH 14 0
BBX 14 14 0 -2
BITMAP
0000
0100
0080
1080
13C0
1CA0
1110
2908
2A08
4608
4408
4A10
3060
0000
ENDCHAR
STARTCHAR a4e2
ENCODING 42210
SWIDTH 84 0
DWIDTH 14 0
BBX 14 14 0 -2
BITMAP
0200
0100
1100
0E00
0380
1200
2420
1C20
0710
0410
0410
0410
0220
01C0
ENDCHAR
STARTCHAR a4e3
ENCODING 42211
SWIDTH 84 0
DWIDTH 14 0
BBX 14 14 0 -2
BITMAP
0000
0000
0000
0000
0100
0880
09E0
0E10
3C10
0460
0200
0200
0100
0100
ENDCHAR
STARTCHAR a4e4
ENCODING 42212
SWIDTH 84 0
DWIDTH 14 0
BBX 14 14 0 -2
BITMAP
0100
0080
01C0
1800
10F0
0B08
4C08
3408
0270
0200
0100
0100
0080
0080
ENDCHAR
STARTCHAR a4e5
ENCODING 42213
SWIDTH 84 0
DWIDTH 14 0
BBX 14 14 0 -2
BITMAP
0000
0000
0000
0000
0200
0100
21E0
2710
2910
3110
2320
21C0
0100
0200
ENDCHAR
STARTCHAR a4e6
ENCODING 42214
SWIDTH 84 0
DWIDTH 14 0
BBX 14 14 0 -2
BITMAP
0000
0300
4080
21E0
2290
2488
2888
3088
3488
2290
21E0
0080
0100
0200
ENDCHAR
STARTCHAR a4e7
ENCODING 42215
SWIDTH 84 0
DWIDTH 14 0
BBX 14 14 0 -2
BITMAP
0000
0000
0000
0200
0100
0120
01C0
0100
0100
0100
0F00
11C0
1120
0E00
ENDCHAR
STARTCHAR a4e8
ENCODING 42216
SWIDTH 84 0
DWIDTH 14 0
BBX 14 14 0 -2
BITMAP
0200
0100
0100
0130
01C0
0100
0100
0100
0100
1F80
2160
2110
1E00
0000
ENDCHAR
STARTCHAR a4e9
ENCODING 42217
SWIDTH 84 0
DWIDTH 14 0
BBX 14 14 0 -2
BITMAP
0200
0100
01C0
0600
0800
0800
0800
09E0
0E10
0810
0810
0020
00C0
0300
ENDCHAR
STARTCHAR a4ea
ENCODING 42218
SWIDTH 84 0
DWIDTH 14 0
BBX 14 14 0 -2
BITMAP
1000
0980
0A40
0C20
0C20
0820
0820
0820
0820
0040
0040
0080
0100
0200
ENDCHAR
STARTCHAR a4eb
ENCODING 42219
SWIDTH 84 0
DWIDTH 14 0
BBX 14 14 0 -2
BITMAP
0000
08C0
0740
0080
0100
0200
07C0
0C20
1010
2010
0390
0460
0440
0380
ENDCHAR
STARTCHAR a4ec
ENCODING 42220
SWIDTH 84 0
DWIDTH 14 0
BBX 14 14 0 -2
BITMAP
0000
1000
0800
09C0
0A20
1C20
6C20
0820
1820
1820
2820
4824
1818
0800
ENDCHAR
STARTCHAR a4ed
ENCODING 42221
SWIDTH 84 0
DWIDTH 14 0
BBX 14 14 0 -2
BITMAP
0000
1180
0E80
0100
0200
0400
0FC0
0820
1010
2010
0010
0020
00C0
0700
ENDCHAR
STARTCHAR a4ee
ENCODING 42222
SWIDTH 84 0
DWIDTH 14 0
BBX 14 14 0 -2
BITMAP
0000
0000
0000
0000
0800
0400
0400
06E0
1D10
0610
0C10
0C10
1420
0440
ENDCHAR
STARTCHAR a4ef
ENCODING 42223
SWIDTH 84 0
DWIDTH 14 0
BBX 14 14 0 -2
BITMAP
1000
0800
0800
0800
4CE0
3F10
0C08
0808
1808
1808
2810
4820
18C0
0800
ENDCHAR
STARTCHAR a4f0
ENCODING 42224
SWIDTH 84 0
DWIDTH 14 0
BBX 14 14 0 -2
BITMAP
0000
0980
0680
0100
0100
03E0
0E10
1208
2408
2408
28C8
1930
10E0
0000
ENDCHAR
STARTCHAR a4f1
ENCODING 42225
SWIDTH 84 0
DWIDTH 14 0
BBX 14 14 0 -2
BITMAP
0000
0980
0700
0200
07C0
0820
1020
0620
09C0
0700
0800
1CE0
2310
4038
ENDCHAR
STARTCHAR a4f2
ENCODING 42226
SWIDTH 84 0
DWIDTH 14 0
BBX 14 14 0 -2
BITMAP
0400
0200
12C0
0F00
0400
0420
0F38
18C0
2180
0280
0480
0800
0800
07E0
ENDCHAR
STARTCHAR a4f3
ENCODING 42227
SWIDTH 84 0
DWIDTH 14 0
BBX 14 14 0 -2
BITMAP
0200
0100
0100
0200
0200
0400
0400
0F00
0880
1080
1088
2090
2060
0000
ENDCHAR
STARTCHAR a5a1
ENCODING 42401
SWIDTH 84 0
DWIDTH 14 0
BBX 14 14 0 -2
BITMAP
0000
0000
0000
0000
0000
0000
21E0
1E20
0240
0180
0100
0100
0200
0400
ENDCHAR
STARTCHAR a5a2
ENCODING 42402
SWIDTH 84 0
DWIDTH 14 0
BBX 14 14 0 -2
BITMAP
0000
0000
21F0
1E10
0020
0240
0180
0100
0100
0100
0200
0200
0400
0800
ENDCHAR
STARTCHAR a5a3
ENCODING 42403
SWIDTH 84 0
DWIDTH 14 0
BBX 14 14 0 -2
BITMAP
0000
0000
0000
0000
0020
0040
0080
0380
1C80
0080
0080
0080
0080
0080
ENDCHAR
STARTCHAR a5a4
ENCODING 42404
SWIDTH 84 0
DWIDTH 14 0
BBX 14 14 0 -2
BITMAP
0000
0020
0020
0040
0080
0300
0D00
3080
0080
0080
0080
0080
0080
0080
ENDCHAR
STARTCHAR a5a5
ENCODING 42405
SWIDTH 84 0
DWIDTH 14 0
BBX 14 14 0 -2
BITMAP
0000
0000
0000
0000
0200
0100
01E0
1E20
0820
0840
0040
0080
0100
0200
ENDCHAR
STARTCHAR a5a6
ENCODING 42406
SWIDTH 84 0
DWIDTH 14 0
BBX 14 14 0 -2
BITMAP
0000
0200
0100
0100
01F0
3E10
1010
1020
0820
0840
0040
0080
0100
0200
ENDCHAR
STARTCHAR a5a7
ENCODING 42407
SWIDTH 84 0
DWIDTH 14 0
BBX 14 14 0 -2
BITMAP
0000
0000
0000
0000
0000
0000
00E0
0F00
0100
0100
0100
01E0
1E10
0000
ENDCHAR
STARTCHAR a5a8
ENCODING 42408
SWIDTH 84 0
DWIDTH 14 0
BBX 14 14 0 -2
BITMAP
0000
0000
0000
0070
1F80
0200
0100
0100
0100
0100
03F0
3C08
0000
0000
ENDCHAR
STARTCHAR a5a9
ENCODING 42409
SWIDTH 84 0
DWIDTH 14 0
BBX 14 14 0 -2
BITMAP
0000
0000
0000
0000
0100
0080
10E0
0F80
0180
0280
0480
0880
1180
0080
ENDCHAR
STARTCHAR a5aa
ENCODING 42410
SWIDTH 84 0
DWIDTH 14 0
BBX 14 14 0 -2
BITMAP
0000
0080
0040
0040
2078
1FC0
00C0
0140
0240
0440
0840
1040
00C0
0040
ENDCHAR
STARTCHAR a5ab
ENCODING 42411
SWIDTH 84 0
DWIDTH 14 0
BBX 14 14 0 -2
BITMAP
0000
0200
0100
0100
21F0
1F10
0210
0210
0420
0420
0820
1140
20C0
0080
ENDCHAR
STARTCHAR a5ac
ENCODING 42412
SWIDTH 84 0
DWIDTH 14 0
BBX 14 14 0 -2
BITMAP
0008
0224
0114
0110
21F0
1F10
0210
0210
0420
0420
0820
1140
20C0
0080
ENDCHAR
STARTCHAR a5ad
ENCODING 42413
SWIDTH 84 0
DWIDTH 14 0
BBX 14 14 0 -2
BITMAP
0000
0400
0200
0270
0380
1D00
0100
0178
0380
3C80
0080
0040
0040
0040
ENDCHAR
STARTCHAR a5ae
ENCODING 42414
SWIDTH 84 0
DWIDTH 14 0
BBX 14 14 0 -2
BITMAP
0008
0424
0214
0270
0380
1D00
0100
0178
0380
3C80
0080
0040
0040
0040
ENDCHAR
STARTCHAR a5af
ENCODING 42415
SWIDTH 84 0
DWIDTH 14 0
BBX 14 14 0 -2
BITMAP
0000
0400
0270
0390
0220
0420
0440
0840
1080
0080
0100
0200
0400
0800
ENDCHAR
STARTCHAR a5b0
ENCODING 42416
SWIDTH 84 0
DWIDTH 14 0
BBX 14 14 0 -2
BITMAP
0008
0824
04D4
0750
0440
0840
0880
1080
2100
0100
0200
0400
0800
1000
ENDCHAR
STARTCHAR a5b1
ENCODING 42417
SWIDTH 84 0
DWIDTH 14 0
BBX 14 14 0 -2
BITMAP
0000
0800
0400
0400
0438
0FC0
0900
1080
2080
0080
0100
0100
0200
0400
ENDCHAR
STARTCHAR a5b2
ENCODING 42418
SWIDTH 84 0
DWIDTH 14 0
BBX 14 14 0 -2
BITMAP
0008
0824
0414
0410
0438
0FC0
0900
1080
2080
0080
0100
0100
0200
0400
ENDCHAR
STARTCHAR a5b3
ENCODING 42419
SWIDTH 84 0
DWIDTH 14 0
BBX 14 14 0 -2
BITMAP
0000
0000
0000
21F0
1E10
0010
0010
0010
0020
0020
03E0
1C20
0000
0000
ENDCHAR
STARTCHAR a5b4
ENCODING 42420
SWIDTH 84 0
DWIDTH 14 0
BBX 14 14 0 -2
BITMAP
0008
0024
0014
43D0
3C40
0040
0040
0040
0080
0080
0780
3880
0000
0000
ENDCHAR
STARTCHAR a5b5
ENCODING 42421
SWIDTH 84 0
DWIDTH 14 0
BBX 14 14 0 -2
BITMAP
0000
0080
0840
0440
0440
24F8
1F40
0440
0440
0440
0080
0080
0100
0200
ENDCHAR
STARTCHAR a5b6
ENCODING 42422
SWIDTH 84 0
DWIDTH 14 0
BBX 14 14 0 -2
BITMAP
0008
00A4
0854
0450
0440
24F8
1F40
0440
0440
0440
0080
0080
0100
0200
ENDCHAR
STARTCHAR a5b7
ENCODING 42423
SWIDTH 84 0
DWIDTH 14 0
BBX 14 14 0 -2
BITMAP
0000
0000
0C00
0200
0000
1800
0408
0010
0020
0040
0080
1300
0C00
0000
ENDCHAR
STARTCHAR a5b8
ENCODING 42424
SWIDTH 84 0
DWIDTH 14 0
BBX 14 14 0 -2
BITMAP
0000
0008
0C24
0214
0010
1800
0408
0010
0020
0040
0080
1300
0C00
0000
ENDCHAR
STARTCHAR a5b9
ENCODING 42425
SWIDTH 84 0
DWIDTH 14 0
BBX 14 14 0 -2
BITMAP
0000
0000
10E0
0F20
0040
0040
0080
0080
0140
0220
0C10
3010
0000
0000
ENDCHAR
STARTCHAR a5ba
ENCODING 42426
SWIDTH 84 0
DWIDTH 14 0
BBX 14 14 0 -2
BITMAP
0008
0024
21D4
1E50
0080
0080
0100
0100
0280
0440
1820
6020
0000
0000
ENDCHAR
STARTCHAR a5bb
ENCODING 42427
SWIDTH 84 0
DWIDTH 14 0
BBX 14 14 0 -2
BITMAP
0000
0800
0400
0400
0478
0588
2610
1C20
0440
0400
0400
0200
01F0
0000
ENDCHAR
STARTCHAR a5bc
ENCODING 42428
SWIDTH 84 0
DWIDTH 14 0
BBX 14 14 0 -2
BITMAP
0008
0824
0414
0410
0478
0588
2610
1C20
0440
0400
0400
0200
01F8
0000
ENDCHAR
STARTCHAR a5bd
ENCODING 42429
SWIDTH 84 0
DWIDTH 14 0
BBX 14 14 0 -2
BITMAP
0000
0020
1010
0810
0410
0420
0420
0040
0040
0080
0080
0100
0200
0400
ENDCHAR
STARTCHAR a5be
ENCODING 42430
SWIDTH 84 0
DWIDTH 14 0
BBX 14 14 0 -2
BITMAP
0008
00A4
2054
1050
0840
0840
0840
0080
0080
0100
0100
0200
0400
0800
ENDCHAR
STARTCHAR a5bf
ENCODING 42431
SWIDTH 84 0
DWIDTH 14 0
BBX 14 14 0 -2
BITMAP
0000
0200
0100
01F0
0210
0220
0520
08C0
1040
0080
0100
0200
0C00
3000
ENDCHAR
STARTCHAR a5c0
ENCODING 42432
SWIDTH 84 0
DWIDTH 14 0
BBX 14 14 0 -2
BITMAP
0008
0424
0214
03F0
0420
0420
0A40
1140
2080
0100
0200
0400
1800
6000
ENDCHAR
STARTCHAR a5c1
ENCODING 42433
SWIDTH 84 0
DWIDTH 14 0
BBX 14 14 0 -2
BITMAP
0000
0040
0180
1E00
0100
00F8
2380
1C80
0080
0080
0100
0100
0200
0400
ENDCHAR
STARTCHAR a5c2
ENCODING 42434
SWIDTH 84 0
DWIDTH 14 0
BBX 14 14 0 -2
BITMAP
0008
0064
0194
1E10
0100
00F8
2380
1C80
0080
0080
0100
0100
0200
0400
ENDCHAR
STARTCHAR a5c3
ENCODING 42435
SWIDTH 84 0
DWIDTH 14 0
BBX 14 14 0 -2
BITMAP
0000
0000
0000
0000
0000
0000
0440
1220
0A20
0840
0040
0080
0100
0200
ENDCHAR
STARTCHAR a5c4
ENCODING 42436
SWIDTH 84 0
DWIDTH 14 0
BBX 14 14 0 -2
BITMAP
0000
0000
0410
2208
1108
0910
0810
0020
0020
0040
0080
0100
0200
0000
ENDCHAR
STARTCHAR a5c5
ENCODING 42437
SWIDTH 84 0
DWIDTH 14 0
BBX 14 14 0 -2
BITMAP
0008
0024
1094
0850
4440
2440
1040
1080
0080
0100
0200
0400
0800
0000
ENDCHAR
STARTCHAR a5c6
ENCODING 42438
SWIDTH 84 0
DWIDTH 14 0
BBX 14 14 0 -2
BITMAP
0000
0000
11E0
0E00
0000
0078
2380
1C80
0080
0100
0100
0200
0400
0800
ENDCHAR
STARTCHAR a5c7
ENCODING 42439
SWIDTH 84 0
DWIDTH 14 0
BBX 14 14 0 -2
BITMAP
0008
0024
11D4
0E10
0000
20F0
1F00
0080
0080
0100
0100
0200
0400
0800
ENDCHAR
STARTCHAR a5c8
ENCODING 42440
SWIDTH 84 0
DWIDTH 14 0
BBX 14 14 0 -2
BITMAP
0000
0800
0400
0400
0400
0400
0700
04C0
0420
0400
0400
0400
0400
0400
ENDCHAR
STARTCHAR a5c9
ENCODING 42441
SWIDTH 84 0
DWIDTH 14 0
BBX 14 14 0 -2
BITMAP
0020
1090
0850
0840
0800
0800
0E00
0980
0840
0800
0800
0800
0800
0800
ENDCHAR
STARTCHAR a5ca
ENCODING 42442
SWIDTH 84 0
DWIDTH 14 0
BBX 14 14 0 -2
BITMAP
0000
0100
0080
0080
20F8
1F80
0080
0080
0080
0100
0100
0200
0400
0800
ENDCHAR
STARTCHAR a5cb
ENCODING 42443
SWIDTH 84 0
DWIDTH 14 0
BBX 14 14 0 -2
BITMAP
0000
0000
0000
00E0
1F00
0000
0000
0000
0000
01F0
3E08
0000
0000
0000
ENDCHAR
STARTCHAR a5cc
ENCODING 42444
SWIDTH 84 0
DWIDTH 14 0
BBX 14 14 0 -2
BITMAP
0000
0000
10F0
0F10
0020
0020
0E40
01C0
00C0
0120
0210
0C10
3000
0000
ENDCHAR
STARTCHAR a5cd
ENCODING 42445
SWIDTH 84 0
DWIDTH 14 0
BBX 14 14 0 -2
BITMAP
0000
0200
0100
01E0
1E20
0040
0080
0100
0340
0D30
3108
0100
0100
0100
ENDCHAR
STARTCHAR a5ce
ENCODING 42446
SWIDTH 84 0
DWIDTH 14 0
BBX 14 14 0 -2
BITMAP
0000
0040
0020
0020
0020
0040
0040
0080
0080
0100
0200
0400
0800
1000
ENDCHAR
STARTCHAR a5cf
ENCODING 42447
SWIDTH 84 0
DWIDTH 14 0
BBX 14 14 0 -2
BITMAP
0000
0000
0000
0000
0880
0440
0420
0810
0810
1008
2008
4008
0000
0000
ENDCHAR
STARTCHAR a5d0
ENCODING 42448
SWIDTH 84 0
DWIDTH 14 0
BBX 14 14 0 -2
BITMAP
0000
0008
0024
0014
0890
0440
0420
0810
0810
1008
2008
4008
0000
0000
ENDCHAR
STARTCHAR a5d1
ENCODING 42449
SWIDTH 84 0
DWIDTH 14 0
BBX 14 14 0 -2
BITMAP
0018
0024
0024
0018
0880
0440
0420
0810
0810
1008
2008
4008
0000
0000
ENDCHAR
STARTCHAR a5d2
ENCODING 42450
SWIDTH 84 0
DWIDTH 14 0
BBX 14 14 0 -2
BITMAP
0000
0000
1000
0800
0800
08E0
0F00
0800
0800
0800
0800
0400
03F0
0000
ENDCHAR
STARTCHAR a5d3
ENCODING 42451
SWIDTH 84 0
DWIDTH 14 0
BBX 14 14 0 -2
BITMAP
0000
0010
1048
0828
0820
0800
08E0
0F00
0800
0800
0800
0400
03F0
0000
ENDCHAR
STARTCHAR a5d4
ENCODING 42452
SWIDTH 84 0
DWIDTH 14 0
BBX 14 14 0 -2
BITMAP
0000
0030
1048
0848
0830
0800
08E0
0F00
0800
0800
0800
0400
03F0
0000
ENDCHAR
STARTCHAR a5d5
ENCODING 42453
SWIDTH 84 0
DWIDTH 14 0
BBX 14 14 0 -2
BITMAP
0000
0000
10F0
0F10
0010
0020
0020
0040
0040
0080
0100
0200
0400
0000
ENDCHAR
STARTCHAR a5d6
ENCODING 42454
SWIDTH 84 0
DWIDTH 14 0
BBX 14 14 0 -2
BITMAP
0008
0024
23D4
1C50
0040
0080
0080
0100
0100
0200
0400
0800
1000
0000
ENDCHAR
STARTCHAR a5d7
ENCODING 42455
SWIDTH 84 0
DWIDTH 14 0
BBX 14 14 0 -2
BITMAP
0018
0024
23E4
1C58
0040
0080
0080
0100
0100
0200
0400
0800
1000
0000
ENDCHAR
STARTCHAR a5d8
ENCODING 42456
SWIDTH 84 0
DWIDTH 14 0
BBX 14 14 0 -2
BITMAP
0000
0000
0000
0000
0200
0500
4880
3040
0030
000C
0000
0000
0000
0000
ENDCHAR
STARTCHAR a5d9
ENCODING 42457
SWIDTH 84 0
DWIDTH 14 0
BBX 14 14 0 -2
BITMAP
0000
0020
0090
0050
0240
0500
4880
3040
0030
000C
0000
0000
0000
0000
ENDCHAR
STARTCHAR a5da
ENCODING 42458
SWIDTH 84 0
DWIDTH 14 0
BBX 14 14 0 -2
BITMAP
0000
0060
0090
0090
0260
0500
4880
3040
0030
000C
0000
0000
0000
0000
ENDCHAR
STARTCHAR a5db
ENCODING 42459
SWIDTH 84 0
DWIDTH 14 0
BBX 14 14 0 -2
BITMAP
0000
0200
0100
0100
21F0
1F00
0100
0140
0920
0910
1110
2100
0300
0100
ENDCHAR
STARTCHAR a5dc
ENCODING 42460
SWIDTH 84 0
DWIDTH 14 0
BBX 14 14 0 -2
BITMAP
0008
0224
0114
0110
21F0
1F00
0100
0140
0920
0910
1110
2100
0300
0100
ENDCHAR
STARTCHAR a5dd
ENCODING 42461
SWIDTH 84 0
DWIDTH 14 0
BBX 14 14 0 -2
BITMAP
0018
0224
0124
0118
21F0
1F00
0100
0140
0920
0910
1110
2100
0300
0100
ENDCHAR
STARTCHAR a5de
ENCODING 42462
SWIDTH 84 0
DWIDTH 14 0
BBX 14 14 0 -2
BITMAP
0000
0000
0000
20F0
1F08
0010
0020
0040
0C80
0300
0080
0040
0000
0000
ENDCHAR
STARTCHAR a5df
ENCODING 42463
SWIDTH 84 0
DWIDTH 14 0
BBX 14 14 0 -2
BITMAP
0000
0400
0300
00C0
0020
0800
0600
0180
0040
1000
0C00
0300
00C0
0020
ENDCHAR
STARTCHAR a5e0
ENCODING 42464
SWIDTH 84 0
DWIDTH 14 0
BBX 14 14 0 -2
BITMAP
0000
0200
0100
0100
0100
0200
0200
0240
0420
0430
29C8
1E08
0000
0000
ENDCHAR
STARTCHAR a5e1
ENCODING 42465
SWIDTH 84 0
DWIDTH 14 0
BBX 14 14 0 -2
BITMAP
0000
0040
0020
0020
0020
0620
01C0
0040
00A0
0090
0100
0200
0C00
3000
ENDCHAR
STARTCHAR a5e2
ENCODING 42466
SWIDTH 84 0
DWIDTH 14 0
BBX 14 14 0 -2
BITMAP
0000
0000
10E0
0F00
0200
0200
23F8
1E00
0200
0200
0200
01F0
0000
0000
ENDCHAR
STARTCHAR a5e3
ENCODING 42467
SWIDTH 84 0
DWIDTH 14 0
BBX 14 14 0 -2
BITMAP
0000
0000
0000
0000
0000
0400
0270
0390
1E20
0140
0100
0080
0080
0080
ENDCHAR
STARTCHAR a5e4
ENCODING 42468
SWIDTH 84 0
DWIDTH 14 0
BBX 14 14 0 -2
BITMAP
0000
0800
0400
0478
0388
2610
1A20
0140
0100
0100
0080
0080
0080
0000
ENDCHAR
STARTCHAR a5e5
ENCODING 42469
SWIDTH 84 0
DWIDTH 14 0
BBX 14 14 0 -2
BITMAP
0000
0000
0000
0000
0000
0000
01C0
0E40
0040
0080
01E0
1E10
0000
0000
ENDCHAR
STARTCHAR a5e6
ENCODING 42470
SWIDTH 84 0
DWIDTH 14 0
BBX 14 14 0 -2
BITMAP
0000
0000
0000
0000
11C0
0E40
0040
0080
0080
01F0
3E08
0000
0000
0000
ENDCHAR
STARTCHAR a5e7
ENCODING 42471
SWIDTH 84 0
DWIDTH 14 0
BBX 14 14 0 -2
BITMAP
0000
0000
0000
0000
0000
01E0
0E20
0020
01E0
0E40
0040
01C0
0E20
0000
ENDCHAR
STARTCHAR a5e8
ENCODING 42472
SWIDTH 84 0
DWIDTH 14 0
BBX 14 14 0 -2
BITMAP
0000
0000
01F0
1E10
0010
0010
01E0
0E20
0020
0020
0020
01E0
0E10
0000
ENDCHAR
STARTCHAR a5e9
ENCODING 42473
SWIDTH 84 0
DWIDTH 14 0
BBX 14 14 0 -2
BITMAP
0000
0000
11C0
0E00
0070
2390
1C10
0010
0020
0020
0040
0080
0300
0C00
ENDCHAR
STARTCHAR a5ea
ENCODING 42474
SWIDTH 84 0
DWIDTH 14 0
BBX 14 14 0 -2
BITMAP
0000
0040
0820
0420
0420
0420
0420
0420
0420
0040
0040
0080
0100
0200
ENDCHAR
STARTCHAR a5eb
ENCODING 42475
SWIDTH 84 0
DWIDTH 14 0
BBX 14 14 0 -2
BITMAP
0000
0000
0100
0880
0480
0480
0488
0488
0490
0890
08A0
10C0
2080
0000
ENDCHAR
STARTCHAR a5ec
ENCODING 42476
SWIDTH 84 0
DWIDTH 14 0
BBX 14 14 0 -2
BITMAP
0000
1000
0800
0800
0800
0800
0800
0810
0820
0840
0880
0B00
0C00
0000
ENDCHAR
STARTCHAR a5ed
ENCODING 42477
SWIDTH 84 0
DWIDTH 14 0
BBX 14 14 0 -2
BITMAP
0000
0000
0000
21F0
1E10
1010
1010
0820
0820
09E0
0E10
0800
0000
0000
ENDCHAR
STARTCHAR a5ee
ENCODING 42478
SWIDTH 84 0
DWIDTH 14 0
BBX 14 14 0 -2
BITMAP
0000
0000
0000
0000
0000
0000
10F0
0F10
0820
0420
0440
0040
0080
0100
ENDCHAR
STARTCHAR a5ef
ENCODING 42479
SWIDTH 84 0
DWIDTH 14 0
BBX 14 14 0 -2
BITMAP
0000
0000
21F0
1E10
1010
0810
0820
0820
0040
0040
0080
0100
0200
0400
ENDCHAR
STARTCHAR a5f0
ENCODING 42480
SWIDTH 84 0
DWIDTH 14 0
BBX 14 14 0 -2
BITMAP
0000
0100
0080
0080
01F0
1E80
0880
0480
05F0
3E88
0080
0080
0080
0080
ENDCHAR
STARTCHAR a5f1
ENCODING 42481
SWIDTH 84 0
DWIDTH 14 0
BBX 14 14 0 -2
BITMAP
0000
0000
0000
01E0
1E20
0240
0180
0100
0100
01F0
3E08
0000
0000
0000
ENDCHAR
STARTCHAR a5f2
ENCODING 42482
SWIDTH 84 0
DWIDTH 14 0
BBX 14 14 0 -2
BITMAP
0000
0000
01F0
1E10
0010
0020
01E0
0E20
0040
0040
0080
0100
0600
1800
ENDCHAR
STARTCHAR a5f3
ENCODING 42483
SWIDTH 84 0
DWIDTH 14 0
BBX 14 14 0 -2
BITMAP
0000
0000
0000
1800
0408
0208
0010
0010
0020
0040
0080
1300
0C00
0000
ENDCHAR
STARTCHAR a5f4
ENCODING 42484
SWIDTH 84 0
DWIDTH 14 0
BBX 14 14 0 -2
BITMAP
0008
0424
0214
0210
43E0
3C20
2020
1040
1040
0080
0080
0100
0200
0400
ENDCHAR
STARTCHAR a5f5
ENCODING 42485
SWIDTH 84 0
DWIDTH 14 0
BBX 14 14 0 -2
BITMAP
0000
0000
0000
0000
0000
0200
0100
11E0
0E20
0220
0220
0420
08C0
1040
ENDCHAR
STARTCHAR a5f6
ENCODING 42486
SWIDTH 84 0
DWIDTH 14 0
BBX 14 14 0 -2
BITMAP
0000
0000
0000
0000
0000
0800
0400
0460
0780
0880
1080
0100
0200
0400
ENDCHAR
STARTCHAR a6a1
ENCODING 42657
SWIDTH 84 0
DWIDTH 14 0
BBX 14 14 0 -2
BITMAP
0000
0100
0100
0380
0380
04C0
04C0
0860
0FE0
1030
1030
7878
0000
0000
ENDCHAR
STARTCHAR a6a2
ENCODING 42658
SWIDTH 84 0
DWIDTH 14 0
BBX 14 14 0 -2
BITMAP
0000
3F80
0C60
0C30
0C30
0C60
0FC0
0C30
0C18
0C18
0C30
3FC0
0000
0000
ENDCHAR
STARTCHAR a6a3
ENCODING 42659
SWIDTH 84 0
DWIDTH 14 0
BBX 14 14 0 -2
BITMAP
0000
3FE0
0C60
0C10
0C00
0C00
0C00
0C00
0C00
0C00
0C00
3F00
0000
0000
ENDCHAR
STARTCHAR a6a4
ENCODING 42660
SWIDTH 84 0
DWIDTH 14 0
BBX 14 14 0 -2
BITMAP
0000
0100
0100
0380
0380
04C0
04C0
0860
0860
1030
1030
3FF8
0000
0000
ENDCHAR
STARTCHAR a6a5
ENCODING 42661
SWIDTH 84 0
DWIDTH 14 0
BBX 14 14 0 -2
BITMAP
0000
3FE0
0C20
0C10
0C00
0C40
0FC0
0C40
0C00
0C08
0C10
3FF0
0000
0000
ENDCHAR
STARTCHAR a6a6
ENCODING 42662
SWIDTH 84 0
DWIDTH 14 0
BBX 14 14 0 -2
BITMAP
0000
1FF0
1060
20C0
0180
0180
0300
0600
0600
0C08
1810
3FF0
0000
0000
ENDCHAR
STARTCHAR a6a7
ENCODING 42663
SWIDTH 84 0
DWIDTH 14 0
BBX 14 14 0 -2
BITMAP
0000
3C78
1830
1830
1830
1830
1FF0
1830
1830
1830
1830
3C78
0000
0000
ENDCHAR
STARTCHAR a6a8
ENCODING 42664
SWIDTH 84 0
DWIDTH 14 0
BBX 14 14 0 -2
BITMAP
0000
0380
0C60
1830
3018
3458
37D8
3458
3018
1830
0C60
0380
0000
0000
ENDCHAR
STARTCHAR a6a9
ENCODING 42665
SWIDTH 84 0
DWIDTH 14 0
BBX 14 14 0 -2
BITMAP
0000
0FC0
0300
0300
0300
0300
0300
0300
0300
0300
0300
0FC0
0000
0000
ENDCHAR
STARTCHAR a6aa
ENCODING 42666
SWIDTH 84 0
DWIDTH 14 0
BBX 14 14 0 -2
BITMAP
0000
3C78
1820
1840
1880
1980
1AC0
1CC0
1860
1860
1830
3C78
0000
0000
ENDCHAR
STARTCHAR a6ab
ENCODING 42667
SWIDTH 84 0
DWIDTH 14 0
BBX 14 14 0 -2
BITMAP
0000
0100
0100
0380
0380
04C0
04C0
0860
0860
1030
1030
3878
0000
0000
ENDCHAR
STARTCHAR a6ac
ENCODING 42668
SWIDTH 84 0
DWIDTH 14 0
BBX 14 14 0 -2
BITMAP
0000
3838
1830
1C70
1C70
16B0
16B0
1730
1330
1230
1030
3878
0000
0000
ENDCHAR
STARTCHAR a6ad
ENCODING 42669
SWIDTH 84 0
DWIDTH 14 0
BBX 14 14 0 -2
BITMAP
0000
3870
1820
1C20
1620
1620
1320
11A0
11A0
10E0
1060
3860
0000
0000
ENDCHAR
STARTCHAR a6ae
ENCODING 42670
SWIDTH 84 0
DWIDTH 14 0
BBX 14 14 0 -2
BITMAP
0000
1FF0
1FE0
2020
0000
1020
1FE0
1FE0
1020
0000
1010
1FE0
3FE0
0000
ENDCHAR
STARTCHAR a6af
ENCODING 42671
SWIDTH 84 0
DWIDTH 14 0
BBX 14 14 0 -2
BITMAP
0000
0380
0C60
1830
3018
3018
3018
3018
3018
1830
0C60
0380
0000
0000
ENDCHAR
STARTCHAR a6b0
ENCODING 42672
SWIDTH 84 0
DWIDTH 14 0
BBX 14 14 0 -2
BITMAP
0000
3FF8
1830
1830
1830
1830
1830
1830
1830
1830
1830
3C78
0000
0000
ENDCHAR
STARTCHAR a6b1
ENCODING 42673
SWIDTH 84 0
DWIDTH 14 0
BBX 14 14 0 -2
BITMAP
0000
3F80
0C60
0C30
0C30
0C60
0F80
0C00
0C00
0C00
0C00
3F00
0000
0000
ENDCHAR
STARTCHAR a6b2
ENCODING 42674
SWIDTH 84 0
DWIDTH 14 0
BBX 14 14 0 -2
BITMAP
0000
3FE0
1820
0C10
0600
0300
0180
0100
0200
0410
0820
3FE0
0000
0000
ENDCHAR
STARTCHAR a6b3
ENCODING 42675
SWIDTH 84 0
DWIDTH 14 0
BBX 14 14 0 -2
BITMAP
0000
3FF0
2310
4308
0300
0300
0300
0300
0300
0300
0300
0FC0
0000
0000
ENDCHAR
STARTCHAR a6b4
ENCODING 42676
SWIDTH 84 0
DWIDTH 14 0
BBX 14 14 0 -2
BITMAP
0000
0CC0
17A0
2310
2310
0300
0300
0300
0300
0300
0300
0FC0
0000
0000
ENDCHAR
STARTCHAR a6b5
ENCODING 42677
SWIDTH 84 0
DWIDTH 14 0
BBX 14 14 0 -2
BITMAP
0000
0FC0
0300
0780
1B60
3330
3330
3330
1B60
0780
0300
0FC0
0000
0000
ENDCHAR
STARTCHAR a6b6
ENCODING 42678
SWIDTH 84 0
DWIDTH 14 0
BBX 14 14 0 -2
BITMAP
0000
3C78
1820
0C40
0680
0300
0300
0380
04C0
0860
1030
3878
0000
0000
ENDCHAR
STARTCHAR a6b7
ENCODING 42679
SWIDTH 84 0
DWIDTH 14 0
BBX 14 14 0 -2
BITMAP
0000
0FC0
0300
6318
3330
3330
3330
1320
0FC0
0300
0300
0FC0
0000
0000
ENDCHAR
STARTCHAR a6b8
ENCODING 42680
SWIDTH 84 0
DWIDTH 14 0
BBX 14 14 0 -2
BITMAP
0000
0380
0C60
1830
3018
3018
3018
1830
0820
0440
2288
3EF8
0000
0000
ENDCHAR
STARTCHAR a6c1
ENCODING 42689
SWIDTH 84 0
DWIDTH 14 0
BBX 14 14 0 -2
BITMAP
0000
0000
0000
0020
0720
0CA0
1860
1060
1040
10C0
1940
0E30
0000
0000
ENDCHAR
STARTCHAR a6c2
ENCODING 42690
SWIDTH 84 0
DWIDTH 14 0
BBX 14 14 0 -2
BITMAP
0000
00E0
0110
0210
0210
0420
05C0
0420
0C20
0820
0C60
1BC0
1000
1000
ENDCHAR
STARTCHAR a6c3
ENCODING 42691
SWIDTH 84 0
DWIDTH 14 0
BBX 14 14 0 -2
BITMAP
0000
0000
0000
0000
0630
0940
0180
0100
0100
0300
0300
0300
0200
0000
ENDCHAR
STARTCHAR a6c4
ENCODING 42692
SWIDTH 84 0
DWIDTH 14 0
BBX 14 14 0 -2
BITMAP
0000
0380
04E0
0410
0200
0380
04C0
0C40
0840
08C0
0980
0700
0000
0000
ENDCHAR
STARTCHAR a6c5
ENCODING 42693
SWIDTH 84 0
DWIDTH 14 0
BBX 14 14 0 -2
BITMAP
0000
0000
0000
0000
0380
0640
0400
0380
0600
0C00
0C40
0780
0000
0000
ENDCHAR
STARTCHAR a6c6
ENCODING 42694
SWIDTH 84 0
DWIDTH 14 0
BBX 14 14 0 -2
BITMAP
0000
0400
0CE0
07C0
0200
0400
0400
0800
0800
0E00
0780
00C0
0640
0380
ENDCHAR
STARTCHAR a6c7
ENCODING 42695
SWIDTH 84 0
DWIDTH 14 0
BBX 14 14 0 -2
BITMAP
0000
0000
0000
0000
0CC0
1720
0220
0420
0420
0C40
0840
08C0
0080
0080
ENDCHAR
STARTCHAR a6c8
ENCODING 42696
SWIDTH 84 0
DWIDTH 14 0
BBX 14 14 0 -2
BITMAP
0000
00E0
0110
0210
0610
0430
0FF0
0C20
0860
0840
0880
0700
0000
0000
ENDCHAR
STARTCHAR a6c9
ENCODING 42697
SWIDTH 84 0
DWIDTH 14 0
BBX 14 14 0 -2
BITMAP
0000
0000
0000
0000
0100
0300
0200
0600
0400
0400
0680
0300
0000
0000
ENDCHAR
STARTCHAR a6ca
ENCODING 42698
SWIDTH 84 0
DWIDTH 14 0
BBX 14 14 0 -2
BITMAP
0000
0000
0000
0000
0470
04C0
0D00
0E00
0900
1900
11A0
10C0
0000
0000
ENDCHAR
STARTCHAR a6cb
ENCODING 42699
SWIDTH 84 0
DWIDTH 14 0
BBX 14 14 0 -2
BITMAP
0000
0380
00C0
0040
00C0
0140
0140
0240
0640
0440
0C60
0830
0000
0000
ENDCHAR
STARTCHAR a6cc
ENCODING 42700
SWIDTH 84 0
DWIDTH 14 0
BBX 14 14 0 -2
BITMAP
0000
0000
0000
0000
0420
0420
0460
0C40
0840
0840
0CE8
1B30
1000
1000
ENDCHAR
STARTCHAR a6cd
ENCODING 42701
SWIDTH 84 0
DWIDTH 14 0
BBX 14 14 0 -2
BITMAP
0000
0000
0000
0000
0820
0C20
0440
0440
0480
0700
0E00
0800
0000
0000
ENDCHAR
STARTCHAR a6ce
ENCODING 42702
SWIDTH 84 0
DWIDTH 14 0
BBX 14 14 0 -2
BITMAP
0300
0460
03E0
0200
0400
0400
03C0
04C0
0800
0800
0E00
0780
00C0
0780
ENDCHAR
STARTCHAR a6cf
ENCODING 42703
SWIDTH 84 0
DWIDTH 14 0
BBX 14 14 0 -2
BITMAP
0000
0000
0000
0000
00C0
0320
0610
0C30
0C30
0860
04C0
0300
0000
0000
ENDCHAR
STARTCHAR a6d0
ENCODING 42704
SWIDTH 84 0
DWIDTH 14 0
BBX 14 14 0 -2
BITMAP
0000
0000
0000
0C08
1FF0
2240
0440
0480
0880
0880
18C0
3060
0000
0000
ENDCHAR
STARTCHAR a6d1
ENCODING 42705
SWIDTH 84 0
DWIDTH 14 0
BBX 14 14 0 -2
BITMAP
0000
0000
0000
0000
01E0
0310
0610
0410
0C30
0C20
0C60
1B80
1000
1000
ENDCHAR
STARTCHAR a6d2
ENCODING 42706
SWIDTH 84 0
DWIDTH 14 0
BBX 14 14 0 -2
BITMAP
0000
0000
0000
0000
01F0
0780
0C40
1840
1040
10C0
1180
0F00
0000
0000
ENDCHAR
STARTCHAR a6d3
ENCODING 42707
SWIDTH 84 0
DWIDTH 14 0
BBX 14 14 0 -2
BITMAP
0000
0000
0000
0000
0630
0FE0
1100
0300
0200
0400
0680
0300
0000
0000
ENDCHAR
STARTCHAR a6d4
ENCODING 42708
SWIDTH 84 0
DWIDTH 14 0
BBX 14 14 0 -2
BITMAP
0000
0000
0000
0000
0440
0460
0C20
0C20
0860
0840
08C0
0780
0000
0000
ENDCHAR
STARTCHAR a6d5
ENCODING 42709
SWIDTH 84 0
DWIDTH 14 0
BBX 14 14 0 -2
BITMAP
0000
0080
0080
0080
0380
0DC0
1920
3130
3230
1260
0EC0
0700
0400
0400
ENDCHAR
STARTCHAR a6d6
ENCODING 42710
SWIDTH 84 0
DWIDTH 14 0
BBX 14 14 0 -2
BITMAP
0000
0610
0B30
0160
0140
0180
0100
0300
0700
0500
0900
1900
31A0
20C0
ENDCHAR
STARTCHAR a6d7
ENCODING 42711
SWIDTH 84 0
DWIDTH 14 0
BBX 14 14 0 -2
BITMAP
0000
0080
0080
0080
31A0
5930
0910
0910
1230
1260
12C0
0F00
0400
0400
ENDCHAR
STARTCHAR a6d8
ENCODING 42712
SWIDTH 84 0
DWIDTH 14 0
BBX 14 14 0 -2
BITMAP
0000
0000
0000
0000
0820
1010
3110
2310
2230
2220
3660
1980
0000
0000
ENDCHAR
STARTCHAR a7a1
ENCODING 42913
SWIDTH 84 0
DWIDTH 14 0
BBX 14 14 0 -2
BITMAP
0000
0100
0100
0380
0380
04C0
04C0
0860
0FE0
1030
1030
7878
0000
0000
ENDCHAR
STARTCHAR a7a2
ENCODING 42914
SWIDTH 84 0
DWIDTH 14 0
BBX 14 14 0 -2
BITMAP
0000
3FE0
0C20
0C10
0C00
0C00
0F80
0C60
0C30
0C30
0C30
0C60
3F80
0000
ENDCHAR
STARTCHAR a7a3
ENCODING 42915
SWIDTH 84 0
DWIDTH 14 0
BBX 14 14 0 -2
BITMAP
0000
3F80
0C60
0C30
0C30
0C60
0FC0
0C30
0C18
0C18
0C30
3FC0
0000
0000
ENDCHAR
STARTCHAR a7a4
ENCODING 42916
SWIDTH 84 0
DWIDTH 14 0
BBX 14 14 0 -2
BITMAP
0000
3FE0
0C60
0C10
0C00
0C00
0C00
0C00
0C00
0C00
0C00
3F00
0000
0000
ENDCHAR
STARTCHAR a7a5
ENCODING 42917
SWIDTH 84 0
DWIDTH 14 0
BBX 14 14 0 -2
BITMAP
0000
0FF0
0460
0460
0460
0460
0460
0460
0460
0860
0860
1FF8
3018
2008
ENDCHAR
STARTCHAR a7a6
ENCODING 42918
SWIDTH 84 0
DWIDTH 14 0
BBX 14 14 0 -2
BITMAP
0000
3FE0
0C20
0C10
0C00
0C40
0FC0
0C40
0C00
0C08
0C10
3FF0
0000
0000
ENDCHAR
STARTCHAR a7a7
ENCODING 42919
SWIDTH 84 0
DWIDTH 14 0
BBX 14 14 0 -2
BITMAP
0CC0
0CC0
3FE0
0C10
0C00
0C40
0FC0
0C40
0C00
0C08
0C10
3FF0
0000
0000
ENDCHAR
STARTCHAR a7a8
ENCODING 42920
SWIDTH 84 0
DWIDTH 14 0
BBX 14 14 0 -2
BITMAP
0000
6798
7338
1320
1320
1320
0FC0
0B40
1320
3330
2310
77B8
0000
0000
ENDCHAR
STARTCHAR a7a9
ENCODING 42921
SWIDTH 84 0
DWIDTH 14 0
BBX 14 14 0 -2
BITMAP
0000
0780
1C60
1030
0030
0060
03C0
0060
0030
1030
1C60
0780
0000
0000
ENDCHAR
STARTCHAR a7aa
ENCODING 42922
SWIDTH 84 0
DWIDTH 14 0
BBX 14 14 0 -2
BITMAP
0000
3C78
1830
1830
1870
18B0
1930
1A30
1C30
1830
1830
3C78
0000
0000
ENDCHAR
STARTCHAR a7ab
ENCODING 42923
SWIDTH 84 0
DWIDTH 14 0
BBX 14 14 0 -2
BITMAP
06C0
0380
3C78
1830
1870
18B0
1930
1A30
1C30
1830
1830
3C78
0000
0000
ENDCHAR
STARTCHAR a7ac
ENCODING 42924
SWIDTH 84 0
DWIDTH 14 0
BBX 14 14 0 -2
BITMAP
0000
3C38
1858
1880
1880
1900
1F00
1980
18C0
1860
1830
3C78
0000
0000
ENDCHAR
STARTCHAR a7ad
ENCODING 42925
SWIDTH 84 0
DWIDTH 14 0
BBX 14 14 0 -2
BITMAP
0000
07F8
0230
0230
0230
0230
0230
0230
0230
3430
3430
1878
0000
0000
ENDCHAR
STARTCHAR a7ae
ENCODING 42926
SWIDTH 84 0
DWIDTH 14 0
BBX 14 14 0 -2
BITMAP
0000
3870
1860
1860
1CE0
1CE0
1760
2630
2230
2230
2030
7078
0000
0000
ENDCHAR
STARTCHAR a7af
ENCODING 42927
SWIDTH 84 0
DWIDTH 14 0
BBX 14 14 0 -2
BITMAP
0000
3C78
1830
1830
1830
1830
1FF0
1830
1830
1830
1830
3C78
0000
0000
ENDCHAR
STARTCHAR a7b0
ENCODING 42928
SWIDTH 84 0
DWIDTH 14 0
BBX 14 14 0 -2
BITMAP
0000
0380
0C60
1830
3018
3018
3018
3018
3018
1830
0C60
0380
0000
0000
ENDCHAR
STARTCHAR a7b1
ENCODING 42929
SWIDTH 84 0
DWIDTH 14 0
BBX 14 14 0 -2
BITMAP
0000
3FF8
1830
1830
1830
1830
1830
1830
1830
1830
1830
3C78
0000
0000
ENDCHAR
STARTCHAR a7b2
ENCODING 42930
SWIDTH 84 0
DWIDTH 14 0
BBX 14 14 0 -2
BITMAP
0000
3F80
0C60
0C30
0C30
0C60
0F80
0C00
0C00
0C00
0C00
3F00
0000
0000
ENDCHAR
STARTCHAR a7b3
ENCODING 42931
SWIDTH 84 0
DWIDTH 14 0
BBX 14 14 0 -2
BITMAP
0000
03D0
0C30
1810
3010
3000
3000
3000
3000
1810
0C30
03C0
0000
0000
ENDCHAR
STARTCHAR a7b4
ENCODING 42932
SWIDTH 84 0
DWIDTH 14 0
BBX 14 14 0 -2
BITMAP
0000
3FF0
2310
4308
0300
0300
0300
0300
0300
0300
0300
0FC0
0000
0000
ENDCHAR
STARTCHAR a7b5
ENCODING 42933
SWIDTH 84 0
DWIDTH 14 0
BBX 14 14 0 -2
BITMAP
0000
3C78
1810
1810
0C20
0C20
0640
0640
0380
0380
0100
1900
1A00
0C00
ENDCHAR
STARTCHAR a7b6
ENCODING 42934
SWIDTH 84 0
DWIDTH 14 0
BBX 14 14 0 -2
BITMAP
0000
0FC0
0300
0780
1B60
3330
3330
3330
1B60
0780
0300
0FC0
0000
0000
ENDCHAR
STARTCHAR a7b7
ENCODING 42935
SWIDTH 84 0
DWIDTH 14 0
BBX 14 14 0 -2
BITMAP
0000
3C78
1820
0C40
0680
0300
0300
0380
04C0
0860
1030
3878
0000
0000
ENDCHAR
STARTCHAR a7b8
ENCODING 42936
SWIDTH 84 0
DWIDTH 14 0
BBX 14 14 0 -2
BITMAP
0000
3C78
1830
1830
1830
1830
1830
1830
1830
1830
1830
3FF8
0018
0008
ENDCHAR
STARTCHAR a7b9
ENCODING 42937
SWIDTH 84 0
DWIDTH 14 0
BBX 14 14 0 -2
BITMAP
0000
3CF0
1860
1860
1860
1860
1860
0FE0
0060
0060
0060
01F0
0000
0000
ENDCHAR
STARTCHAR a7ba
ENCODING 42938
SWIDTH 84 0
DWIDTH 14 0
BBX 14 14 0 -2
BITMAP
0000
77B8
3330
3330
3330
3330
3330
3330
3330
3330
3330
7FF8
0000
0000
ENDCHAR
STARTCHAR a7bb
ENCODING 42939
SWIDTH 84 0
DWIDTH 14 0
BBX 14 14 0 -2
BITMAP
0000
77B8
3330
3330
3330
3330
3330
3330
3330
3330
3330
7FF8
0018
0008
ENDCHAR
STARTCHAR a7bc
ENCODING 42940
SWIDTH 84 0
DWIDTH 14 0
BBX 14 14 0 -2
BITMAP
0000
3F00
2600
4600
0600
07E0
0630
0618
0618
0618
0630
1FC0
0000
0000
ENDCHAR
STARTCHAR a7bd
ENCODING 42941
SWIDTH 84 0
DWIDTH 14 0
BBX 14 14 0 -2
BITMAP
0000
3C78
1830
1830
1830
1E30
19B0
18F0
18F0
18F0
19B0
3E78
0000
0000
ENDCHAR
STARTCHAR a7be
ENCODING 42942
SWIDTH 84 0
DWIDTH 14 0
BBX 14 14 0 -2
BITMAP
0000
3F00
0C00
0C00
0C00
0F80
0C60
0C30
0C30
0C30
0C60
3F80
0000
0000
ENDCHAR
STARTCHAR a7bf
ENCODING 42943
SWIDTH 84 0
DWIDTH 14 0
BBX 14 14 0 -2
BITMAP
0000
0780
1C60
1030
0010
0618
0BB8
00D8
0010
1030
1C60
0780
0000
0000
ENDCHAR
STARTCHAR a7c0
ENCODING 42944
SWIDTH 84 0
DWIDTH 14 0
BBX 14 14 0 -2
BITMAP
0000
78C0
3330
3210
3618
3618
3E18
3618
3618
3210
3330
78C0
0000
0000
ENDCHAR
STARTCHAR a7c1
ENCODING 42945
SWIDTH 84 0
DWIDTH 14 0
BBX 14 14 0 -2
BITMAP
0000
03F8
0C30
1830
1830
1830
0C30
07F0
0330
0630
0C30
3078
0000
0000
ENDCHAR
STARTCHAR a7d1
ENCODING 42961
SWIDTH 84 0
DWIDTH 14 0
BBX 14 14 0 -2
BITMAP
0000
0000
0000
0000
0780
0C40
0C60
03E0
0C60
1860
18E0
0F30
0000
0000
ENDCHAR
STARTCHAR a7d2
ENCODING 42962
SWIDTH 84 0
DWIDTH 14 0
BBX 14 14 0 -2
BITMAP
0010
00E0
03C0
0400
0580
0E60
0C30
0C30
0C30
0C30
0660
0180
0000
0000
ENDCHAR
STARTCHAR a7d3
ENCODING 42963
SWIDTH 84 0
DWIDTH 14 0
BBX 14 14 0 -2
BITMAP
0000
0000
0000
0000
1FC0
0C60
0C60
0FC0
0C20
0C30
0C30
1FE0
0000
0000
ENDCHAR
STARTCHAR a7d4
ENCODING 42964
SWIDTH 84 0
DWIDTH 14 0
BBX 14 14 0 -2
BITMAP
0000
0000
0000
0000
1FE0
0C20
0C10
0C00
0C00
0C00
0C00
1F00
0000
0000
ENDCHAR
STARTCHAR a7d5
ENCODING 42965
SWIDTH 84 0
DWIDTH 14 0
BBX 14 14 0 -2
BITMAP
0000
0000
0000
0000
0FF0
0460
0460
0460
0460
0460
0860
3FE0
2010
0000
ENDCHAR
STARTCHAR a7d6
ENCODING 42966
SWIDTH 84 0
DWIDTH 14 0
BBX 14 14 0 -2
BITMAP
0000
0000
0000
0000
07C0
0820
1830
1FF0
1800
1810
0C30
03C0
0000
0000
ENDCHAR
STARTCHAR a7d7
ENCODING 42967
SWIDTH 84 0
DWIDTH 14 0
BBX 14 14 0 -2
BITMAP
0000
0660
0660
0000
07C0
0820
1830
1FF0
1800
1810
0C30
03C0
0000
0000
ENDCHAR
STARTCHAR a7d8
ENCODING 42968
SWIDTH 84 0
DWIDTH 14 0
BBX 14 14 0 -2
BITMAP
0000
0000
0000
0000
6798
7338
0B40
0FC0
0B40
1320
3330
6798
0000
0000
ENDCHAR
STARTCHAR a7d9
ENCODING 42969
SWIDTH 84 0
DWIDTH 14 0
BBX 14 14 0 -2
BITMAP
0000
0000
0000
0000
0780
1860
1060
03C0
0060
1060
1860
0780
0000
0000
ENDCHAR
STARTCHAR a7da
ENCODING 42970
SWIDTH 84 0
DWIDTH 14 0
BBX 14 14 0 -2
BITMAP
0000
0000
0000
0000
3CF0
1860
18E0
1960
1A60
1C60
1860
3CF0
0000
0000
ENDCHAR
STARTCHAR a7db
ENCODING 42971
SWIDTH 84 0
DWIDTH 14 0
BBX 14 14 0 -2
BITMAP
0000
06C0
0380
0000
3CF0
1860
18E0
1960
1A60
1C60
1860
3CF0
0000
0000
ENDCHAR
STARTCHAR a7dc
ENCODING 42972
SWIDTH 84 0
DWIDTH 14 0
BBX 14 14 0 -2
BITMAP
0000
0000
0000
0000
3C60
18E0
1900
1F00
1980
18C0
1860
3C70
0000
0000
ENDCHAR
STARTCHAR a7dd
ENCODING 42973
SWIDTH 84 0
DWIDTH 14 0
BBX 14 14 0 -2
BITMAP
0000
0000
0000
0000
07F0
0260
0260
0260
0260
3460
3460
18F0
0000
0000
ENDCHAR
STARTCHAR a7de
ENCODING 42974
SWIDTH 84 0
DWIDTH 14 0
BBX 14 14 0 -2
BITMAP
0000
0000
0000
0000
3838
1C70
1C70
16B0
16B0
1330
1330
3878
0000
0000
ENDCHAR
STARTCHAR a7df
ENCODING 42975
SWIDTH 84 0
DWIDTH 14 0
BBX 14 14 0 -2
BITMAP
0000
0000
0000
0000
3CF0
1860
1860
1FE0
1860
1860
1860
3CF0
0000
0000
ENDCHAR
STARTCHAR a7e0
ENCODING 42976
SWIDTH 84 0
DWIDTH 14 0
BBX 14 14 0 -2
BITMAP
0000
0000
0000
0000
0380
0C60
1830
1830
1830
1830
0C60
0380
0000
0000
ENDCHAR
STARTCHAR a7e1
ENCODING 42977
SWIDTH 84 0
DWIDTH 14 0
BBX 14 14 0 -2
BITMAP
0000
0000
0000
0000
3FF0
1860
1860
1860
1860
1860
1860
3CF0
0000
0000
ENDCHAR
STARTCHAR a7e2
ENCODING 42978
SWIDTH 84 0
DWIDTH 14 0
BBX 14 14 0 -2
BITMAP
0000
0000
0000
0000
1DC0
0E60
0C30
0C30
0C30
0C30
0E60
0DC0
0C00
1E00
ENDCHAR
STARTCHAR a7e3
ENCODING 42979
SWIDTH 84 0
DWIDTH 14 0
BBX 14 14 0 -2
BITMAP
0000
0000
0000
0000
0380
0C60
1820
1800
1800
1820
0C60
0380
0000
0000
ENDCHAR
STARTCHAR a7e4
ENCODING 42980
SWIDTH 84 0
DWIDTH 14 0
BBX 14 14 0 -2
BITMAP
0000
0000
0000
0000
1FE0
1320
2310
0300
0300
0300
0300
0780
0000
0000
ENDCHAR
STARTCHAR a7e5
ENCODING 42981
SWIDTH 84 0
DWIDTH 14 0
BBX 14 14 0 -2
BITMAP
0000
0000
0000
0000
1F70
0C20
0620
0640
0340
0380
0180
1900
1900
0E00
ENDCHAR
STARTCHAR a7e6
ENCODING 42982
SWIDTH 84 0
DWIDTH 14 0
BBX 14 14 0 -2
BITMAP
0000
0100
0300
0300
1B60
37B0
6318
6318
6318
6318
37B0
1B60
0300
0780
ENDCHAR
STARTCHAR a7e7
ENCODING 42983
SWIDTH 84 0
DWIDTH 14 0
BBX 14 14 0 -2
BITMAP
0000
0000
0000
0000
1E70
0C20
0640
0380
0380
04C0
0860
1CF0
0000
0000
ENDCHAR
STARTCHAR a7e8
ENCODING 42984
SWIDTH 84 0
DWIDTH 14 0
BBX 14 14 0 -2
BITMAP
0000
0000
0000
0000
3CF0
1860
1860
1860
1860
1860
1860
1FF0
0030
0010
ENDCHAR
STARTCHAR a7e9
ENCODING 42985
SWIDTH 84 0
DWIDTH 14 0
BBX 14 14 0 -2
BITMAP
0000
0000
0000
0000
3CF0
1860
1860
1860
0FE0
0060
0060
00F0
0000
0000
ENDCHAR
STARTCHAR a7ea
ENCODING 42986
SWIDTH 84 0
DWIDTH 14 0
BBX 14 14 0 -2
BITMAP
0000
0000
0000
0000
7778
3330
3330
3330
3330
3330
3330
7FF8
0000
0000
ENDCHAR
STARTCHAR a7eb
ENCODING 42987
SWIDTH 84 0
DWIDTH 14 0
BBX 14 14 0 -2
BITMAP
0000
0000
0000
0000
7778
3330
3330
3330
3330
3330
3330
7FF8
0018
0008
ENDCHAR
STARTCHAR a7ec
ENCODING 42988
SWIDTH 84 0
DWIDTH 14 0
BBX 14 14 0 -2
BITMAP
0000
0000
0000
0000
3F00
2600
4600
07E0
0630
0630
0630
0FE0
0000
0000
ENDCHAR
STARTCHAR a7ed
ENCODING 42989
SWIDTH 84 0
DWIDTH 14 0
BBX 14 14 0 -2
BITMAP
0000
0000
0000
0000
3C78
1830
1830
1F30
19B0
19B0
19B0
3F78
0000
0000
ENDCHAR
STARTCHAR a7ee
ENCODING 42990
SWIDTH 84 0
DWIDTH 14 0
BBX 14 14 0 -2
BITMAP
0000
0000
0000
0000
1E00
0C00
0C00
0FE0
0C30
0C30
0C30
1FE0
0000
0000
ENDCHAR
STARTCHAR a7ef
ENCODING 42991
SWIDTH 84 0
DWIDTH 14 0
BBX 14 14 0 -2
BITMAP
0000
0000
0000
0000
0780
1860
1030
0370
05B0
1030
1860
0780
0000
0000
ENDCHAR
STARTCHAR a7f0
ENCODING 42992
SWIDTH 84 0
DWIDTH 14 0
BBX 14 14 0 -2
BITMAP
0000
0000
0000
0000
3CE0
1910
1B18
1F18
1B18
1B18
1910
3CE0
0000
0000
ENDCHAR
STARTCHAR a7f1
ENCODING 42993
SWIDTH 84 0
DWIDTH 14 0
BBX 14 14 0 -2
BITMAP
0000
0000
0000
0000
07F0
0860
1860
1860
0FE0
0660
0C60
10F0
0000
0000
ENDCHAR
STARTCHAR a8a1
ENCODING 43169
SWIDTH 84 0
DWIDTH 14 0
BBX 14 14 0 -2
BITMAP
0000
0000
0000
0000
0000
0000
0000
FFFC
0000
0000
0000
0000
0000
0000
ENDCHAR
STARTCHAR a8a2
ENCODING 43170
SWIDTH 84 0
DWIDTH 14 0
BBX 14 14 0 -2
BITMAP
0100
0100
0100
0100
0100
0100
0100
0100
0100
0100
0100
0100
0100
0100
ENDCHAR
STARTCHAR a8a3
ENCODING 43171
SWIDTH 84 0
DWIDTH 14 0
BBX 14 14 0 -2
BITMAP
0000
0000
0000
0000
0000
0000
0000
01FC
0100
0100
0100
0100
0100
0100
ENDCHAR
STARTCHAR a8a4
ENCODING 43172
SWIDTH 84 0
DWIDTH 14 0
BBX 14 14 0 -2
BITMAP
0000
0000
0000
0000
0000
0000
0000
FF00
0100
0100
0100
0100
0100
0100
ENDCHAR
STARTCHAR a8a5
ENCODING 43173
SWIDTH 84 0
DWIDTH 14 0
BBX 14 14 0 -2
BITMAP
0100
0100
0100
0100
0100
0100
0100
FF00
0000
0000
0000
0000
0000
0000
ENDCHAR
STARTCHAR a8a6
ENCODING 43174
SWIDTH 84 0
DWIDTH 14 0
BBX 14 14 0 -2
BITMAP
0100
0100
0100
0100
0100
0100
0100
01FC
0000
0000
0000
0000
0000
0000
ENDCHAR
STARTCHAR a8a7
ENCODING 43175
SWIDTH 84 0
DWIDTH 14 0
BBX 14 14 0 -2
BITMAP
0100
0100
0100
0100
0100
0100
0100
01FC
0100
0100
0100
0100
0100
0100
ENDCHAR
STARTCHAR a8a8
ENCODING 43176
SWIDTH 84 0
DWIDTH 14 0
BBX 14 14 0 -2
BITMAP
0000
0000
0000
0000
0000
0000
0000
FFFC
0100
0100
0100
0100
0100
0100
ENDCHAR
STARTCHAR a8a9
ENCODING 43177
SWIDTH 84 0
DWIDTH 14 0
BBX 14 14 0 -2
BITMAP
0100
0100
0100
0100
0100
0100
0100
FF00
0100
0100
0100
0100
0100
0100
ENDCHAR
STARTCHAR a8aa
ENCODING 43178
SWIDTH 84 0
DWIDTH 14 0
BBX 14 14 0 -2
BITMAP
0100
0100
0100
0100
0100
0100
0100
FFFC
0000
0000
0000
0000
0000
0000
ENDCHAR
STARTCHAR a8ab
ENCODING 43179
SWIDTH 84 0
DWIDTH 14 0
BBX 14 14 0 -2
BITMAP
0100
0100
0100
0100
0100
0100
0100
FFFC
0100
0100
0100
0100
0100
0100
ENDCHAR
STARTCHAR a8ac
ENCODING 43180
SWIDTH 84 0
DWIDTH 14 0
BBX 14 14 0 -2
BITMAP
0000
0000
0000
0000
0000
0000
FFFC
FFFC
0000
0000
0000
0000
0000
0000
ENDCHAR
STARTCHAR a8ad
ENCODING 43181
SWIDTH 84 0
DWIDTH 14 0
BBX 14 14 0 -2
BITMAP
0300
0300
0300
0300
0300
0300
0300
0300
0300
0300
0300
0300
0300
0300
ENDCHAR
STARTCHAR a8ae
ENCODING 43182
SWIDTH 84 0
DWIDTH 14 0
BBX 14 14 0 -2
BITMAP
0000
0000
0000
0000
0000
0000
03FC
03FC
0300
0300
0300
0300
0300
0300
ENDCHAR
STARTCHAR a8af
ENCODING 43183
SWIDTH 84 0
DWIDTH 14 0
BBX 14 14 0 -2
BITMAP
0000
0000
0000
0000
0000
0000
FF00
FF00
0300
0300
0300
0300
0300
0300
ENDCHAR
STARTCHAR a8b0
ENCODING 43184
SWIDTH 84 0
DWIDTH 14 0
BBX 14 14 0 -2
BITMAP
0300
0300
0300
0300
0300
0300
FF00
FF00
0000
0000
0000
0000
0000
0000
ENDCHAR
STARTCHAR a8b1
ENCODING 43185
SWIDTH 84 0
DWIDTH 14 0
BBX 14 14 0 -2
BITMAP
0300
0300
0300
0300
0300
0300
03FC
03FC
0000
0000
0000
0000
0000
0000
ENDCHAR
STARTCHAR a8b2
ENCODING 43186
SWIDTH 84 0
DWIDTH 14 0
BBX 14 14 0 -2
BITMAP
0300
0300
0300
0300
0300
0300
03FC
03FC
0300
0300
0300
0300
0300
0300
ENDCHAR
STARTCHAR a8b3
ENCODING 43187
SWIDTH 84 0
DWIDTH 14 0
BBX 14 14 0 -2
BITMAP
0000
0000
0000
0000
0000
0000
FFFC
FFFC
0300
0300
0300
0300
0300
0300
ENDCHAR
STARTCHAR a8b4
ENCODING 43188
SWIDTH 84 0
DWIDTH 14 0
BBX 14 14 0 -2
BITMAP
0300
0300
0300
0300
0300
0300
FF00
FF00
0300
0300
0300
0300
0300
0300
ENDCHAR
STARTCHAR a8b5
ENCODING 43189
SWIDTH 84 0
DWIDTH 14 0
BBX 14 14 0 -2
BITMAP
0300
0300
0300
0300
0300
0300
FFFC
FFFC
0000
0000
0000
0000
0000
0000
ENDCHAR
STARTCHAR a8b6
ENCODING 43190
SWIDTH 84 0
DWIDTH 14 0
BBX 14 14 0 -2
BITMAP
0300
0300
0300
0300
0300
0300
FFFC
FFFC
0300
0300
0300
0300
0300
0300
ENDCHAR
STARTCHAR a8b7
ENCODING 43191
SWIDTH 84 0
DWIDTH 14 0
BBX 14 14 0 -2
BITMAP
0300
0300
0300
0300
0300
0300
0300
03FC
0300
0300
0300
0300
0300
0300
ENDCHAR
STARTCHAR a8b8
ENCODING 43192
SWIDTH 84 0
DWIDTH 14 0
BBX 14 14 0 -2
BITMAP
0000
0000
0000
0000
0000
0000
FFFC
FFFC
0100
0100
0100
0100
0100
0100
ENDCHAR
STARTCHAR a8b9
ENCODING 43193
SWIDTH 84 0
DWIDTH 14 0
BBX 14 14 0 -2
BITMAP
0300
0300
0300
0300
0300
0300
0300
FF00
0300
0300
0300
0300
0300
0300
ENDCHAR
STARTCHAR a8ba
ENCODING 43194
SWIDTH 84 0
DWIDTH 14 0
BBX 14 14 0 -2
BITMAP
0100
0100
0100
0100
0100
0100
FFFC
FFFC
0000
0000
0000
0000
0000
0000
ENDCHAR
STARTCHAR a8bb
ENCODING 43195
SWIDTH 84 0
DWIDTH 14 0
BBX 14 14 0 -2
BITMAP
0100
0100
0100
0100
0100
0100
FFFC
FFFC
0100
0100
0100
0100
0100
0100
ENDCHAR
STARTCHAR a8bc
ENCODING 43196
SWIDTH 84 0
DWIDTH 14 0
BBX 14 14 0 -2
BITMAP
0100
0100
0100
0100
0100
0100
01FC
01FC
0100
0100
0100
0100
0100
0100
ENDCHAR
STARTCHAR a8bd
ENCODING 43197
SWIDTH 84 0
DWIDTH 14 0
BBX 14 14 0 -2
BITMAP
0000
0000
0000
0000
0000
0000
0000
FFFC
0300
0300
0300
0300
0300
0300
ENDCHAR
STARTCHAR a8be
ENCODING 43198
SWIDTH 84 0
DWIDTH 14 0
BBX 14 14 0 -2
BITMAP
0100
0100
0100
0100
0100
0100
FF00
FF00
0100
0100
0100
0100
0100
0100
ENDCHAR
STARTCHAR a8bf
ENCODING 43199
SWIDTH 84 0
DWIDTH 14 0
BBX 14 14 0 -2
BITMAP
0300
0300
0300
0300
0300
0300
0300
FFFC
0000
0000
0000
0000
0000
0000
ENDCHAR
STARTCHAR a8c0
ENCODING 43200
SWIDTH 84 0
DWIDTH 14 0
BBX 14 14 0 -2
BITMAP
0300
0300
0300
0300
0300
0300
0300
FFFC
0300
0300
0300
0300
0300
0300
ENDCHAR
STARTCHAR b0a1
ENCODING 45217
SWIDTH 84 0
DWIDTH 14 0
BBX 14 14 0 -2
BITMAP
0000
7FF8
0480
0480
3FF0
2490
2490
2490
3FF0
2490
0480
0480
7FF8
0000
ENDCHAR
STARTCHAR b0a2
ENCODING 45218
SWIDTH 84 0
DWIDTH 14 0
BBX 14 14 0 -2
BITMAP
0000
07FC
78A0
48A0
4BF8
4AA8
4AA8
4AA8
4BF8
7AA8
48A0
40A0
0FFC
0000
ENDCHAR
STARTCHAR b0a3
ENCODING 45219
SWIDTH 84 0
DWIDTH 14 0
BBX 14 14 0 -2
BITMAP
0820
0820
0820
08F8
7E20
1220
13FC
1220
3C20
24F8
0620
0A20
11FC
2000
ENDCHAR
STARTCHAR b0a4
ENCODING 45220
SWIDTH 84 0
DWIDTH 14 0
BBX 14 14 0 -2
BITMAP
0000
3FFC
2408
2808
31E8
2928
2528
2528
25E8
2528
3808
2008
2008
2018
ENDCHAR
STARTCHAR b0a5
ENCODING 45221
SWIDTH 84 0
DWIDTH 14 0
BBX 14 14 0 -2
BITMAP
0100
0100
7FFC
0000
0FE0
0820
0820
0FE8
0308
0C90
74A0
0440
0730
380C
ENDCHAR
STARTCHAR b0a6
ENCODING 45222
SWIDTH 84 0
DWIDTH 14 0
BBX 14 14 0 -2
BITMAP
0030
3FD0
1210
0920
3FFC
2588
5450
13C8
2208
07E0
3A40
0180
06E0
781C
ENDCHAR
STARTCHAR b0a7
ENCODING 45223
SWIDTH 84 0
DWIDTH 14 0
BBX 14 14 0 -2
BITMAP
1080
10A0
1090
7938
17C8
1100
11F8
1A40
7440
17FC
1040
10A0
1310
3C0C
ENDCHAR
STARTCHAR b0a8
ENCODING 45224
SWIDTH 84 0
DWIDTH 14 0
BBX 14 14 0 -2
BITMAP
0820
0820
0820
0850
7E50
1288
13FC
1200
32F8
2C88
0488
0A88
10F8
6088
ENDCHAR
STARTCHAR b0a9
ENCODING 45225
SWIDTH 84 0
DWIDTH 14 0
BBX 14 14 0 -2
BITMAP
0080
21F8
1690
1060
01F0
0E4C
73F8
1040
13F8
1040
17FC
1840
2640
41FC
ENDCHAR
STARTCHAR b0aa
ENCODING 45226
SWIDTH 84 0
DWIDTH 14 0
BBX 14 14 0 -2
BITMAP
0440
7FFC
0440
0720
1128
0AC8
0450
1FF0
610C
1FF0
0100
0280
0C60
3018
ENDCHAR
STARTCHAR b0ab
ENCODING 45227
SWIDTH 84 0
DWIDTH 14 0
BBX 14 14 0 -2
BITMAP
0440
0440
7FFC
0440
7FFC
0480
3FF8
2488
2498
2878
3008
2008
3FF8
2008
ENDCHAR
STARTCHAR b0ac
ENCODING 45228
SWIDTH 84 0
DWIDTH 14 0
BBX 14 14 0 -2
BITMAP
0440
19F0
7620
11F0
1150
7DF0
11F0
1BF8
3648
37F8
5248
13FC
1244
103C
ENDCHAR
STARTCHAR b0ad
ENCODING 45229
SWIDTH 84 0
DWIDTH 14 0
BBX 14 14 0 -2
BITMAP
0000
3FF8
0280
1FF0
1290
1FF0
0280
7FFC
0100
1490
1488
2424
4424
03E0
ENDCHAR
STARTCHAR b0ae
ENCODING 45230
SWIDTH 84 0
DWIDTH 14 0
BBX 14 14 0 -2
BITMAP
1000
13F8
1208
7FF8
1200
13F8
1260
1A90
73E8
1440
17F8
1840
17FC
3000
ENDCHAR
STARTCHAR b0af
ENCODING 45231
SWIDTH 84 0
DWIDTH 14 0
BBX 14 14 0 -2
BITMAP
1000
0BF8
0A08
43F8
2200
23FC
0250
0298
13E4
1240
25F8
2440
4FFC
4000
ENDCHAR
STARTCHAR b0b0
ENCODING 45232
SWIDTH 84 0
DWIDTH 14 0
BBX 14 14 0 -2
BITMAP
0800
08F8
0888
0888
7E88
0AF8
0A88
0A88
0A88
0AF8
1288
1204
2204
41FC
ENDCHAR
STARTCHAR b0b1
ENCODING 45233
SWIDTH 84 0
DWIDTH 14 0
BBX 14 14 0 -2
BITMAP
0440
7FFC
0540
0FE0
0220
7FFC
0FE0
0820
0FE0
0FF0
0840
7FFC
0040
0040
ENDCHAR
STARTCHAR b0b2
ENCODING 45234
SWIDTH 84 0
DWIDTH 14 0
BBX 14 14 0 -2
BITMAP
0440
0440
7FFC
0440
3FF8
0000
1FF0
1010
1010
1FF0
1010
1000
2000
4000
ENDCHAR
STARTCHAR b0b3
ENCODING 45235
SWIDTH 84 0
DWIDTH 14 0
BBX 14 14 0 -2
BITMAP
0820
0830
1E48
25F4
7E20
2BFC
3E50
2A98
3F64
0410
3A64
2E08
2830
41C0
ENDCHAR
STARTCHAR b0b4
ENCODING 45236
SWIDTH 84 0
DWIDTH 14 0
BBX 14 14 0 -2
BITMAP
0820
0820
09FC
7E88
0848
1C50
1BFC
1A20
2820
29FC
4820
0820
0820
0820
ENDCHAR
STARTCHAR b0b5
ENCODING 45237
SWIDTH 84 0
DWIDTH 14 0
BBX 14 14 0 -2
BITMAP
0000
1FFC
1080
1080
1080
1080
17F8
1080
1080
1080
2080
2080
4FFC
0000
ENDCHAR
STARTCHAR b0b6
ENCODING 45238
SWIDTH 84 0
DWIDTH 14 0
BBX 14 14 0 -2
BITMAP
0820
0820
7F50
0888
3F54
2230
3E90
2250
3E50
081C
7FF0
0810
0810
0810
ENDCHAR
STARTCHAR b0b7
ENCODING 45239
SWIDTH 84 0
DWIDTH 14 0
BBX 14 14 0 -2
BITMAP
1000
13F0
1110
7D20
1120
11F8
1188
1D88
7250
1250
1220
1450
1588
3E04
ENDCHAR
STARTCHAR b0b8
ENCODING 45240
SWIDTH 84 0
DWIDTH 14 0
BBX 14 14 0 -2
BITMAP
0100
0100
3FFC
2808
4800
0EF8
1288
1288
2A88
44B0
0480
0884
1084
607C
ENDCHAR
STARTCHAR b0b9
ENCODING 45241
SWIDTH 84 0
DWIDTH 14 0
BBX 14 14 0 -2
BITMAP
0800
08F8
0888
0888
7E88
12F8
1288
1288
3CF8
2488
0688
0888
13FC
6000
ENDCHAR
STARTCHAR b0ba
ENCODING 45242
SWIDTH 84 0
DWIDTH 14 0
BBX 14 14 0 -2
BITMAP
0820
0820
0820
3E20
2BFC
2A80
2A80
3E80
2880
0C80
0A80
0F80
7180
0078
ENDCHAR
STARTCHAR b0bb
ENCODING 45243
SWIDTH 84 0
DWIDTH 14 0
BBX 14 14 0 -2
BITMAP
0820
0C20
1220
2A50
4848
3E9C
23E4
3E00
22F8
3E88
2488
2688
3AF8
6088
ENDCHAR
STARTCHAR b0bc
ENCODING 45244
SWIDTH 84 0
DWIDTH 14 0
BBX 14 14 0 -2
BITMAP
1100
1100
1500
65F8
1A08
13E8
2928
7DE8
1528
19E8
3528
3408
5008
1030
ENDCHAR
STARTCHAR b0bd
ENCODING 45245
SWIDTH 84 0
DWIDTH 14 0
BBX 14 14 0 -2
BITMAP
1040
1040
17F8
6440
1FFC
10A0
2924
7E9C
14F0
3990
36A0
3440
51B0
160C
ENDCHAR
STARTCHAR b0be
ENCODING 45246
SWIDTH 84 0
DWIDTH 14 0
BBX 14 14 0 -2
BITMAP
0820
0820
1E20
243C
7E20
2A20
3E20
2AF8
3E88
0488
3A88
2E88
28F8
4088
ENDCHAR
STARTCHAR b0bf
ENCODING 45247
SWIDTH 84 0
DWIDTH 14 0
BBX 14 14 0 -2
BITMAP
0090
0088
0088
7FFC
0080
1E88
1288
1248
1E50
1030
0324
0C54
718C
0604
ENDCHAR
STARTCHAR b0c0
ENCODING 45248
SWIDTH 84 0
DWIDTH 14 0
BBX 14 14 0 -2
BITMAP
0000
7FFC
0280
1FF0
1290
1290
1FF0
0920
0540
7FFC
0380
0D60
711C
0100
ENDCHAR
STARTCHAR b0c1
ENCODING 45249
SWIDTH 84 0
DWIDTH 14 0
BBX 14 14 0 -2
BITMAP
1040
1040
10A0
7CA0
0910
0BF8
1204
3C00
55F0
1310
1110
1110
11F0
1110
ENDCHAR
STARTCHAR b0c2
ENCODING 45250
SWIDTH 84 0
DWIDTH 14 0
BBX 14 14 0 -2
BITMAP
0100
0100
3FFC
2208
4200
0200
7FFC
0440
0440
0F40
08C0
0120
0610
3808
ENDCHAR
STARTCHAR b0c3
ENCODING 45251
SWIDTH 84 0
DWIDTH 14 0
BBX 14 14 0 -2
BITMAP
0080
0080
1FFC
1100
1FFC
12A0
1490
1FFC
1490
17F0
2490
27F0
4484
007C
ENDCHAR
STARTCHAR b0c4
ENCODING 45252
SWIDTH 84 0
DWIDTH 14 0
BBX 14 14 0 -2
BITMAP
1040
1040
13FC
7E08
1440
1040
17FC
1890
7090
1190
1160
1030
10C8
3704
ENDCHAR
STARTCHAR b0c5
ENCODING 45253
SWIDTH 84 0
DWIDTH 14 0
BBX 14 14 0 -2
BITMAP
0040
0040
7BF8
4910
48A0
4FFC
7800
49F0
4910
49F0
7910
4910
41F0
0110
ENDCHAR
STARTCHAR b0c6
ENCODING 45254
SWIDTH 84 0
DWIDTH 14 0
BBX 14 14 0 -2
BITMAP
0100
0100
3FFC
2208
7FF8
0440
0F80
0360
1D10
7FFC
0380
0D60
711C
0100
ENDCHAR
STARTCHAR b0c7
ENCODING 45255
SWIDTH 84 0
DWIDTH 14 0
BBX 14 14 0 -2
BITMAP
0000
3EF8
2288
3EF8
3EF8
2108
2FE8
2288
3FF8
27C8
2448
27C8
27C8
2458
ENDCHAR
STARTCHAR b0c8
ENCODING 45256
SWIDTH 84 0
DWIDTH 14 0
BBX 14 14 0 -2
BITMAP
1420
1420
7FFC
1488
1D20
0820
3FFC
2A48
3E48
08F0
7E90
0828
0844
0984
ENDCHAR
STARTCHAR b0c9
ENCODING 45257
SWIDTH 84 0
DWIDTH 14 0
BBX 14 14 0 -2
BITMAP
0100
0100
7FFC
0380
0540
1930
610C
0100
1FF0
1010
1010
1010
1FF0
1010
ENDCHAR
STARTCHAR b0ca
ENCODING 45258
SWIDTH 84 0
DWIDTH 14 0
BBX 14 14 0 -2
BITMAP
1010
1010
1210
1110
1090
1090
1010
1010
1010
1030
1628
1848
6184
0604
ENDCHAR
STARTCHAR b0cb
ENCODING 45259
SWIDTH 84 0
DWIDTH 14 0
BBX 14 14 0 -2
BITMAP
0800
0BF8
0848
1048
17FC
3048
5048
13F8
1048
1040
1080
1080
1100
1200
ENDCHAR
STARTCHAR b0cc
ENCODING 45260
SWIDTH 84 0
DWIDTH 14 0
BBX 14 14 0 -2
BITMAP
0880
0880
0880
1080
1FFC
3010
5210
1110
1110
1120
1120
1040
1FFC
1000
ENDCHAR
STARTCHAR b0cd
ENCODING 45261
SWIDTH 84 0
DWIDTH 14 0
BBX 14 14 0 -2
BITMAP
0840
0840
0840
17FC
1080
30C8
5148
1350
1520
1120
1110
1150
1188
1604
ENDCHAR
STARTCHAR b0ce
ENCODING 45262
SWIDTH 84 0
DWIDTH 14 0
BBX 14 14 0 -2
BITMAP
0840
0BF0
0890
17FC
1000
33F0
5210
13F0
1020
13F8
1220
1FFC
1020
1020
ENDCHAR
STARTCHAR b0cf
ENCODING 45263
SWIDTH 84 0
DWIDTH 14 0
BBX 14 14 0 -2
BITMAP
0000
3FF8
2008
2248
2248
2FE8
2248
2248
3FF8
2248
2448
2848
3FF8
2008
ENDCHAR
STARTCHAR b0d0
ENCODING 45264
SWIDTH 84 0
DWIDTH 14 0
BBX 14 14 0 -2
BITMAP
0100
0100
7FFC
0100
3FF0
0110
3FF0
2100
3FFC
2304
0284
0458
1830
600C
ENDCHAR
STARTCHAR b0d1
ENCODING 45265
SWIDTH 84 0
DWIDTH 14 0
BBX 14 14 0 -2
BITMAP
0030
1FC0
0100
7FFC
0380
0D60
711C
0200
7FFC
0440
0F40
10C0
0330
3C08
ENDCHAR
STARTCHAR b0d2
ENCODING 45266
SWIDTH 84 0
DWIDTH 14 0
BBX 14 14 0 -2
BITMAP
0050
0048
1FFC
1040
1FC8
1248
1FC8
14D0
14B0
1F30
1124
22D4
2C8C
4004
ENDCHAR
STARTCHAR b0d3
ENCODING 45267
SWIDTH 84 0
DWIDTH 14 0
BBX 14 14 0 -2
BITMAP
0008
3F08
2108
3F08
20FC
3E08
2048
3F28
2428
2E08
2D08
3508
4408
0C18
ENDCHAR
STARTCHAR b0d4
ENCODING 45268
SWIDTH 84 0
DWIDTH 14 0
BBX 14 14 0 -2
BITMAP
1090
1090
1120
19FC
3720
3520
31F8
5120
1120
11F8
1120
1120
11FC
1100
ENDCHAR
STARTCHAR b0d5
ENCODING 45269
SWIDTH 84 0
DWIDTH 14 0
BBX 14 14 0 -2
BITMAP
0100
3FF8
0440
7FFC
0000
0FE0
0820
0FE0
0820
0FE0
2508
2484
4424
03E0
ENDCHAR
STARTCHAR b0d6
ENCODING 45270
SWIDTH 84 0
DWIDTH 14 0
BBX 14 14 0 -2
BITMAP
0010
3F10
2110
3FFC
2E90
2050
3F50
5610
2510
4D30
0488
24A4
2424
43E0
ENDCHAR
STARTCHAR b0d7
ENCODING 45271
SWIDTH 84 0
DWIDTH 14 0
BBX 14 14 0 -2
BITMAP
0000
0FE0
0820
0FE0
0820
0FE0
0200
07F8
1928
6248
0C88
3108
0610
00E0
ENDCHAR
STARTCHAR b0d8
ENCODING 45272
SWIDTH 84 0
DWIDTH 14 0
BBX 14 14 0 -2
BITMAP
0820
0820
09FC
7E60
0850
1C88
1BFC
1A08
29E8
2928
49E8
0928
0808
0818
ENDCHAR
STARTCHAR b0d9
ENCODING 45273
SWIDTH 84 0
DWIDTH 14 0
BBX 14 14 0 -2
BITMAP
1100
0900
0900
3FE0
0220
0240
07F0
0410
0FFC
0804
1544
32A4
4AA4
0818
ENDCHAR
STARTCHAR b0da
ENCODING 45274
SWIDTH 84 0
DWIDTH 14 0
BBX 14 14 0 -2
BITMAP
0000
1FF0
1110
1FF0
1110
1FF0
0000
7FFC
0910
0890
08A0
0B40
0C30
700C
ENDCHAR
STARTCHAR b0db
ENCODING 45275
SWIDTH 84 0
DWIDTH 14 0
BBX 14 14 0 -2
BITMAP
0000
1FF0
1110
1FF0
1110
1FF0
0440
3FF8
0440
0440
7FFC
0240
0C30
3008
ENDCHAR
STARTCHAR b0dc
ENCODING 45276
SWIDTH 84 0
DWIDTH 14 0
BBX 14 14 0 -2
BITMAP
0240
0C78
3888
0950
0820
7E40
09A0
1C3C
1A44
2AA8
4918
0810
0860
0B80
ENDCHAR
STARTCHAR b0dd
ENCODING 45277
SWIDTH 84 0
DWIDTH 14 0
BBX 14 14 0 -2
BITMAP
0848
0848
0A90
72FC
1590
0890
14F8
7E90
0A90
2CF8
2A90
2A90
48FC
0880
ENDCHAR
STARTCHAR b0de
ENCODING 45278
SWIDTH 84 0
DWIDTH 14 0
BBX 14 14 0 -2
BITMAP
0820
09F8
0A48
73FC
1400
0CF8
1288
7EF8
0810
2CF8
2A90
2BFC
4810
0810
ENDCHAR
STARTCHAR b0df
ENCODING 45279
SWIDTH 84 0
DWIDTH 14 0
BBX 14 14 0 -2
BITMAP
0000
3FF8
2108
3FF8
2108
3FF8
0000
1FF0
1010
1FF0
1010
1FF0
1010
1030
ENDCHAR
STARTCHAR b0e0
ENCODING 45280
SWIDTH 84 0
DWIDTH 14 0
BBX 14 14 0 -2
BITMAP
0440
7FFC
0460
1FC0
0100
7FFC
0540
1930
620C
3FF8
0440
0F80
0360
3C10
ENDCHAR
STARTCHAR b0e1
ENCODING 45281
SWIDTH 84 0
DWIDTH 14 0
BBX 14 14 0 -2
BITMAP
0100
0100
0100
7FFC
0100
0308
0488
1C90
6460
0440
0420
0590
0608
3804
ENDCHAR
STARTCHAR b0e2
ENCODING 45282
SWIDTH 84 0
DWIDTH 14 0
BBX 14 14 0 -2
BITMAP
0000
3DFC
0124
7FFC
0124
3DFC
0000
3CF8
0088
3CF8
2488
24F8
3C88
2498
ENDCHAR
STARTCHAR b0e3
ENCODING 45283
SWIDTH 84 0
DWIDTH 14 0
BBX 14 14 0 -2
BITMAP
0040
23F0
1090
17FC
01F0
0110
71F0
1020
11F8
1120
17FC
1820
2620
41FC
ENDCHAR
STARTCHAR b0e4
ENCODING 45284
SWIDTH 84 0
DWIDTH 14 0
BBX 14 14 0 -2
BITMAP
0040
21F0
1150
11F0
07FC
01F0
7110
11F0
11F0
1110
11F0
1B10
2608
41FC
ENDCHAR
STARTCHAR b0e5
ENCODING 45285
SWIDTH 84 0
DWIDTH 14 0
BBX 14 14 0 -2
BITMAP
0000
3FF8
2200
2200
27F0
2480
2880
3FF8
2140
2120
2210
2C10
3FFC
2000
ENDCHAR
STARTCHAR b0e6
ENCODING 45286
SWIDTH 84 0
DWIDTH 14 0
BBX 14 14 0 -2
BITMAP
0440
0440
0440
0440
3FF8
0440
0440
0440
7FFC
0440
0840
0840
1040
2040
ENDCHAR
STARTCHAR b0e7
ENCODING 45287
SWIDTH 84 0
DWIDTH 14 0
BBX 14 14 0 -2
BITMAP
0100
0100
7FFC
0100
0240
1A40
0490
0320
0240
0CC0
1120
0610
1808
6008
ENDCHAR
STARTCHAR b0e8
ENCODING 45288
SWIDTH 84 0
DWIDTH 14 0
BBX 14 14 0 -2
BITMAP
0040
1050
1048
17FC
1040
7FC8
12C8
12A8
13A8
1630
1894
6334
0C4C
0084
ENDCHAR
STARTCHAR b0e9
ENCODING 45289
SWIDTH 84 0
DWIDTH 14 0
BBX 14 14 0 -2
BITMAP
0100
0100
7FFC
0220
0470
3F88
0FE0
0820
0FE0
0820
0FE0
0820
0820
0860
ENDCHAR
STARTCHAR b0ea
ENCODING 45290
SWIDTH 84 0
DWIDTH 14 0
BBX 14 14 0 -2
BITMAP
0400
0478
7FC8
0850
0850
1F60
1150
3F48
5144
1F44
1164
1158
1140
1340
ENDCHAR
STARTCHAR b0eb
ENCODING 45291
SWIDTH 84 0
DWIDTH 14 0
BBX 14 14 0 -2
BITMAP
0150
7D50
1268
16D8
1150
3AE8
2FFC
6850
2BFC
2B28
3AA8
2A94
042C
08C4
ENDCHAR
STARTCHAR b0ec
ENCODING 45292
SWIDTH 84 0
DWIDTH 14 0
BBX 14 14 0 -2
BITMAP
0000
0000
0000
0000
0000
0000
7FFC
0000
0000
0000
0000
0000
0000
0000
ENDCHAR
STARTCHAR b0ed
ENCODING 45293
SWIDTH 84 0
DWIDTH 14 0
BBX 14 14 0 -2
BITMAP
0100
0100
7FFC
0100
1FF0
0000
3FFC
2408
4460
0780
0400
0408
0408
03F8
ENDCHAR
STARTCHAR b0ee
ENCODING 45294
SWIDTH 84 0
DWIDTH 14 0
BBX 14 14 0 -2
BITMAP
2410
1210
1220
4FFC
2220
2220
0410
1FF8
1554
1550
2550
2550
5FFC
4000
ENDCHAR
STARTCHAR b0ef
ENCODING 45295
SWIDTH 84 0
DWIDTH 14 0
BBX 14 14 0 -2
BITMAP
0080
20F0
1120
1240
07F8
0248
7248
13F8
12C8
10C0
1144
1A3C
2600
41FC
ENDCHAR
STARTCHAR b0f0
ENCODING 45296
SWIDTH 84 0
DWIDTH 14 0
BBX 14 14 0 -2
BITMAP
0218
0FE4
3A44
0928
0930
7E00
1978
1D48
2B48
2B78
4948
0948
0978
0948
ENDCHAR
STARTCHAR b0f1
ENCODING 45297
SWIDTH 84 0
DWIDTH 14 0
BBX 14 14 0 -2
BITMAP
0440
0440
7FFC
0440
0540
2100
11FC
1148
0250
0440
18A0
6110
0608
1804
ENDCHAR
STARTCHAR b0f2
ENCODING 45298
SWIDTH 84 0
DWIDTH 14 0
BBX 14 14 0 -2
BITMAP
0440
0440
7FFC
0440
0000
1FF0
0100
0100
7FFC
0100
0100
0100
0100
0300
ENDCHAR
STARTCHAR b0f3
ENCODING 45299
SWIDTH 84 0
DWIDTH 14 0
BBX 14 14 0 -2
BITMAP
0800
09F8
1E48
2448
7FF8
2B20
3FF8
2A48
3F68
04D8
3AD8
2F68
2848
41B0
ENDCHAR
STARTCHAR b0f4
ENCODING 45300
SWIDTH 84 0
DWIDTH 14 0
BBX 14 14 0 -2
BITMAP
0200
0240
0430
0868
7F84
0480
0480
0480
0880
0880
1080
1084
2084
407C
ENDCHAR
STARTCHAR b0f5
ENCODING 45301
SWIDTH 84 0
DWIDTH 14 0
BBX 14 14 0 -2
BITMAP
0100
0600
38F8
2088
2088
3E88
2088
2088
2088
3E88
20F0
2080
0080
0080
ENDCHAR
STARTCHAR b0f6
ENCODING 45302
SWIDTH 84 0
DWIDTH 14 0
BBX 14 14 0 -2
BITMAP
0000
03F8
7A48
4A48
4A48
4BF8
4A48
4A48
4AA8
7A98
4B18
4208
03F8
0208
ENDCHAR
STARTCHAR b0f7
ENCODING 45303
SWIDTH 84 0
DWIDTH 14 0
BBX 14 14 0 -2
BITMAP
0000
0FE0
0820
0FE0
0000
1FF0
1010
1FF0
1010
1FF0
1010
1FF0
0660
3818
ENDCHAR
STARTCHAR b0f8
ENCODING 45304
SWIDTH 84 0
DWIDTH 14 0
BBX 14 14 0 -2
BITMAP
0000
3FF8
2108
2108
2108
3FF8
2108
2308
2288
2448
2828
2008
3FF8
2008
ENDCHAR
STARTCHAR b0f9
ENCODING 45305
SWIDTH 84 0
DWIDTH 14 0
BBX 14 14 0 -2
BITMAP
1000
11F8
1148
1148
7D48
25F8
2548
2548
7968
4998
0D98
1508
21F8
4108
ENDCHAR
STARTCHAR b0fa
ENCODING 45306
SWIDTH 84 0
DWIDTH 14 0
BBX 14 14 0 -2
BITMAP
0010
7F10
0110
0110
3F10
2110
2010
3F10
2110
0110
0110
0110
0210
1C10
ENDCHAR
STARTCHAR b0fb
ENCODING 45307
SWIDTH 84 0
DWIDTH 14 0
BBX 14 14 0 -2
BITMAP
0840
0840
1440
1A40
29FC
7EA8
2330
3E20
2220
3E60
2850
2490
3B08
6204
ENDCHAR
STARTCHAR b0fc
ENCODING 45308
SWIDTH 84 0
DWIDTH 14 0
BBX 14 14 0 -2
BITMAP
100C
0874
0F84
4488
2250
2238
03C0
1040
1040
13F8
2040
2040
4FFC
4000
ENDCHAR
STARTCHAR b0fd
ENCODING 45309
SWIDTH 84 0
DWIDTH 14 0
BBX 14 14 0 -2
BITMAP
1110
1150
1E50
1290
1150
1FF0
1030
17D0
1450
17D0
1450
27D4
2454
44CC
ENDCHAR
STARTCHAR b0fe
ENCODING 45310
SWIDTH 84 0
DWIDTH 14 0
BBX 14 14 0 -2
BITMAP
0440
7FFC
0440
3CA0
27F0
2C0C
31F0
2820
25F8
2400
27FC
38A0
2130
23C8
ENDCHAR
STARTCHAR b1a1
ENCODING 45473
SWIDTH 84 0
DWIDTH 14 0
BBX 14 14 0 -2
BITMAP
0040
3C40
27FC
2A08
3000
2BF8
2400
27FC
24A0
24A0
3920
2124
2224
241C
ENDCHAR
STARTCHAR b1a2
ENCODING 45474
SWIDTH 84 0
DWIDTH 14 0
BBX 14 14 0 -2
BITMAP
0040
3C40
24A0
2910
32E8
2804
25F0
2420
25F0
2400
3FFC
20A0
2130
27C8
ENDCHAR
STARTCHAR b1a3
ENCODING 45475
SWIDTH 84 0
DWIDTH 14 0
BBX 14 14 0 -2
BITMAP
0018
3FE4
2644
2928
31F8
2808
25F8
2408
25F8
2440
3AA8
22A4
2494
2070
ENDCHAR
STARTCHAR b1a4
ENCODING 45476
SWIDTH 84 0
DWIDTH 14 0
BBX 14 14 0 -2
BITMAP
0800
08F8
7F88
22F8
1400
7FF8
0088
3CF8
2488
3CF8
2488
24F8
3CC8
2704
ENDCHAR
STARTCHAR b1a5
ENCODING 45477
SWIDTH 84 0
DWIDTH 14 0
BBX 14 14 0 -2
BITMAP
0010
0010
7810
4810
4FFC
4810
4910
4890
4890
7810
4810
4010
0010
0030
ENDCHAR
STARTCHAR b1a6
ENCODING 45478
SWIDTH 84 0
DWIDTH 14 0
BBX 14 14 0 -2
BITMAP
0200
0200
0200
7FFC
0400
0400
0800
0FF0
1810
1810
2810
4810
0FF0
0810
ENDCHAR
STARTCHAR b1a7
ENCODING 45479
SWIDTH 84 0
DWIDTH 14 0
BBX 14 14 0 -2
BITMAP
0100
0100
3FFC
2008
4000
1FF0
0100
0100
7FFC
0100
0100
0100
0100
0300
ENDCHAR
STARTCHAR b1a8
ENCODING 45480
SWIDTH 84 0
DWIDTH 14 0
BBX 14 14 0 -2
BITMAP
0100
0200
0FE0
0820
0820
0FE0
0800
0FFC
0800
0FF8
2948
24A8
2408
4030
ENDCHAR
STARTCHAR b1a9
ENCODING 45481
SWIDTH 84 0
DWIDTH 14 0
BBX 14 14 0 -2
BITMAP
0000
7FF8
0208
0208
2288
1248
1248
0208
0618
1A68
6388
0208
0208
0618
ENDCHAR
STARTCHAR b1aa
ENCODING 45482
SWIDTH 84 0
DWIDTH 14 0
BBX 14 14 0 -2
BITMAP
0000
23F8
1040
1040
0040
07FC
7040
1040
1040
1040
1040
18C0
2600
41FC
ENDCHAR
STARTCHAR b1ab
ENCODING 45483
SWIDTH 84 0
DWIDTH 14 0
BBX 14 14 0 -2
BITMAP
0000
7FFC
0100
0100
3FF8
2948
2528
2528
2108
2948
2528
2528
2108
2118
ENDCHAR
STARTCHAR b1ac
ENCODING 45484
SWIDTH 84 0
DWIDTH 14 0
BBX 14 14 0 -2
BITMAP
0200
0C00
30F8
2288
2288
2288
2288
2288
2288
3E88
64F0
0480
0880
1080
ENDCHAR
STARTCHAR b1ad
ENCODING 45485
SWIDTH 84 0
DWIDTH 14 0
BBX 14 14 0 -2
BITMAP
2420
1440
18F8
7E88
0AF8
3E88
28F8
3EFC
3A80
1AFC
2E54
49AC
0944
0A18
ENDCHAR
STARTCHAR b1ae
ENCODING 45486
SWIDTH 84 0
DWIDTH 14 0
BBX 14 14 0 -2
BITMAP
0100
3FFC
2488
4878
19F0
0910
3FF0
0910
7FF0
0910
15F0
14A4
2124
461C
ENDCHAR
STARTCHAR b1af
ENCODING 45487
SWIDTH 84 0
DWIDTH 14 0
BBX 14 14 0 -2
BITMAP
0000
1FE0
0220
0220
0220
0220
3FF8
0420
0420
0420
0420
0420
7FFC
0000
ENDCHAR
STARTCHAR b1b0
ENCODING 45488
SWIDTH 84 0
DWIDTH 14 0
BBX 14 14 0 -2
BITMAP
0090
7E90
10A0
11FC
1120
3F20
25F8
6520
2520
25F8
3D20
2520
21FC
0100
ENDCHAR
STARTCHAR b1b1
ENCODING 45489
SWIDTH 84 0
DWIDTH 14 0
BBX 14 14 0 -2
BITMAP
0100
0600
38F8
2008
2008
2008
2008
3EF8
2008
2008
2008
2008
3FF8
2008
ENDCHAR
STARTCHAR b1b2
ENCODING 45490
SWIDTH 84 0
DWIDTH 14 0
BBX 14 14 0 -2
BITMAP
1000
0BF0
0A10
42F0
2290
2290
07F8
1408
15E8
1528
25E8
2528
4408
4418
ENDCHAR
STARTCHAR b1b3
ENCODING 45491
SWIDTH 84 0
DWIDTH 14 0
BBX 14 14 0 -2
BITMAP
0080
00F8
7080
57FC
54F8
5788
5478
54A0
56A8
75A8
49B0
08A0
17FC
0000
ENDCHAR
STARTCHAR b1b4
ENCODING 45492
SWIDTH 84 0
DWIDTH 14 0
BBX 14 14 0 -2
BITMAP
0000
01F8
3D08
2508
25F8
2508
2508
25F8
2508
3D08
25F8
2090
0308
0C04
ENDCHAR
STARTCHAR b1b5
ENCODING 45493
SWIDTH 84 0
DWIDTH 14 0
BBX 14 14 0 -2
BITMAP
1290
7DFC
3AB8
55D4
1FF0
1290
1FF0
3E10
23FC
3E90
3E50
2450
3E10
6030
ENDCHAR
STARTCHAR b1b6
ENCODING 45494
SWIDTH 84 0
DWIDTH 14 0
BBX 14 14 0 -2
BITMAP
0440
7FFC
0440
3F08
2108
3FFC
2008
2E48
2028
3F28
2E08
2D08
5508
0C18
ENDCHAR
STARTCHAR b1b7
ENCODING 45495
SWIDTH 84 0
DWIDTH 14 0
BBX 14 14 0 -2
BITMAP
0800
08F8
1E88
24F8
7E88
2AF8
3FFC
2B54
3FFC
04F8
3A50
2E20
28D0
430C
ENDCHAR
STARTCHAR b1b8
ENCODING 45496
SWIDTH 84 0
DWIDTH 14 0
BBX 14 14 0 -2
BITMAP
1040
1048
11F8
1050
7C50
27FC
2420
24C0
7898
49E0
0E80
1484
2084
407C
ENDCHAR
STARTCHAR b1b9
ENCODING 45497
SWIDTH 84 0
DWIDTH 14 0
BBX 14 14 0 -2
BITMAP
0000
3FFC
2000
2F78
2950
2F50
2950
2FFC
2830
2A30
2950
2B54
4C94
310C
ENDCHAR
STARTCHAR b1ba
ENCODING 45498
SWIDTH 84 0
DWIDTH 14 0
BBX 14 14 0 -2
BITMAP
1050
0848
0FFC
4040
23F8
2248
0248
0BF8
0A48
0A48
13F8
1248
2248
2258
ENDCHAR
STARTCHAR b1bb
ENCODING 45499
SWIDTH 84 0
DWIDTH 14 0
BBX 14 14 0 -2
BITMAP
0010
00E0
0F20
0920
0920
0920
0920
0920
0910
0990
1150
11E8
2E28
4004
ENDCHAR
STARTCHAR b1bc
ENCODING 45500
SWIDTH 84 0
DWIDTH 14 0
BBX 14 14 0 -2
BITMAP
0000
3EF8
2288
3EF8
2288
3EF8
2008
2FE8
2108
27C8
2108
2FE8
2008
2018
ENDCHAR
STARTCHAR b1bd
ENCODING 45501
SWIDTH 84 0
DWIDTH 14 0
BBX 14 14 0 -2
BITMAP
0110
00A0
7FFC
48A0
4BF8
4AA8
4B38
4BF8
4BF8
7810
4FFC
4110
0090
0030
ENDCHAR
STARTCHAR b1be
ENCODING 45502
SWIDTH 84 0
DWIDTH 14 0
BBX 14 14 0 -2
BITMAP
0000
1FF0
0000
0000
0000
7FFC
0100
0100
0140
0220
0210
0470
3F88
0008
ENDCHAR
STARTCHAR b1bf
ENCODING 45503
SWIDTH 84 0
DWIDTH 14 0
BBX 14 14 0 -2
BITMAP
0000
27FC
1448
1FFC
0040
03F8
7248
13F8
1248
13F8
1040
17FC
2C40
43FC
ENDCHAR
STARTCHAR b1c0
ENCODING 45504
SWIDTH 84 0
DWIDTH 14 0
BBX 14 14 0 -2
BITMAP
0000
1FF0
0100
3FFC
2104
3D78
4F38
0000
1FF0
0000
7FFC
0220
04F0
3F08
ENDCHAR
STARTCHAR b1c1
ENCODING 45505
SWIDTH 84 0
DWIDTH 14 0
BBX 14 14 0 -2
BITMAP
0440
0440
7FFC
0440
0818
0BE0
1040
1040
37FC
5040
1040
1040
13F8
1000
ENDCHAR
STARTCHAR b1c2
ENCODING 45506
SWIDTH 84 0
DWIDTH 14 0
BBX 14 14 0 -2
BITMAP
0800
0DFC
1248
2A48
4878
3E48
2248
3E78
2248
3E4C
2478
2788
3A08
6008
ENDCHAR
STARTCHAR b1c3
ENCODING 45507
SWIDTH 84 0
DWIDTH 14 0
BBX 14 14 0 -2
BITMAP
0E00
08F8
7F08
5D48
5A48
2D50
5250
1F30
3220
5E30
1250
1E48
1288
1F04
ENDCHAR
STARTCHAR b1c4
ENCODING 45508
SWIDTH 84 0
DWIDTH 14 0
BBX 14 14 0 -2
BITMAP
1210
0920
3FFC
2008
4FE0
0820
0820
0FE0
0200
1FF0
1010
1010
1FF0
1010
ENDCHAR
STARTCHAR b1c5
ENCODING 45509
SWIDTH 84 0
DWIDTH 14 0
BBX 14 14 0 -2
BITMAP
0000
3EF8
2288
3EF8
2288
3EF8
2288
3EF8
1550
7FFC
0420
0F40
01E0
3E18
ENDCHAR
STARTCHAR b1c6
ENCODING 45510
SWIDTH 84 0
DWIDTH 14 0
BBX 14 14 0 -2
BITMAP
0010
1F10
1120
1F20
1148
1F08
0410
7F90
1F24
1104
1F08
1508
6490
0C20
ENDCHAR
STARTCHAR b1c7
ENCODING 45511
SWIDTH 84 0
DWIDTH 14 0
BBX 14 14 0 -2
BITMAP
0040
0040
7840
4BF8
4A48
4A48
7A48
4FFC
4840
48A0
78A0
4910
0208
0C04
ENDCHAR
STARTCHAR b1c8
ENCODING 45512
SWIDTH 84 0
DWIDTH 14 0
BBX 14 14 0 -2
BITMAP
0100
1FF0
1110
1110
1FF0
1110
1110
1FF8
1110
00A0
00C0
0344
3C34
000C
ENDCHAR
STARTCHAR b1c9
ENCODING 45513
SWIDTH 84 0
DWIDTH 14 0
BBX 14 14 0 -2
BITMAP
1210
0910
0920
3FFC
2008
4100
0100
7FFC
0380
0540
1930
610C
0100
0100
ENDCHAR
STARTCHAR b1ca
ENCODING 45514
SWIDTH 84 0
DWIDTH 14 0
BBX 14 14 0 -2
BITMAP
0300
0080
0000
0F00
0108
0188
7F90
0560
0540
0920
1110
610C
0100
0300
ENDCHAR
STARTCHAR b1cb
ENCODING 45515
SWIDTH 84 0
DWIDTH 14 0
BBX 14 14 0 -2
BITMAP
10C0
0820
0800
43C0
2048
2048
07F0
10E0
1150
1150
2248
2444
4040
40C0
ENDCHAR
STARTCHAR b1cc
ENCODING 45516
SWIDTH 84 0
DWIDTH 14 0
BBX 14 14 0 -2
BITMAP
1040
0840
0BF8
4248
2248
23F8
0248
0BF8
0A48
0830
1020
10D4
270C
2004
ENDCHAR
STARTCHAR b1cd
ENCODING 45517
SWIDTH 84 0
DWIDTH 14 0
BBX 14 14 0 -2
BITMAP
0110
0110
7FFC
1110
1040
13F8
7E48
1248
17FC
1040
1C60
6090
0308
0C04
ENDCHAR
STARTCHAR b1ce
ENCODING 45518
SWIDTH 84 0
DWIDTH 14 0
BBX 14 14 0 -2
BITMAP
0000
1FC0
0440
0440
0FF8
0C88
1308
2288
4C70
1FF0
1290
1290
7FFC
0000
ENDCHAR
STARTCHAR b1cf
ENCODING 45519
SWIDTH 84 0
DWIDTH 14 0
BBX 14 14 0 -2
BITMAP
2000
25FC
3820
2240
1CF8
0288
3CF8
0888
7EF8
1888
1CF8
2A50
4888
0B04
ENDCHAR
STARTCHAR b1d0
ENCODING 45520
SWIDTH 84 0
DWIDTH 14 0
BBX 14 14 0 -2
BITMAP
2000
25FC
3820
2240
1EF8
0088
3EF8
0088
7FF8
0C88
2AF8
2A50
4888
1B04
ENDCHAR
STARTCHAR b1d1
ENCODING 45521
SWIDTH 84 0
DWIDTH 14 0
BBX 14 14 0 -2
BITMAP
0440
0440
7FFC
0440
0100
1FF0
1110
1110
1110
7FFC
0280
0440
1830
600C
ENDCHAR
STARTCHAR b1d2
ENCODING 45522
SWIDTH 84 0
DWIDTH 14 0
BBX 14 14 0 -2
BITMAP
1100
17B8
2280
4FC0
087C
1790
1490
3790
5110
1790
1510
1FD0
1110
1130
ENDCHAR
STARTCHAR b1d3
ENCODING 45523
SWIDTH 84 0
DWIDTH 14 0
BBX 14 14 0 -2
BITMAP
0040
3C20
0020
7EE0
0028
3C28
01F0
3C70
00B0
3CA8
2528
2624
3C20
2060
ENDCHAR
STARTCHAR b1d4
ENCODING 45524
SWIDTH 84 0
DWIDTH 14 0
BBX 14 14 0 -2
BITMAP
0888
0848
1450
12F8
2288
5C88
0888
7EF8
0850
2A50
1C90
1894
0F14
720C
ENDCHAR
STARTCHAR b1d5
ENCODING 45525
SWIDTH 84 0
DWIDTH 14 0
BBX 14 14 0 -2
BITMAP
1040
0840
0FFC
4140
2178
2248
02A8
1698
1B50
1250
2220
2250
4288
4304
ENDCHAR
STARTCHAR b1d6
ENCODING 45526
SWIDTH 84 0
DWIDTH 14 0
BBX 14 14 0 -2
BITMAP
0080
0080
0FFC
4800
29E0
2924
0924
1A1C
2FF0
4910
10A0
1040
21B0
4E0C
ENDCHAR
STARTCHAR b1d7
ENCODING 45527
SWIDTH 84 0
DWIDTH 14 0
BBX 14 14 0 -2
BITMAP
0820
0420
0440
7FFC
0820
0820
1010
1FF0
2AA8
4AA4
0AA0
0AA0
7FFC
0000
ENDCHAR
STARTCHAR b1d8
ENCODING 45528
SWIDTH 84 0
DWIDTH 14 0
BBX 14 14 0 -2
BITMAP
0000
3FF8
2888
3E88
2888
3EF8
28A8
3EA0
0AA0
3E90
3A90
3308
4508
1A04
ENDCHAR
STARTCHAR b1d9
ENCODING 45529
SWIDTH 84 0
DWIDTH 14 0
BBX 14 14 0 -2
BITMAP
1110
1090
10A0
1BF8
3608
3608
33F8
52A8
10A0
1120
1120
1224
1424
181C
ENDCHAR
STARTCHAR b1da
ENCODING 45530
SWIDTH 84 0
DWIDTH 14 0
BBX 14 14 0 -2
BITMAP
0000
3DF0
0110
7FF0
0110
3DF0
0080
3DF8
0328
3DC8
2528
24E8
3C08
2030
ENDCHAR
STARTCHAR b1db
ENCODING 45531
SWIDTH 84 0
DWIDTH 14 0
BBX 14 14 0 -2
BITMAP
0820
0828
3E24
09FC
0920
7F28
0928
2930
2F50
2994
3B2C
2844
4600
41FC
ENDCHAR
STARTCHAR b1dc
ENCODING 45532
SWIDTH 84 0
DWIDTH 14 0
BBX 14 14 0 -2
BITMAP
0000
3EF8
2288
3EF8
2288
3EF8
2448
2288
27C8
2448
27C8
2288
24A8
2878
ENDCHAR
STARTCHAR b1dd
ENCODING 45533
SWIDTH 84 0
DWIDTH 14 0
BBX 14 14 0 -2
BITMAP
0800
0BFC
0840
7FF8
0908
1DF8
1BF8
1B08
29F8
28F8
4B90
0860
09B0
0E0C
ENDCHAR
STARTCHAR b1de
ENCODING 45534
SWIDTH 84 0
DWIDTH 14 0
BBX 14 14 0 -2
BITMAP
0000
3FFC
2000
2F28
2924
2F20
2FFC
2020
2F20
2920
2F70
2F50
2988
4B04
ENDCHAR
STARTCHAR b1df
ENCODING 45535
SWIDTH 84 0
DWIDTH 14 0
BBX 14 14 0 -2
BITMAP
0000
3FF8
2108
2108
2108
2108
2108
3FF8
2008
2008
2008
2008
2008
2018
ENDCHAR
STARTCHAR b1e0
ENCODING 45536
SWIDTH 84 0
DWIDTH 14 0
BBX 14 14 0 -2
BITMAP
0000
3FF8
2108
2FE8
2108
3FF8
27C8
2448
27E8
23A8
2D48
2128
3FF8
2008
ENDCHAR
STARTCHAR b1e1
ENCODING 45537
SWIDTH 84 0
DWIDTH 14 0
BBX 14 14 0 -2
BITMAP
0000
13FC
1200
12F8
7E88
12F8
1288
12F8
1620
1BFC
62D0
0230
02C8
03FC
ENDCHAR
STARTCHAR b1e2
ENCODING 45538
SWIDTH 84 0
DWIDTH 14 0
BBX 14 14 0 -2
BITMAP
0100
0100
7FFC
0280
0D60
711C
1FF0
1110
1FF0
1110
1FF0
1114
1104
00FC
ENDCHAR
STARTCHAR b1e3
ENCODING 45539
SWIDTH 84 0
DWIDTH 14 0
BBX 14 14 0 -2
BITMAP
0100
3FFC
2008
4FE0
0820
0FE0
0820
0FE0
0100
7FFC
0440
0E80
03C0
3C30
ENDCHAR
STARTCHAR b1e4
ENCODING 45540
SWIDTH 84 0
DWIDTH 14 0
BBX 14 14 0 -2
BITMAP
0000
781C
0BE0
1020
1020
3D20
0538
2520
2520
1520
1BFC
1800
2600
41FC
ENDCHAR
STARTCHAR b1e5
ENCODING 45541
SWIDTH 84 0
DWIDTH 14 0
BBX 14 14 0 -2
BITMAP
0800
0800
1FF8
1188
2A88
46B0
0484
187C
6100
1490
1488
2424
4424
03E0
ENDCHAR
STARTCHAR b1e6
ENCODING 45542
SWIDTH 84 0
DWIDTH 14 0
BBX 14 14 0 -2
BITMAP
1040
1040
13FC
7CA0
1150
1248
1FFC
1248
33F8
5248
13F8
1248
1044
303C
ENDCHAR
STARTCHAR b1e7
ENCODING 45543
SWIDTH 84 0
DWIDTH 14 0
BBX 14 14 0 -2
BITMAP
1008
1030
13C8
7E48
1110
13F8
1080
1FFC
7100
11F8
1290
1460
18F0
330C
ENDCHAR
STARTCHAR b1e8
ENCODING 45544
SWIDTH 84 0
DWIDTH 14 0
BBX 14 14 0 -2
BITMAP
10E0
0820
0920
4120
2110
2210
0208
17F4
1210
1210
2210
2210
43F0
4210
ENDCHAR
STARTCHAR b1e9
ENCODING 45545
SWIDTH 84 0
DWIDTH 14 0
BBX 14 14 0 -2
BITMAP
1040
0840
0FFC
4408
2FFC
2040
03F8
1248
13F8
1248
23F8
2090
4308
4C04
ENDCHAR
STARTCHAR b1ea
ENCODING 45546
SWIDTH 84 0
DWIDTH 14 0
BBX 14 14 0 -2
BITMAP
0110
0910
0920
1300
02C0
0C30
3108
0110
1110
1320
2280
0440
1830
600C
ENDCHAR
STARTCHAR b1eb
ENCODING 45547
SWIDTH 84 0
DWIDTH 14 0
BBX 14 14 0 -2
BITMAP
0840
0840
0A78
0A88
2B10
2C20
2978
4948
0948
0D78
1348
1348
2178
4148
ENDCHAR
STARTCHAR b1ec
ENCODING 45548
SWIDTH 84 0
DWIDTH 14 0
BBX 14 14 0 -2
BITMAP
1000
17FC
10A0
17F8
36A8
3AA8
33F8
5248
1840
17F8
2440
2040
47FC
0000
ENDCHAR
STARTCHAR b1ed
ENCODING 45549
SWIDTH 84 0
DWIDTH 14 0
BBX 14 14 0 -2
BITMAP
0440
0440
7FFC
0440
0FE4
7828
0BB0
1AA0
6AA4
0B9C
1490
1248
2244
4004
ENDCHAR
STARTCHAR b1ee
ENCODING 45550
SWIDTH 84 0
DWIDTH 14 0
BBX 14 14 0 -2
BITMAP
0840
4BF8
3040
17FC
3000
49F0
0910
19F0
28C8
4F48
0930
0910
31C8
1604
ENDCHAR
STARTCHAR b1ef
ENCODING 45551
SWIDTH 84 0
DWIDTH 14 0
BBX 14 14 0 -2
BITMAP
1000
11F0
1410
65F0
1810
1BFC
2440
7CE4
1368
38B0
3770
34A8
5324
10C0
ENDCHAR
STARTCHAR b1f0
ENCODING 45552
SWIDTH 84 0
DWIDTH 14 0
BBX 14 14 0 -2
BITMAP
1420
7F20
5578
7F90
5520
7FF8
00A8
7FA8
3EF8
2288
3E80
2484
1E84
607C
ENDCHAR
STARTCHAR b1f1
ENCODING 45553
SWIDTH 84 0
DWIDTH 14 0
BBX 14 14 0 -2
BITMAP
0440
0440
7FFC
0440
0800
08F8
1E88
1288
2288
54B0
0C80
0884
1084
207C
ENDCHAR
STARTCHAR b1f2
ENCODING 45554
SWIDTH 84 0
DWIDTH 14 0
BBX 14 14 0 -2
BITMAP
0440
7FFC
0440
3FF8
2108
27C8
3FF8
2448
27E8
23A8
2E48
2228
3FF8
2008
ENDCHAR
STARTCHAR b1f3
ENCODING 45555
SWIDTH 84 0
DWIDTH 14 0
BBX 14 14 0 -2
BITMAP
0040
23F8
1040
17FC
0000
03F8
7208
13F8
1088
11D0
1EB0
1888
2680
41FC
ENDCHAR
STARTCHAR b1f4
ENCODING 45556
SWIDTH 84 0
DWIDTH 14 0
BBX 14 14 0 -2
BITMAP
0870
0810
1490
1290
2288
5D08
0904
7EF8
0888
2A88
1C88
1888
0EF8
7088
ENDCHAR
STARTCHAR b1f5
ENCODING 45557
SWIDTH 84 0
DWIDTH 14 0
BBX 14 14 0 -2
BITMAP
0800
1FF8
7288
0CB0
1A84
6FFC
0BC0
0FC0
0FF8
0800
0FF8
1548
2528
4030
ENDCHAR
STARTCHAR b1f6
ENCODING 45558
SWIDTH 84 0
DWIDTH 14 0
BBX 14 14 0 -2
BITMAP
0100
1100
11FC
1200
7FF0
1510
11F0
1000
17F8
1AA8
62A8
02A8
0FFC
0000
ENDCHAR
STARTCHAR b1f7
ENCODING 45559
SWIDTH 84 0
DWIDTH 14 0
BBX 14 14 0 -2
BITMAP
0820
0820
0820
7F50
0850
0888
0F44
0A20
0A20
1200
1240
2220
4210
0C10
ENDCHAR
STARTCHAR b1f8
ENCODING 45560
SWIDTH 84 0
DWIDTH 14 0
BBX 14 14 0 -2
BITMAP
1000
0BF8
0840
4040
27FC
2080
0080
09F8
0908
0808
1008
1008
2008
2070
ENDCHAR
STARTCHAR b1f9
ENCODING 45561
SWIDTH 84 0
DWIDTH 14 0
BBX 14 14 0 -2
BITMAP
0800
2BF8
2A48
3E48
2BF8
4A48
0A48
3FF8
0840
0BF8
0C48
1888
6108
0630
ENDCHAR
STARTCHAR b1fa
ENCODING 45562
SWIDTH 84 0
DWIDTH 14 0
BBX 14 14 0 -2
BITMAP
0000
3C78
2448
2448
2448
2448
2448
27C8
2448
2008
2008
2008
3FF8
2008
ENDCHAR
STARTCHAR b1fb
ENCODING 45563
SWIDTH 84 0
DWIDTH 14 0
BBX 14 14 0 -2
BITMAP
0100
0100
0100
1FF0
1110
1110
1110
1110
7FFC
0300
0280
0440
1830
600C
ENDCHAR
STARTCHAR b1fc
ENCODING 45564
SWIDTH 84 0
DWIDTH 14 0
BBX 14 14 0 -2
BITMAP
0100
0200
1FF0
1950
1550
1590
1FF0
1390
1550
1930
7FFC
0280
0C60
3018
ENDCHAR
STARTCHAR b1fd
ENCODING 45565
SWIDTH 84 0
DWIDTH 14 0
BBX 14 14 0 -2
BITMAP
0880
0840
1040
27FC
4440
0840
0840
1BF8
2840
4840
0840
0840
0FFC
0800
ENDCHAR
STARTCHAR b1fe
ENCODING 45566
SWIDTH 84 0
DWIDTH 14 0
BBX 14 14 0 -2
BITMAP
0080
0080
1FFC
1080
1040
1120
1120
1508
1504
1504
2904
2910
4110
00F0
ENDCHAR
STARTCHAR b2a1
ENCODING 45729
SWIDTH 84 0
DWIDTH 14 0
BBX 14 14 0 -2
BITMAP
1000
13F8
1248
7E48
13F8
1248
1248
1FF8
7248
1040
1040
1040
1040
3040
ENDCHAR
STARTCHAR b2a2
ENCODING 45730
SWIDTH 84 0
DWIDTH 14 0
BBX 14 14 0 -2
BITMAP
0000
7FFC
4440
4440
4440
7C40
47F8
4440
4440
7C40
4440
4040
07FC
0000
ENDCHAR
STARTCHAR b2a3
ENCODING 45731
SWIDTH 84 0
DWIDTH 14 0
BBX 14 14 0 -2
BITMAP
10A0
10A0
13F8
7CA0
17FC
1040
3BF8
3648
37F8
5248
53F8
10A0
1110
1608
ENDCHAR
STARTCHAR b2a4
ENCODING 45732
SWIDTH 84 0
DWIDTH 14 0
BBX 14 14 0 -2
BITMAP
0040
3F40
2240
22FC
32A4
2B28
2430
2620
2A20
2960
3150
2090
3F08
2204
ENDCHAR
STARTCHAR b2a5
ENCODING 45733
SWIDTH 84 0
DWIDTH 14 0
BBX 14 14 0 -2
BITMAP
0000
3F70
2250
2250
3254
2A94
250C
24F8
2A48
2A50
3030
2030
3EC8
2304
ENDCHAR
STARTCHAR b2a6
ENCODING 45734
SWIDTH 84 0
DWIDTH 14 0
BBX 14 14 0 -2
BITMAP
0000
3FF8
0100
0100
0100
0100
1FF0
0100
0100
0100
0100
0100
7FFC
0000
ENDCHAR
STARTCHAR b2a7
ENCODING 45735
SWIDTH 84 0
DWIDTH 14 0
BBX 14 14 0 -2
BITMAP
05E0
0420
1910
61CC
0260
3F90
0000
7FF8
2288
1248
0618
1A68
6388
0618
ENDCHAR
STARTCHAR b2a8
ENCODING 45736
SWIDTH 84 0
DWIDTH 14 0
BBX 14 14 0 -2
BITMAP
1040
1080
13F8
7F58
0AE8
0BF8
16E8
1B58
3648
57FC
1040
10A0
1310
1C0C
ENDCHAR
STARTCHAR b2a9
ENCODING 45737
SWIDTH 84 0
DWIDTH 14 0
BBX 14 14 0 -2
BITMAP
1210
0920
3FFC
2208
4FE0
0820
0FE0
0FE0
0FFC
0800
0FF8
2948
24A8
4030
ENDCHAR
STARTCHAR b2aa
ENCODING 45738
SWIDTH 84 0
DWIDTH 14 0
BBX 14 14 0 -2
BITMAP
0020
3F40
20F8
2288
22F8
3288
2CF8
24FC
2680
2AFC
3054
21AC
3F44
2218
ENDCHAR
STARTCHAR b2ab
ENCODING 45739
SWIDTH 84 0
DWIDTH 14 0
BBX 14 14 0 -2
BITMAP
0440
0440
3FF8
0440
7FFC
0100
1FF0
1110
1FF0
1110
1FF0
0440
1830
6008
ENDCHAR
STARTCHAR b2ac
ENCODING 45740
SWIDTH 84 0
DWIDTH 14 0
BBX 14 14 0 -2
BITMAP
0000
3FF8
2848
2448
2488
3FF8
2108
2928
2928
2928
2FE8
2828
2008
2018
ENDCHAR
STARTCHAR b2ad
ENCODING 45741
SWIDTH 84 0
DWIDTH 14 0
BBX 14 14 0 -2
BITMAP
1040
0840
0840
43F8
2248
2248
0248
0A48
0BF8
0A48
1040
1040
2040
2040
ENDCHAR
STARTCHAR b2ae
ENCODING 45742
SWIDTH 84 0
DWIDTH 14 0
BBX 14 14 0 -2
BITMAP
0440
0440
7FFC
0440
0420
3428
08A8
18B0
6520
0D60
1450
6490
0508
1A04
ENDCHAR
STARTCHAR b2af
ENCODING 45743
SWIDTH 84 0
DWIDTH 14 0
BBX 14 14 0 -2
BITMAP
0840
0BF8
08A0
17FC
1000
31F0
5110
11F0
1110
11F0
1548
1524
1914
10F0
ENDCHAR
STARTCHAR b2b0
ENCODING 45744
SWIDTH 84 0
DWIDTH 14 0
BBX 14 14 0 -2
BITMAP
0000
1FF8
1008
1FF8
1000
1FF8
1140
1230
1FC8
1080
27F0
2080
5FFC
0000
ENDCHAR
STARTCHAR b2b1
ENCODING 45745
SWIDTH 84 0
DWIDTH 14 0
BBX 14 14 0 -2
BITMAP
1040
13F8
1110
17FC
3800
35F0
3510
51F0
1110
11F0
1548
1524
1914
10F0
ENDCHAR
STARTCHAR b2b2
ENCODING 45746
SWIDTH 84 0
DWIDTH 14 0
BBX 14 14 0 -2
BITMAP
0020
3FFC
2490
27FC
3C00
25F8
2508
3DF8
2508
25F8
24A8
25A4
2694
4C70
ENDCHAR
STARTCHAR b2b3
ENCODING 45747
SWIDTH 84 0
DWIDTH 14 0
BBX 14 14 0 -2
BITMAP
1000
13F8
1090
7C60
13F8
1248
3A48
37F8
3648
5248
53F8
1248
1248
1258
ENDCHAR
STARTCHAR b2b4
ENCODING 45748
SWIDTH 84 0
DWIDTH 14 0
BBX 14 14 0 -2
BITMAP
0840
0840
2840
2840
3E40
29F8
2840
4840
0E40
7840
0840
0840
0BFC
0800
ENDCHAR
STARTCHAR b2b5
ENCODING 45749
SWIDTH 84 0
DWIDTH 14 0
BBX 14 14 0 -2
BITMAP
0000
3FE0
0040
0080
0100
0200
0400
0800
1000
2008
2008
2008
1FF8
0000
ENDCHAR
STARTCHAR b2b6
ENCODING 45750
SWIDTH 84 0
DWIDTH 14 0
BBX 14 14 0 -2
BITMAP
0880
0880
0FF8
1140
12A0
3498
5FF4
1490
17F0
1490
17F0
1494
1084
107C
ENDCHAR
STARTCHAR b2b7
ENCODING 45751
SWIDTH 84 0
DWIDTH 14 0
BBX 14 14 0 -2
BITMAP
1000
1078
1F48
2448
4448
7FC8
0448
2748
2448
2448
2770
3C40
6040
0040
ENDCHAR
STARTCHAR b2b8
ENCODING 45752
SWIDTH 84 0
DWIDTH 14 0
BBX 14 14 0 -2
BITMAP
0000
1FF0
1110
1FF0
1110
12D0
1C30
1FF0
0100
1490
1488
2424
4424
03E0
ENDCHAR
STARTCHAR b2b9
ENCODING 45753
SWIDTH 84 0
DWIDTH 14 0
BBX 14 14 0 -2
BITMAP
1000
0BF0
0A10
43F0
2210
23F0
0210
1000
17F8
1528
2528
2528
4FFC
4000
ENDCHAR
STARTCHAR b2ba
ENCODING 45754
SWIDTH 84 0
DWIDTH 14 0
BBX 14 14 0 -2
BITMAP
0418
1BE8
7248
1110
11F8
7C08
11F8
1808
35F8
3440
52A8
1284
1494
1070
ENDCHAR
STARTCHAR b2bb
ENCODING 45755
SWIDTH 84 0
DWIDTH 14 0
BBX 14 14 0 -2
BITMAP
0100
0100
3FF8
0820
0440
7FFC
0000
0FE0
0820
0FE0
0820
0820
0FE0
0820
ENDCHAR
STARTCHAR b2bc
ENCODING 45756
SWIDTH 84 0
DWIDTH 14 0
BBX 14 14 0 -2
BITMAP
0000
7FFC
0100
0100
0180
0140
0120
0110
0110
0100
0100
0100
0100
0100
ENDCHAR
STARTCHAR b2bd
ENCODING 45757
SWIDTH 84 0
DWIDTH 14 0
BBX 14 14 0 -2
BITMAP
0480
0480
0488
0888
0890
18A0
28C0
4880
0880
0880
0880
0884
0884
087C
ENDCHAR
STARTCHAR b2be
ENCODING 45758
SWIDTH 84 0
DWIDTH 14 0
BBX 14 14 0 -2
BITMAP
0800
0BFC
0A00
1200
13F8
3288
5288
1250
1250
1220
1420
1450
1988
1604
ENDCHAR
STARTCHAR b2bf
ENCODING 45759
SWIDTH 84 0
DWIDTH 14 0
BBX 14 14 0 -2
BITMAP
0800
0FFC
0808
1008
13C8
3248
5248
1248
13C8
1248
1008
1008
1008
1018
ENDCHAR
STARTCHAR b2c0
ENCODING 45760
SWIDTH 84 0
DWIDTH 14 0
BBX 14 14 0 -2
BITMAP
0A00
0A00
0A38
1FA8
12A8
32A8
52A8
12A8
12A8
12A8
14A8
14B8
19A8
1000
ENDCHAR
STARTCHAR b2c1
ENCODING 45761
SWIDTH 84 0
DWIDTH 14 0
BBX 14 14 0 -2
BITMAP
0800
0FFC
08A0
10A0
10A0
33F8
52A8
12A8
12A8
12A8
12A8
12A8
13F8
1208
ENDCHAR
STARTCHAR b2c2
ENCODING 45762
SWIDTH 84 0
DWIDTH 14 0
BBX 14 14 0 -2
BITMAP
0840
0840
0840
13F8
1040
3040
57FC
1040
1040
13F8
1040
1040
17FC
1000
ENDCHAR
STARTCHAR b2c3
ENCODING 45763
SWIDTH 84 0
DWIDTH 14 0
BBX 14 14 0 -2
BITMAP
0800
0800
0800
087C
7F44
0944
0944
0944
0944
0944
1144
117C
2144
4600
ENDCHAR
STARTCHAR b2c4
ENCODING 45764
SWIDTH 84 0
DWIDTH 14 0
BBX 14 14 0 -2
BITMAP
0000
7FFC
0010
0010
1F10
1110
1110
1110
1F10
1110
0010
0010
0010
0030
ENDCHAR
STARTCHAR b2c5
ENCODING 45765
SWIDTH 84 0
DWIDTH 14 0
BBX 14 14 0 -2
BITMAP
0100
3FF8
0100
1FF0
0000
0FE0
0820
0FE0
0440
7FFC
0400
3F78
0948
3378
ENDCHAR
STARTCHAR b2c6
ENCODING 45766
SWIDTH 84 0
DWIDTH 14 0
BBX 14 14 0 -2
BITMAP
0000
7FFC
0100
0FE0
0820
0FE0
0FE0
0820
0FE0
07E0
3C40
0380
06E0
781C
ENDCHAR
STARTCHAR b2c7
ENCODING 45767
SWIDTH 84 0
DWIDTH 14 0
BBX 14 14 0 -2
BITMAP
1040
1040
13FC
1208
7FFC
2440
24E4
2768
78B0
4B70
0CA8
1724
2020
40C0
ENDCHAR
STARTCHAR b2c8
ENCODING 45768
SWIDTH 84 0
DWIDTH 14 0
BBX 14 14 0 -2
BITMAP
0100
0100
3FFC
2008
7FF8
0200
0D48
33C8
0DB0
32A0
0490
1888
6084
0300
ENDCHAR
STARTCHAR b2c9
ENCODING 45769
SWIDTH 84 0
DWIDTH 14 0
BBX 14 14 0 -2
BITMAP
0100
3FFC
2FE8
4200
0FE0
0820
0FE0
0FE0
0FE0
7FFC
0FE0
725C
0440
1980
ENDCHAR
STARTCHAR b2ca
ENCODING 45770
SWIDTH 84 0
DWIDTH 14 0
BBX 14 14 0 -2
BITMAP
0210
0C90
3850
0850
0910
7E90
0890
1C1C
1A70
2B90
4810
0810
0810
0810
ENDCHAR
STARTCHAR b2cb
ENCODING 45771
SWIDTH 84 0
DWIDTH 14 0
BBX 14 14 0 -2
BITMAP
0000
07B8
7488
5488
57B8
5488
7400
5778
5448
5428
7730
5410
4428
04C4
ENDCHAR
STARTCHAR b2cc
ENCODING 45772
SWIDTH 84 0
DWIDTH 14 0
BBX 14 14 0 -2
BITMAP
0000
1FF0
1110
1110
1FF0
1110
1FF0
0100
7FFC
0380
0540
1930
610C
0100
ENDCHAR
STARTCHAR b2cd
ENCODING 45773
SWIDTH 84 0
DWIDTH 14 0
BBX 14 14 0 -2
BITMAP
1000
10F8
7E88
1288
1288
22F8
4D88
0100
7FFC
0380
0540
1930
610C
0100
ENDCHAR
STARTCHAR b2ce
ENCODING 45774
SWIDTH 84 0
DWIDTH 14 0
BBX 14 14 0 -2
BITMAP
0040
7F40
0240
3A40
2AFC
3AA8
0330
7F20
0220
3A60
2A50
3A90
2B08
0604
ENDCHAR
STARTCHAR b2cf
ENCODING 45775
SWIDTH 84 0
DWIDTH 14 0
BBX 14 14 0 -2
BITMAP
1000
0FFC
0808
4008
23C8
2248
0248
0248
0BC8
0A48
1008
1008
2008
2018
ENDCHAR
STARTCHAR b2d0
ENCODING 45776
SWIDTH 84 0
DWIDTH 14 0
BBX 14 14 0 -2
BITMAP
0100
0100
0108
1108
1110
1120
2180
2280
0240
0440
0420
0810
1008
6004
ENDCHAR
STARTCHAR b2d1
ENCODING 45777
SWIDTH 84 0
DWIDTH 14 0
BBX 14 14 0 -2
BITMAP
0000
03FC
7C08
1008
11E8
1128
7D28
1128
11E8
1128
1C08
6008
0008
0018
ENDCHAR
STARTCHAR b2d2
ENCODING 45778
SWIDTH 84 0
DWIDTH 14 0
BBX 14 14 0 -2
BITMAP
1000
11F0
1110
7D70
0950
0950
13F8
1A08
36E8
56A8
12E8
12A8
1208
1218
ENDCHAR
STARTCHAR b2d3
ENCODING 45779
SWIDTH 84 0
DWIDTH 14 0
BBX 14 14 0 -2
BITMAP
0030
01C0
1F00
0100
0100
7FFC
0100
0380
0540
1930
610C
0100
0100
0100
ENDCHAR
STARTCHAR b2d4
ENCODING 45780
SWIDTH 84 0
DWIDTH 14 0
BBX 14 14 0 -2
BITMAP
0440
1840
73FC
1208
17F8
7C40
10E4
3B68
34B0
5770
50A8
1324
1020
10C0
ENDCHAR
STARTCHAR b2d5
ENCODING 45781
SWIDTH 84 0
DWIDTH 14 0
BBX 14 14 0 -2
BITMAP
1040
1FFC
28A0
4510
3FF8
2108
2FE8
2108
27C8
2448
27C8
2008
3FF8
2008
ENDCHAR
STARTCHAR b2d6
ENCODING 45782
SWIDTH 84 0
DWIDTH 14 0
BBX 14 14 0 -2
BITMAP
0440
0440
7FFC
0440
0440
0480
0888
0890
18E0
2880
4880
0884
0884
087C
ENDCHAR
STARTCHAR b2d7
ENCODING 45783
SWIDTH 84 0
DWIDTH 14 0
BBX 14 14 0 -2
BITMAP
0440
0440
7FFC
0440
0000
7FFC
0010
1F10
1110
1110
1F10
1110
0010
0030
ENDCHAR
STARTCHAR b2d8
ENCODING 45784
SWIDTH 84 0
DWIDTH 14 0
BBX 14 14 0 -2
BITMAP
0440
0440
7FFC
0440
1440
1000
7EF8
1288
1288
1288
1288
2288
22F8
4C88
ENDCHAR
STARTCHAR b2d9
ENCODING 45785
SWIDTH 84 0
DWIDTH 14 0
BBX 14 14 0 -2
BITMAP
0440
0440
7FFC
0440
0800
0BFC
1010
13D0
3250
5250
13D0
1210
1010
1030
ENDCHAR
STARTCHAR b2da
ENCODING 45786
SWIDTH 84 0
DWIDTH 14 0
BBX 14 14 0 -2
BITMAP
0440
0440
7FFC
0440
1FF0
0920
7FFC
0920
1FF8
0100
7FFC
0100
0100
0100
ENDCHAR
STARTCHAR b2db
ENCODING 45787
SWIDTH 84 0
DWIDTH 14 0
BBX 14 14 0 -2
BITMAP
0440
7FFC
0440
1FF0
1110
1FF0
1110
1FF0
0100
7FFC
0380
0D60
711C
0100
ENDCHAR
STARTCHAR b2dc
ENCODING 45788
SWIDTH 84 0
DWIDTH 14 0
BBX 14 14 0 -2
BITMAP
1000
11D8
1148
7D48
55D8
5508
5500
7DF8
5128
1928
15D0
1D10
6528
0144
ENDCHAR
STARTCHAR b2dd
ENCODING 45789
SWIDTH 84 0
DWIDTH 14 0
BBX 14 14 0 -2
BITMAP
0000
3DF8
0148
7F48
01F8
3D48
01F8
3C40
03FC
3CE0
2550
2648
3C44
2440
ENDCHAR
STARTCHAR b2de
ENCODING 45790
SWIDTH 84 0
DWIDTH 14 0
BBX 14 14 0 -2
BITMAP
0110
0110
7FFC
4910
4BF8
4950
4FFC
4950
4BF8
7840
4FFC
4040
0040
0040
ENDCHAR
STARTCHAR b2df
ENCODING 45791
SWIDTH 84 0
DWIDTH 14 0
BBX 14 14 0 -2
BITMAP
0480
048C
18F0
6884
087C
0FE0
0820
0FE0
0820
0FE0
0820
0FE0
0660
3818
ENDCHAR
STARTCHAR b2e0
ENCODING 45792
SWIDTH 84 0
DWIDTH 14 0
BBX 14 14 0 -2
BITMAP
0200
2200
1238
1FA8
02A8
02A8
72A8
12A8
14A8
14A8
18B8
1B28
2600
41FC
ENDCHAR
STARTCHAR b2e1
ENCODING 45793
SWIDTH 84 0
DWIDTH 14 0
BBX 14 14 0 -2
BITMAP
0000
23F0
1210
12F0
0290
07F8
7408
15E8
1528
15E8
1528
1C18
2600
41FC
ENDCHAR
STARTCHAR b2e2
ENCODING 45794
SWIDTH 84 0
DWIDTH 14 0
BBX 14 14 0 -2
BITMAP
0000
1FF0
0100
3FFC
3D78
5D70
0100
3EF8
2208
3EF8
3DF8
2050
3C70
218C
ENDCHAR
STARTCHAR b2e3
ENCODING 45795
SWIDTH 84 0
DWIDTH 14 0
BBX 14 14 0 -2
BITMAP
0820
0820
0820
3FFC
2A88
2A88
2A88
3E50
2A50
0C20
0A20
0F50
7088
0104
ENDCHAR
STARTCHAR b2e4
ENCODING 45796
SWIDTH 84 0
DWIDTH 14 0
BBX 14 14 0 -2
BITMAP
0860
09A8
0F24
1124
1120
3FFC
5120
11A8
1128
1310
1D10
1134
134C
1104
ENDCHAR
STARTCHAR b2e5
ENCODING 45797
SWIDTH 84 0
DWIDTH 14 0
BBX 14 14 0 -2
BITMAP
0060
10A8
13A4
10A4
54A0
57FC
54A4
54A8
54D8
5590
7EB0
44CC
408C
0184
ENDCHAR
STARTCHAR b2e6
ENCODING 45798
SWIDTH 84 0
DWIDTH 14 0
BBX 14 14 0 -2
BITMAP
0280
0490
3888
0888
0880
7FFC
0888
0888
0E50
7850
0824
08D4
0B0C
1804
ENDCHAR
STARTCHAR b2e7
ENCODING 45799
SWIDTH 84 0
DWIDTH 14 0
BBX 14 14 0 -2
BITMAP
0000
0FF0
0840
0840
0840
0840
7FFC
00C0
0140
0240
0440
1840
6040
00C0
ENDCHAR
STARTCHAR b2e8
ENCODING 45800
SWIDTH 84 0
DWIDTH 14 0
BBX 14 14 0 -2
BITMAP
0000
7FFC
0100
0100
2FE8
2928
2928
2FE8
2928
2928
2FE8
2008
3FF8
2008
ENDCHAR
STARTCHAR b2e9
ENCODING 45801
SWIDTH 84 0
DWIDTH 14 0
BBX 14 14 0 -2
BITMAP
0020
3FA0
2420
2420
3F20
2120
2120
2160
3F50
2450
2490
3F88
2108
0204
ENDCHAR
STARTCHAR b2ea
ENCODING 45802
SWIDTH 84 0
DWIDTH 14 0
BBX 14 14 0 -2
BITMAP
0440
0440
7FFC
0440
1FF0
0840
0840
7FFC
00C0
0140
0640
1840
6040
00C0
ENDCHAR
STARTCHAR b2eb
ENCODING 45803
SWIDTH 84 0
DWIDTH 14 0
BBX 14 14 0 -2
BITMAP
1060
10B0
13A8
7CA8
54A0
57FC
54A0
7CA8
50E8
1BB0
1490
1EB4
60CC
0184
ENDCHAR
STARTCHAR b2ec
ENCODING 45804
SWIDTH 84 0
DWIDTH 14 0
BBX 14 14 0 -2
BITMAP
0800
08F8
7E88
12F8
1688
2FE0
4820
0FE0
0820
0FE0
0820
0FE0
0660
3818
ENDCHAR
STARTCHAR b2ed
ENCODING 45805
SWIDTH 84 0
DWIDTH 14 0
BBX 14 14 0 -2
BITMAP
0048
3E48
2490
24FC
2590
7E90
0CFC
0C90
1490
14FC
2490
4490
04FC
0C80
ENDCHAR
STARTCHAR b2ee
ENCODING 45806
SWIDTH 84 0
DWIDTH 14 0
BBX 14 14 0 -2
BITMAP
0820
0868
17A4
1AA4
28A0
7FFC
24A0
3CA8
24E8
3F90
2894
24AC
3ECC
6184
ENDCHAR
STARTCHAR b2ef
ENCODING 45807
SWIDTH 84 0
DWIDTH 14 0
BBX 14 14 0 -2
BITMAP
0800
7EF8
1288
12F8
2688
5FF0
1100
1FE0
1FE0
1100
1FF8
2A48
2528
4030
ENDCHAR
STARTCHAR b2f0
ENCODING 45808
SWIDTH 84 0
DWIDTH 14 0
BBX 14 14 0 -2
BITMAP
0100
0100
0280
0440
1830
644C
0440
0440
0440
0440
0840
0840
1040
2040
ENDCHAR
STARTCHAR b2f1
ENCODING 45809
SWIDTH 84 0
DWIDTH 14 0
BBX 14 14 0 -2
BITMAP
0100
0100
0280
0440
1830
67CC
0000
0000
3FF8
0240
0220
04F0
3F08
0008
ENDCHAR
STARTCHAR b2f2
ENCODING 45810
SWIDTH 84 0
DWIDTH 14 0
BBX 14 14 0 -2
BITMAP
1000
1FF8
2448
4888
3F30
2AA0
2AF8
3F20
2A20
3FFC
2220
2220
2220
4620
ENDCHAR
STARTCHAR b2f3
ENCODING 45811
SWIDTH 84 0
DWIDTH 14 0
BBX 14 14 0 -2
BITMAP
0000
3FF8
2008
2008
27C8
2448
2448
2448
2448
27C8
2008
2008
3FF8
2008
ENDCHAR
STARTCHAR b2f4
ENCODING 45812
SWIDTH 84 0
DWIDTH 14 0
BBX 14 14 0 -2
BITMAP
0040
1080
13F8
1248
7FF8
1248
13F8
12C8
10D0
1D50
6168
027C
0444
083C
ENDCHAR
STARTCHAR b2f5
ENCODING 45813
SWIDTH 84 0
DWIDTH 14 0
BBX 14 14 0 -2
BITMAP
0040
17FC
1040
13F8
7EA8
12A8
13F8
1040
17FC
18C8
6350
0D20
01D0
060C
ENDCHAR
STARTCHAR b2f6
ENCODING 45814
SWIDTH 84 0
DWIDTH 14 0
BBX 14 14 0 -2
BITMAP
0000
03F8
7A08
0AE8
12A8
12A8
3AA8
0AA8
4AE8
2A08
13F8
1A08
2600
41FC
ENDCHAR
STARTCHAR b2f7
ENCODING 45815
SWIDTH 84 0
DWIDTH 14 0
BBX 14 14 0 -2
BITMAP
1040
1040
1040
13F8
3848
3448
3448
53FC
1060
10A0
1090
1110
1208
1404
ENDCHAR
STARTCHAR b2f8
ENCODING 45816
SWIDTH 84 0
DWIDTH 14 0
BBX 14 14 0 -2
BITMAP
1000
17F8
1110
10A0
38C0
3730
344C
5040
13F8
1040
1040
1040
17FC
1000
ENDCHAR
STARTCHAR b2f9
ENCODING 45817
SWIDTH 84 0
DWIDTH 14 0
BBX 14 14 0 -2
BITMAP
1100
1100
11FC
1A00
35F0
3550
3150
57FC
1250
1250
17FC
1410
1010
1060
ENDCHAR
STARTCHAR b2fa
ENCODING 45818
SWIDTH 84 0
DWIDTH 14 0
BBX 14 14 0 -2
BITMAP
1000
13FC
1200
1220
3A28
36A8
36B0
52A0
1320
1220
1250
1490
1B08
1C04
ENDCHAR
STARTCHAR b2fb
ENCODING 45819
SWIDTH 84 0
DWIDTH 14 0
BBX 14 14 0 -2
BITMAP
1040
17FC
1040
1BF8
36A8
36A8
33F8
5040
17FC
10C8
1350
1D20
11D0
160C
ENDCHAR
STARTCHAR b2fc
ENCODING 45820
SWIDTH 84 0
DWIDTH 14 0
BBX 14 14 0 -2
BITMAP
0090
0088
0088
7FFC
0080
1288
1288
1250
7FD0
1220
1224
2254
228C
4104
ENDCHAR
STARTCHAR b2fd
ENCODING 45821
SWIDTH 84 0
DWIDTH 14 0
BBX 14 14 0 -2
BITMAP
1000
13F8
1208
7E08
13F8
1208
1000
1FF8
7088
1088
1088
1108
1208
3430
ENDCHAR
STARTCHAR b2fe
ENCODING 45822
SWIDTH 84 0
DWIDTH 14 0
BBX 14 14 0 -2
BITMAP
0080
7C80
0480
04FC
0510
7D90
4690
4050
4060
4420
4460
3C90
0308
0C04
ENDCHAR
STARTCHAR b3a1
ENCODING 45985
SWIDTH 84 0
DWIDTH 14 0
BBX 14 14 0 -2
BITMAP
0890
1050
3E50
2B10
3E90
2A90
3E1C
2DF0
0D10
0D10
1690
17D4
2404
43FC
ENDCHAR
STARTCHAR b3a2
ENCODING 45986
SWIDTH 84 0
DWIDTH 14 0
BBX 14 14 0 -2
BITMAP
0100
0100
79FC
4A00
4DF0
4950
7950
4FFC
4A50
4A50
7BFC
4A10
4010
0060
ENDCHAR
STARTCHAR b3a3
ENCODING 45987
SWIDTH 84 0
DWIDTH 14 0
BBX 14 14 0 -2
BITMAP
1020
1028
1024
7FFC
1020
12A8
3AA8
36A8
37F0
5290
5294
14AC
184C
1084
ENDCHAR
STARTCHAR b3a4
ENCODING 45988
SWIDTH 84 0
DWIDTH 14 0
BBX 14 14 0 -2
BITMAP
1100
0900
0BFC
4200
25F0
2150
0150
1FFC
1250
1250
27FC
2410
4010
4060
ENDCHAR
STARTCHAR b3a5
ENCODING 45989
SWIDTH 84 0
DWIDTH 14 0
BBX 14 14 0 -2
BITMAP
0000
1FFC
1000
1080
1088
1288
1290
14A0
1080
1140
2140
2220
4C10
300C
ENDCHAR
STARTCHAR b3a6
ENCODING 45990
SWIDTH 84 0
DWIDTH 14 0
BBX 14 14 0 -2
BITMAP
0000
1FF0
1110
1FF0
1110
1FF0
1110
0280
0C60
745C
0440
0440
0840
3040
ENDCHAR
STARTCHAR b3a7
ENCODING 45991
SWIDTH 84 0
DWIDTH 14 0
BBX 14 14 0 -2
BITMAP
1080
1098
1FE0
1084
1084
1D7C
6200
0FE0
0820
0FE0
0820
0820
0FE0
0820
ENDCHAR
STARTCHAR b3a8
ENCODING 45992
SWIDTH 84 0
DWIDTH 14 0
BBX 14 14 0 -2
BITMAP
0820
0820
0A50
7250
1488
0D74
1200
7E00
09FC
2C40
2A50
2A98
49E4
0804
ENDCHAR
STARTCHAR b3a9
ENCODING 45993
SWIDTH 84 0
DWIDTH 14 0
BBX 14 14 0 -2
BITMAP
0440
0440
7FFC
0440
0540
0280
0440
1C70
644C
0440
0840
0840
1040
2040
ENDCHAR
STARTCHAR b3aa
ENCODING 45994
SWIDTH 84 0
DWIDTH 14 0
BBX 14 14 0 -2
BITMAP
1000
1DF8
2848
7E98
2BA0
3EF8
2B20
3FFC
2320
5FF0
1110
1FF0
01F0
3F08
ENDCHAR
STARTCHAR b3ab
ENCODING 45995
SWIDTH 84 0
DWIDTH 14 0
BBX 14 14 0 -2
BITMAP
0000
3EF8
2288
3EF8
2288
3EF8
2008
2FE8
2288
3FF8
2288
2488
2888
2018
ENDCHAR
STARTCHAR b3ac
ENCODING 45996
SWIDTH 84 0
DWIDTH 14 0
BBX 14 14 0 -2
BITMAP
0120
3D24
25F8
2920
3124
29BC
2640
25F8
2508
25F8
3908
2108
21F8
2108
ENDCHAR
STARTCHAR b3ad
ENCODING 45997
SWIDTH 84 0
DWIDTH 14 0
BBX 14 14 0 -2
BITMAP
0000
1FF0
1010
1010
1FF0
1010
1010
1FF0
1010
1010
1FF0
0440
1830
6008
ENDCHAR
STARTCHAR b3ae
ENCODING 45998
SWIDTH 84 0
DWIDTH 14 0
BBX 14 14 0 -2
BITMAP
0800
2AF0
2A90
3E90
0090
7E90
0090
3E90
2290
3E90
2490
1494
1F14
620C
ENDCHAR
STARTCHAR b3af
ENCODING 45999
SWIDTH 84 0
DWIDTH 14 0
BBX 14 14 0 -2
BITMAP
0840
0840
7F40
1040
15F8
6448
1848
0A48
1248
2448
0C88
1288
2108
4230
ENDCHAR
STARTCHAR b3b0
ENCODING 46000
SWIDTH 84 0
DWIDTH 14 0
BBX 14 14 0 -2
BITMAP
0840
0840
0840
0F40
09C0
1140
1960
2658
4244
0440
0440
0840
1040
2040
ENDCHAR
STARTCHAR b3b1
ENCODING 46001
SWIDTH 84 0
DWIDTH 14 0
BBX 14 14 0 -2
BITMAP
0040
0040
7FFC
4840
4A48
4990
48A0
4848
4890
7B20
4860
4090
0308
0C04
ENDCHAR
STARTCHAR b3b2
ENCODING 46002
SWIDTH 84 0
DWIDTH 14 0
BBX 14 14 0 -2
BITMAP
0100
3FFC
2108
5FF0
0100
1FF0
0100
7FFC
0000
0FE0
0820
0820
0FE0
0820
ENDCHAR
STARTCHAR b3b3
ENCODING 46003
SWIDTH 84 0
DWIDTH 14 0
BBX 14 14 0 -2
BITMAP
0100
1110
1FF0
0000
1FFC
1080
17F0
1080
1FF8
1080
27F0
2080
5FFC
0000
ENDCHAR
STARTCHAR b3b4
ENCODING 46004
SWIDTH 84 0
DWIDTH 14 0
BBX 14 14 0 -2
BITMAP
1000
17F8
1550
1550
3F50
3D50
35FC
5710
1530
14B0
15D0
1654
1C94
110C
ENDCHAR
STARTCHAR b3b5
ENCODING 46005
SWIDTH 84 0
DWIDTH 14 0
BBX 14 14 0 -2
BITMAP
1000
17FC
1510
7D50
1750
1550
3DFC
3730
3630
5530
55D0
16D4
1C94
110C
ENDCHAR
STARTCHAR b3b6
ENCODING 46006
SWIDTH 84 0
DWIDTH 14 0
BBX 14 14 0 -2
BITMAP
1000
0BFC
0A20
4220
22F8
2220
03FC
0220
1220
12F8
2420
2420
4BFC
4000
ENDCHAR
STARTCHAR b3b7
ENCODING 46007
SWIDTH 84 0
DWIDTH 14 0
BBX 14 14 0 -2
BITMAP
0000
7DF8
1108
11F8
1108
3DF8
2400
65F8
2410
27FC
3D10
2090
2090
0030
ENDCHAR
STARTCHAR b3b8
ENCODING 46008
SWIDTH 84 0
DWIDTH 14 0
BBX 14 14 0 -2
BITMAP
0440
7FFC
0540
1FF0
0100
7FFC
0240
3FF0
0008
1FF0
1290
1290
7FFC
0000
ENDCHAR
STARTCHAR b3b9
ENCODING 46009
SWIDTH 84 0
DWIDTH 14 0
BBX 14 14 0 -2
BITMAP
1100
113C
27C0
4900
0900
17FC
1108
3108
57C8
1108
1108
11C8
1608
1018
ENDCHAR
STARTCHAR b3ba
ENCODING 46010
SWIDTH 84 0
DWIDTH 14 0
BBX 14 14 0 -2
BITMAP
0040
3C40
03FC
7C40
0050
3D90
00A0
3C68
0048
3C90
2530
2448
3D84
2604
ENDCHAR
STARTCHAR b3bb
ENCODING 46011
SWIDTH 84 0
DWIDTH 14 0
BBX 14 14 0 -2
BITMAP
0820
08A8
14A8
12F8
2200
5DFC
0800
7EF8
0888
2AF8
1C88
1850
0FFC
7000
ENDCHAR
STARTCHAR b3bc
ENCODING 46012
SWIDTH 84 0
DWIDTH 14 0
BBX 14 14 0 -2
BITMAP
0020
3E20
23FC
2E40
2A50
7F90
42A0
7E68
2248
3E90
2230
3E48
2284
2704
ENDCHAR
STARTCHAR b3bd
ENCODING 46013
SWIDTH 84 0
DWIDTH 14 0
BBX 14 14 0 -2
BITMAP
1000
0BF8
0A48
4248
23F8
2248
0248
0BF8
0840
0BF8
1040
1040
27FC
2000
ENDCHAR
STARTCHAR b3be
ENCODING 46014
SWIDTH 84 0
DWIDTH 14 0
BBX 14 14 0 -2
BITMAP
0870
7F54
3E9C
3EF0
2A50
3E70
27CC
4100
7FFC
0540
1FF0
67CC
0440
07C0
ENDCHAR
STARTCHAR b3bf
ENCODING 46015
SWIDTH 84 0
DWIDTH 14 0
BBX 14 14 0 -2
BITMAP
0820
0820
0820
3EF8
2A20
2A20
2BFC
3E20
2A20
0CF8
0A20
0E20
73FC
0000
ENDCHAR
STARTCHAR b3c0
ENCODING 46016
SWIDTH 84 0
DWIDTH 14 0
BBX 14 14 0 -2
BITMAP
0000
17FC
1000
11F0
7D10
1110
11F0
1110
1510
19F0
6110
0000
0FFC
0000
ENDCHAR
STARTCHAR b3c1
ENCODING 46017
SWIDTH 84 0
DWIDTH 14 0
BBX 14 14 0 -2
BITMAP
0820
0820
0820
7FFC
0820
1820
1DFC
1B24
2B24
2924
4924
092C
0820
0820
ENDCHAR
STARTCHAR b3c2
ENCODING 46018
SWIDTH 84 0
DWIDTH 14 0
BBX 14 14 0 -2
BITMAP
0800
08FC
0880
3E80
2AFC
2AA0
2AA0
3EBC
2AA4
0CA4
0B44
0F44
7284
0118
ENDCHAR
STARTCHAR b3c3
ENCODING 46019
SWIDTH 84 0
DWIDTH 14 0
BBX 14 14 0 -2
BITMAP
0880
0880
1480
12F8
2308
5E48
0848
7EC8
08A8
2BD8
1C08
1808
0E08
7030
ENDCHAR
STARTCHAR b3c4
ENCODING 46020
SWIDTH 84 0
DWIDTH 14 0
BBX 14 14 0 -2
BITMAP
0808
3F48
0948
7FC8
0948
3F48
3F48
7FC8
3F48
2948
3F48
3F08
0708
7818
ENDCHAR
STARTCHAR b3c5
ENCODING 46021
SWIDTH 84 0
DWIDTH 14 0
BBX 14 14 0 -2
BITMAP
0210
0210
7FFC
5210
5210
5FFC
5528
5568
5DEC
7DAC
556C
4948
0948
1398
ENDCHAR
STARTCHAR b3c6
ENCODING 46022
SWIDTH 84 0
DWIDTH 14 0
BBX 14 14 0 -2
BITMAP
0200
0200
07F0
0C20
1240
2180
0340
0C30
7FEC
0820
0820
0820
0FE0
0820
ENDCHAR
STARTCHAR b3c7
ENCODING 46023
SWIDTH 84 0
DWIDTH 14 0
BBX 14 14 0 -2
BITMAP
0080
1FFC
1100
1FFC
1024
17A8
14B0
17A8
1024
17A4
21A4
2F38
4120
0320
ENDCHAR
STARTCHAR b3c8
ENCODING 46024
SWIDTH 84 0
DWIDTH 14 0
BBX 14 14 0 -2
BITMAP
1020
1020
11FC
7D00
1120
1120
1120
1D20
7120
1150
1248
127C
1784
3804
ENDCHAR
STARTCHAR b3c9
ENCODING 46025
SWIDTH 84 0
DWIDTH 14 0
BBX 14 14 0 -2
BITMAP
1288
1150
13FC
7E08
15F0
1110
11F0
1D10
71F0
1110
11F0
10A4
1124
361C
ENDCHAR
STARTCHAR b3ca
ENCODING 46026
SWIDTH 84 0
DWIDTH 14 0
BBX 14 14 0 -2
BITMAP
0840
0840
0878
7E88
0950
1820
1C50
1A88
2BFC
2888
4888
0888
08F8
0888
ENDCHAR
STARTCHAR b3cb
ENCODING 46027
SWIDTH 84 0
DWIDTH 14 0
BBX 14 14 0 -2
BITMAP
0820
0820
09FC
7E20
0948
1C88
1A50
1A20
2848
2990
4830
0848
0984
0E04
ENDCHAR
STARTCHAR b3cc
ENCODING 46028
SWIDTH 84 0
DWIDTH 14 0
BBX 14 14 0 -2
BITMAP
0800
0870
7F50
0854
3E54
008C
3F00
22F8
5C88
1450
1450
1620
24D0
430C
ENDCHAR
STARTCHAR b3cd
ENCODING 46029
SWIDTH 84 0
DWIDTH 14 0
BBX 14 14 0 -2
BITMAP
0910
4FFC
3130
11FC
3320
4DF8
09F8
1920
29FC
4BF8
0890
0860
30F0
170C
ENDCHAR
STARTCHAR b3ce
ENCODING 46030
SWIDTH 84 0
DWIDTH 14 0
BBX 14 14 0 -2
BITMAP
0040
7E40
11FC
1148
1290
3CA0
25FC
6720
25F8
2520
3DF8
2520
21FC
0100
ENDCHAR
STARTCHAR b3cf
ENCODING 46031
SWIDTH 84 0
DWIDTH 14 0
BBX 14 14 0 -2
BITMAP
0490
0BFC
70B0
11FC
1320
7DF8
11F8
1920
35FC
37F8
5090
1060
10F0
170C
ENDCHAR
STARTCHAR b3d0
ENCODING 46032
SWIDTH 84 0
DWIDTH 14 0
BBX 14 14 0 -2
BITMAP
1210
0920
3FFC
2008
4FE0
0820
0FE0
0820
0FE0
0820
0FE0
0284
0C84
707C
ENDCHAR
STARTCHAR b3d1
ENCODING 46033
SWIDTH 84 0
DWIDTH 14 0
BBX 14 14 0 -2
BITMAP
0200
07E0
1880
6100
1FF0
1110
1FF0
1110
1110
1FF0
1010
1010
2010
4030
ENDCHAR
STARTCHAR b3d2
ENCODING 46034
SWIDTH 84 0
DWIDTH 14 0
BBX 14 14 0 -2
BITMAP
0820
0820
3EF8
0820
0820
7FFC
1450
36D0
35D8
5554
1654
2490
2490
4D30
ENDCHAR
STARTCHAR b3d3
ENCODING 46035
SWIDTH 84 0
DWIDTH 14 0
BBX 14 14 0 -2
BITMAP
0820
0820
7F20
09FC
3E50
2A88
3F94
2A90
3E50
0860
7F20
0850
0888
0904
ENDCHAR
STARTCHAR b3d4
ENCODING 46036
SWIDTH 84 0
DWIDTH 14 0
BBX 14 14 0 -2
BITMAP
0400
7FF8
0048
1F50
1150
1F60
0050
3F48
0244
0744
7C64
0458
0440
0C40
ENDCHAR
STARTCHAR b3d5
ENCODING 46037
SWIDTH 84 0
DWIDTH 14 0
BBX 14 14 0 -2
BITMAP
0000
3EF8
2288
3EF8
2288
3EF8
23C8
2E48
2188
22C8
3FF8
2448
27C8
2458
ENDCHAR
STARTCHAR b3d6
ENCODING 46038
SWIDTH 84 0
DWIDTH 14 0
BBX 14 14 0 -2
BITMAP
0000
3FF8
2400
29F0
2910
31F0
2800
27F8
26A8
2738
3AF8
2248
2248
2258
ENDCHAR
STARTCHAR b3d7
ENCODING 46039
SWIDTH 84 0
DWIDTH 14 0
BBX 14 14 0 -2
BITMAP
0440
0440
7FFC
0440
07C0
0100
1FF0
1110
1FF0
0100
7FFC
0100
0100
0100
ENDCHAR
STARTCHAR b3d8
ENCODING 46040
SWIDTH 84 0
DWIDTH 14 0
BBX 14 14 0 -2
BITMAP
1210
0910
0920
3FFC
2008
4FE0
0040
0080
0100
7FFC
0100
0100
0100
0300
ENDCHAR
STARTCHAR b3d9
ENCODING 46041
SWIDTH 84 0
DWIDTH 14 0
BBX 14 14 0 -2
BITMAP
0020
00C0
0F00
0800
0FF8
0840
0840
7FFC
0100
1110
1110
1110
1FF0
1010
ENDCHAR
STARTCHAR b3da
ENCODING 46042
SWIDTH 84 0
DWIDTH 14 0
BBX 14 14 0 -2
BITMAP
0100
2208
17C8
1450
07E0
1C58
67C4
0100
7FFC
0380
0540
1930
610C
0100
ENDCHAR
STARTCHAR b3db
ENCODING 46043
SWIDTH 84 0
DWIDTH 14 0
BBX 14 14 0 -2
BITMAP
0800
09FC
3F20
2940
4EF8
1288
34F8
0C88
12F8
3F88
52F8
1250
1E88
1304
ENDCHAR
STARTCHAR b3dc
ENCODING 46044
SWIDTH 84 0
DWIDTH 14 0
BBX 14 14 0 -2
BITMAP
0000
77FC
5520
5540
77F8
0088
3EF8
0088
7FF8
1088
1EF8
2250
0288
0F04
ENDCHAR
STARTCHAR b3dd
ENCODING 46045
SWIDTH 84 0
DWIDTH 14 0
BBX 14 14 0 -2
BITMAP
1110
1110
17D0
7910
1110
17F8
1914
1114
37F0
5110
1110
11D0
1E10
3010
ENDCHAR
STARTCHAR b3de
ENCODING 46046
SWIDTH 84 0
DWIDTH 14 0
BBX 14 14 0 -2
BITMAP
1040
1040
1FFC
18A0
2510
4510
0100
3FF8
0020
0820
0440
0480
7FFC
0000
ENDCHAR
STARTCHAR b3df
ENCODING 46047
SWIDTH 84 0
DWIDTH 14 0
BBX 14 14 0 -2
BITMAP
1000
13F8
12A8
7FE8
1250
13D0
3AA8
37C4
3440
53F8
5040
1040
17FC
1000
ENDCHAR
STARTCHAR b3e0
ENCODING 46048
SWIDTH 84 0
DWIDTH 14 0
BBX 14 14 0 -2
BITMAP
1000
17FC
11F0
7D50
11F0
1950
35F0
37F8
31F0
5150
51F0
1150
11F0
17FC
ENDCHAR
STARTCHAR b3e1
ENCODING 46049
SWIDTH 84 0
DWIDTH 14 0
BBX 14 14 0 -2
BITMAP
0800
09F8
0908
7FF8
0908
19F0
1D40
1BF8
2B40
29FC
4940
0A44
0A44
0C3C
ENDCHAR
STARTCHAR b3e2
ENCODING 46050
SWIDTH 84 0
DWIDTH 14 0
BBX 14 14 0 -2
BITMAP
0830
09D0
1E90
2494
7EB4
2BF4
3EB8
2AD0
3FF0
05A8
3AA8
2EC8
28C4
4084
ENDCHAR
STARTCHAR b3e3
ENCODING 46051
SWIDTH 84 0
DWIDTH 14 0
BBX 14 14 0 -2
BITMAP
1080
0B38
0A08
43B8
2208
23F8
0100
13FC
1624
2A94
2554
4544
4804
4018
ENDCHAR
STARTCHAR b3e4
ENCODING 46052
SWIDTH 84 0
DWIDTH 14 0
BBX 14 14 0 -2
BITMAP
0808
7F48
4948
7F48
0848
3E48
0848
7F48
0048
3E48
2248
2208
3E08
2218
ENDCHAR
STARTCHAR b3e5
ENCODING 46053
SWIDTH 84 0
DWIDTH 14 0
BBX 14 14 0 -2
BITMAP
0000
03F0
7A10
4BF0
4A10
4BF0
4880
49F8
4E68
7B88
4A08
4228
01E8
0030
ENDCHAR
STARTCHAR b3e6
ENCODING 46054
SWIDTH 84 0
DWIDTH 14 0
BBX 14 14 0 -2
BITMAP
1040
1040
10A0
18A0
3510
37F8
3404
5000
11F0
1110
1110
1110
11F0
1110
ENDCHAR
STARTCHAR b3e7
ENCODING 46055
SWIDTH 84 0
DWIDTH 14 0
BBX 14 14 0 -2
BITMAP
1008
1030
13C0
7C40
1040
17FC
1040
1C40
73F8
1208
1208
1208
13F8
3208
ENDCHAR
STARTCHAR b3e8
ENCODING 46056
SWIDTH 84 0
DWIDTH 14 0
BBX 14 14 0 -2
BITMAP
1008
0830
0BC0
4040
2040
27FC
0040
1040
13F8
1208
2208
2208
43F8
4208
ENDCHAR
STARTCHAR b3e9
ENCODING 46057
SWIDTH 84 0
DWIDTH 14 0
BBX 14 14 0 -2
BITMAP
1000
0BF0
0A10
43F0
2210
23F0
0100
13F8
1648
1B88
2208
2228
41E8
4030
ENDCHAR
STARTCHAR b3ea
ENCODING 46058
SWIDTH 84 0
DWIDTH 14 0
BBX 14 14 0 -2
BITMAP
1000
0BF0
0A10
42F0
2290
27FC
0404
17F8
1A10
13F0
2210
23F0
4210
4230
ENDCHAR
STARTCHAR b3eb
ENCODING 46059
SWIDTH 84 0
DWIDTH 14 0
BBX 14 14 0 -2
BITMAP
0440
7FFC
0440
0FE0
0820
0FE0
0820
0FE0
07F8
18C8
6F08
0848
07C8
0070
ENDCHAR
STARTCHAR b3ec
ENCODING 46060
SWIDTH 84 0
DWIDTH 14 0
BBX 14 14 0 -2
BITMAP
1000
11F0
1110
7DF0
0910
0BF0
1480
19F8
3728
55C8
1108
1128
10E8
1030
ENDCHAR
STARTCHAR b3ed
ENCODING 46061
SWIDTH 84 0
DWIDTH 14 0
BBX 14 14 0 -2
BITMAP
0820
0820
7FFC
0924
3FF8
2A20
3EF8
2A20
3FFC
0800
7FF8
0888
08F8
0888
ENDCHAR
STARTCHAR b3ee
ENCODING 46062
SWIDTH 84 0
DWIDTH 14 0
BBX 14 14 0 -2
BITMAP
0000
0FE0
0820
0820
0820
0FE0
0820
0820
0FE0
0820
0820
0820
7FFC
0000
ENDCHAR
STARTCHAR b3ef
ENCODING 46063
SWIDTH 84 0
DWIDTH 14 0
BBX 14 14 0 -2
BITMAP
0800
09FC
1F44
25F4
7F28
2BE8
3F54
2BE4
3E20
04F8
3A20
2E20
29FC
4000
ENDCHAR
STARTCHAR b3f0
ENCODING 46064
SWIDTH 84 0
DWIDTH 14 0
BBX 14 14 0 -2
BITMAP
0040
0040
7840
4840
4840
4FFC
4840
4840
4840
7840
4840
4040
0040
0040
ENDCHAR
STARTCHAR b3f1
ENCODING 46065
SWIDTH 84 0
DWIDTH 14 0
BBX 14 14 0 -2
BITMAP
0890
0890
0BFC
7E90
0840
1C64
1AA4
1BA8
29B0
2AA0
48A0
08A4
08A4
089C
ENDCHAR
STARTCHAR b3f2
ENCODING 46066
SWIDTH 84 0
DWIDTH 14 0
BBX 14 14 0 -2
BITMAP
1110
1110
17FC
7D10
13F8
1950
37FC
3550
33F8
5040
57FC
1040
1040
1040
ENDCHAR
STARTCHAR b3f3
ENCODING 46067
SWIDTH 84 0
DWIDTH 14 0
BBX 14 14 0 -2
BITMAP
1440
1440
7FF8
1488
1DE8
0828
3E28
2AE8
3EB0
0880
7F80
0884
0884
087C
ENDCHAR
STARTCHAR b3f4
ENCODING 46068
SWIDTH 84 0
DWIDTH 14 0
BBX 14 14 0 -2
BITMAP
0820
08A0
08A0
7FF8
0920
1A20
1FFC
1A60
2A70
28B0
4928
0A24
0820
0820
ENDCHAR
STARTCHAR b3f5
ENCODING 46069
SWIDTH 84 0
DWIDTH 14 0
BBX 14 14 0 -2
BITMAP
0080
0900
37F8
2448
27C8
2448
37D8
2008
0480
0480
0480
0884
1084
607C
ENDCHAR
STARTCHAR b3f6
ENCODING 46070
SWIDTH 84 0
DWIDTH 14 0
BBX 14 14 0 -2
BITMAP
0100
3FFC
2D48
77F8
3FF8
0FE0
0FE0
0920
0FE0
1FF0
1FF0
1114
1FF4
10FC
ENDCHAR
STARTCHAR b3f7
ENCODING 46071
SWIDTH 84 0
DWIDTH 14 0
BBX 14 14 0 -2
BITMAP
0440
0440
7FFC
0450
1048
0FFC
4840
23F8
2A48
0BF8
1248
13F8
2248
2258
ENDCHAR
STARTCHAR b3f8
ENCODING 46072
SWIDTH 84 0
DWIDTH 14 0
BBX 14 14 0 -2
BITMAP
0240
0C30
3248
0180
02C0
0C30
7FEC
0100
1FF0
0920
0520
0540
7FFC
0000
ENDCHAR
STARTCHAR b3f9
ENCODING 46073
SWIDTH 84 0
DWIDTH 14 0
BBX 14 14 0 -2
BITMAP
1110
10A0
1BFC
24A0
27F8
78A8
13FC
7CA8
13F8
54A8
39B0
32A8
1CA4
60A0
ENDCHAR
STARTCHAR b3fa
ENCODING 46074
SWIDTH 84 0
DWIDTH 14 0
BBX 14 14 0 -2
BITMAP
0040
0140
7978
4940
4FFC
4B58
4AD8
4AE8
4BF8
7AE8
4B58
4248
03F8
0208
ENDCHAR
STARTCHAR b3fb
ENCODING 46075
SWIDTH 84 0
DWIDTH 14 0
BBX 14 14 0 -2
BITMAP
0020
7C40
55F0
5510
7DF0
5510
55F0
7DFC
5500
11FC
1154
12AC
1284
1418
ENDCHAR
STARTCHAR b3fc
ENCODING 46076
SWIDTH 84 0
DWIDTH 14 0
BBX 14 14 0 -2
BITMAP
0800
0BFC
0820
7E40
09F8
1908
1D08
1B08
2BF8
2908
4908
0908
09F8
0908
ENDCHAR
STARTCHAR b3fd
ENCODING 46077
SWIDTH 84 0
DWIDTH 14 0
BBX 14 14 0 -2
BITMAP
0440
0440
7FFC
0440
1FF0
04C0
0300
7FFC
0118
0360
0500
1900
6100
0300
ENDCHAR
STARTCHAR b3fe
ENCODING 46078
SWIDTH 84 0
DWIDTH 14 0
BBX 14 14 0 -2
BITMAP
0440
7FFC
0540
3FFC
2008
7FF8
0FE0
0820
0FE0
0820
0FE0
0000
7FFC
0000
ENDCHAR
STARTCHAR b4a1
ENCODING 46241
SWIDTH 84 0
DWIDTH 14 0
BBX 14 14 0 -2
BITMAP
0100
7138
1948
1548
75B8
4120
4FE0
7138
53A8
1348
1548
1908
1108
6130
ENDCHAR
STARTCHAR b4a2
ENCODING 46242
SWIDTH 84 0
DWIDTH 14 0
BBX 14 14 0 -2
BITMAP
0208
0248
0248
2248
1248
0C48
0448
0648
0A48
0948
1148
1008
2008
4018
ENDCHAR
STARTCHAR b4a3
ENCODING 46243
SWIDTH 84 0
DWIDTH 14 0
BBX 14 14 0 -2
BITMAP
0440
0440
7FFC
0440
0440
0208
2248
1248
0C48
0448
0C48
1248
2208
4018
ENDCHAR
STARTCHAR b4a4
ENCODING 46244
SWIDTH 84 0
DWIDTH 14 0
BBX 14 14 0 -2
BITMAP
0000
7FFC
0400
0400
07C0
0440
0440
0640
0940
0940
0840
09C4
0E44
703C
ENDCHAR
STARTCHAR b4a5
ENCODING 46245
SWIDTH 84 0
DWIDTH 14 0
BBX 14 14 0 -2
BITMAP
0880
0880
7FFC
0880
3F00
22F8
3E10
2220
3E40
0840
7F80
0884
0884
087C
ENDCHAR
STARTCHAR b4a6
ENCODING 46246
SWIDTH 84 0
DWIDTH 14 0
BBX 14 14 0 -2
BITMAP
0800
0BF8
0A08
1208
1208
33F8
5000
1290
1290
1290
1290
1494
1494
180C
ENDCHAR
STARTCHAR b4a7
ENCODING 46247
SWIDTH 84 0
DWIDTH 14 0
BBX 14 14 0 -2
BITMAP
0000
3FFC
2008
7E10
0010
01FC
7F10
1490
1490
1410
1410
2434
2404
43FC
ENDCHAR
STARTCHAR b4a8
ENCODING 46248
SWIDTH 84 0
DWIDTH 14 0
BBX 14 14 0 -2
BITMAP
0100
3FFC
2448
7FF8
0440
1FF0
0440
7FFC
0440
1B30
608C
0600
0180
0040
ENDCHAR
STARTCHAR b4a9
ENCODING 46249
SWIDTH 84 0
DWIDTH 14 0
BBX 14 14 0 -2
BITMAP
0008
7F48
0848
0848
0848
0848
7F48
0848
0848
0848
0848
0808
0808
0818
ENDCHAR
STARTCHAR b4aa
ENCODING 46250
SWIDTH 84 0
DWIDTH 14 0
BBX 14 14 0 -2
BITMAP
1240
1240
7F40
12F8
1E48
1248
1E48
1248
7FC8
2C48
2D48
3388
3F88
2130
ENDCHAR
STARTCHAR b4ab
ENCODING 46251
SWIDTH 84 0
DWIDTH 14 0
BBX 14 14 0 -2
BITMAP
1040
1040
3F40
28F8
5F48
1448
3F48
6448
3F48
2448
3F48
2488
3F88
2130
ENDCHAR
STARTCHAR b4ac
ENCODING 46252
SWIDTH 84 0
DWIDTH 14 0
BBX 14 14 0 -2
BITMAP
1110
0910
0920
3FF8
0280
7FFC
0440
1FF0
604C
0FC0
0840
0808
0808
07F8
ENDCHAR
STARTCHAR b4ad
ENCODING 46253
SWIDTH 84 0
DWIDTH 14 0
BBX 14 14 0 -2
BITMAP
0080
00F0
7920
4A40
4FF8
4AA8
4AA8
4AB8
4B28
7A48
4FFC
40A0
0318
0C04
ENDCHAR
STARTCHAR b4ae
ENCODING 46254
SWIDTH 84 0
DWIDTH 14 0
BBX 14 14 0 -2
BITMAP
0110
17FC
1110
11F0
7D10
11F0
1110
17FC
12A0
1AA8
6318
0200
03FC
0200
ENDCHAR
STARTCHAR b4af
ENCODING 46255
SWIDTH 84 0
DWIDTH 14 0
BBX 14 14 0 -2
BITMAP
0100
0100
3FF8
0440
0E80
03C0
1C30
0820
7FFC
1248
34D0
0C30
1A68
6184
ENDCHAR
STARTCHAR b4b0
ENCODING 46256
SWIDTH 84 0
DWIDTH 14 0
BBX 14 14 0 -2
BITMAP
0100
0100
3FFC
2008
4FE0
0000
0000
7FFC
0480
0480
0480
0884
1084
607C
ENDCHAR
STARTCHAR b4b1
ENCODING 46257
SWIDTH 84 0
DWIDTH 14 0
BBX 14 14 0 -2
BITMAP
0100
0100
3FFC
2008
4FE0
0820
0820
0FE0
0800
0FF0
0810
0810
0FF0
0810
ENDCHAR
STARTCHAR b4b2
ENCODING 46258
SWIDTH 84 0
DWIDTH 14 0
BBX 14 14 0 -2
BITMAP
0100
3FFC
2448
7FF8
0440
0FE0
0820
0FE0
0FE0
0820
0FE0
0284
0C84
707C
ENDCHAR
STARTCHAR b4b3
ENCODING 46259
SWIDTH 84 0
DWIDTH 14 0
BBX 14 14 0 -2
BITMAP
0000
3FF8
0100
0100
0100
0100
7FFC
0100
0100
0100
0100
0100
0100
0100
ENDCHAR
STARTCHAR b4b4
ENCODING 46260
SWIDTH 84 0
DWIDTH 14 0
BBX 14 14 0 -2
BITMAP
0820
0820
7F50
0888
3F04
22F8
3E20
2220
3FFC
0820
7F20
0820
0820
0820
ENDCHAR
STARTCHAR b4b5
ENCODING 46261
SWIDTH 84 0
DWIDTH 14 0
BBX 14 14 0 -2
BITMAP
0100
0FE0
0920
0FE0
0100
1FF0
1110
1FF0
0100
1490
1488
2424
4424
03E0
ENDCHAR
STARTCHAR b4b6
ENCODING 46262
SWIDTH 84 0
DWIDTH 14 0
BBX 14 14 0 -2
BITMAP
0090
0088
1FFC
1088
1F48
1050
2F20
2954
4F8C
0104
2488
24A4
4424
03E0
ENDCHAR
STARTCHAR b4b7
ENCODING 46263
SWIDTH 84 0
DWIDTH 14 0
BBX 14 14 0 -2
BITMAP
1000
11F8
1148
17FC
3A50
37F0
37F8
5208
13F8
13F8
1208
13F8
1198
1604
ENDCHAR
STARTCHAR b4b8
ENCODING 46264
SWIDTH 84 0
DWIDTH 14 0
BBX 14 14 0 -2
BITMAP
1028
13FC
1220
1BE8
3628
37D0
3354
55EC
1884
1150
1548
1514
1914
10F0
ENDCHAR
STARTCHAR b4b9
ENCODING 46265
SWIDTH 84 0
DWIDTH 14 0
BBX 14 14 0 -2
BITMAP
1080
10F0
1120
7FF8
12A8
12A8
1338
1A58
7040
17FC
1040
10A0
1110
360C
ENDCHAR
STARTCHAR b4ba
ENCODING 46266
SWIDTH 84 0
DWIDTH 14 0
BBX 14 14 0 -2
BITMAP
0040
3F40
0440
0440
7FFC
1288
1F88
1250
1E50
1320
1E20
6250
0288
0304
ENDCHAR
STARTCHAR b4bb
ENCODING 46267
SWIDTH 84 0
DWIDTH 14 0
BBX 14 14 0 -2
BITMAP
0888
0888
0888
7FFC
0888
1888
1C88
1AF8
2A88
2888
4888
0888
08F8
0888
ENDCHAR
STARTCHAR b4bc
ENCODING 46268
SWIDTH 84 0
DWIDTH 14 0
BBX 14 14 0 -2
BITMAP
0800
09FC
0800
7EF8
0888
1888
1CF8
1A88
2A88
28F8
4888
0800
0BFC
0800
ENDCHAR
STARTCHAR b4bd
ENCODING 46269
SWIDTH 84 0
DWIDTH 14 0
BBX 14 14 0 -2
BITMAP
0840
0840
0BFC
7E08
09F0
1910
1D10
1BF0
2B00
29F8
4908
0908
09F8
0908
ENDCHAR
STARTCHAR b4be
ENCODING 46270
SWIDTH 84 0
DWIDTH 14 0
BBX 14 14 0 -2
BITMAP
0840
0840
7F40
0840
3EFC
00A8
3F30
0020
7F20
0C60
2A50
2A90
4908
1A04
ENDCHAR
STARTCHAR b4bf
ENCODING 46271
SWIDTH 84 0
DWIDTH 14 0
BBX 14 14 0 -2
BITMAP
1040
1040
1F40
2840
7FFC
14A8
1F30
3420
5F20
1420
1F50
1450
1F88
1104
ENDCHAR
STARTCHAR b4c0
ENCODING 46272
SWIDTH 84 0
DWIDTH 14 0
BBX 14 14 0 -2
BITMAP
1000
0BF8
0840
4040
2040
2040
07FC
0840
0840
0840
1040
1040
2040
2040
ENDCHAR
STARTCHAR b4c1
ENCODING 46273
SWIDTH 84 0
DWIDTH 14 0
BBX 14 14 0 -2
BITMAP
1120
0920
0FFC
4120
23F8
2248
03F8
1040
13F8
1040
27FC
20A0
4110
460C
ENDCHAR
STARTCHAR b4c2
ENCODING 46274
SWIDTH 84 0
DWIDTH 14 0
BBX 14 14 0 -2
BITMAP
2000
1F78
1948
4F78
2948
2F78
0808
0BE8
1A28
1BE8
2A28
2BE8
4A28
4818
ENDCHAR
STARTCHAR b4c3
ENCODING 46275
SWIDTH 84 0
DWIDTH 14 0
BBX 14 14 0 -2
BITMAP
1100
0900
0BF8
4280
27FC
2920
03FC
1220
17F8
2A20
23F8
4220
43FC
4200
ENDCHAR
STARTCHAR b4c4
ENCODING 46276
SWIDTH 84 0
DWIDTH 14 0
BBX 14 14 0 -2
BITMAP
0000
03F8
7EA8
13F8
1000
17FC
7DF0
1110
11F8
14C8
19B0
6690
008C
0080
ENDCHAR
STARTCHAR b4c5
ENCODING 46277
SWIDTH 84 0
DWIDTH 14 0
BBX 14 14 0 -2
BITMAP
0820
0820
0820
0820
7FFC
0820
0820
0820
0FE0
0820
0820
0820
0FE0
0820
ENDCHAR
STARTCHAR b4c6
ENCODING 46278
SWIDTH 84 0
DWIDTH 14 0
BBX 14 14 0 -2
BITMAP
0040
3F40
2440
3EFC
2280
3F00
2478
3F00
2000
1FF0
1290
1290
7FFC
0000
ENDCHAR
STARTCHAR b4c7
ENCODING 46279
SWIDTH 84 0
DWIDTH 14 0
BBX 14 14 0 -2
BITMAP
0030
1FC0
0200
3FF8
0200
7FFC
0400
07F0
0C10
0FF0
1410
27F0
4410
07F0
ENDCHAR
STARTCHAR b4c8
ENCODING 46280
SWIDTH 84 0
DWIDTH 14 0
BBX 14 14 0 -2
BITMAP
1040
1040
1FFC
28A0
2510
4210
3FF8
0100
0100
7FFC
0100
0100
0100
0100
ENDCHAR
STARTCHAR b4c9
ENCODING 46281
SWIDTH 84 0
DWIDTH 14 0
BBX 14 14 0 -2
BITMAP
1040
1FFC
29A0
4510
3FFC
2008
4FE0
0820
0FE0
0800
0FF0
0810
0FF0
0810
ENDCHAR
STARTCHAR b4ca
ENCODING 46282
SWIDTH 84 0
DWIDTH 14 0
BBX 14 14 0 -2
BITMAP
1040
1FFC
28A0
4510
3EF8
2288
3EF8
2288
3FF8
2448
27C8
2448
27C8
2418
ENDCHAR
STARTCHAR b4cb
ENCODING 46283
SWIDTH 84 0
DWIDTH 14 0
BBX 14 14 0 -2
BITMAP
081C
09E4
0AA8
7250
17FC
0C40
13FC
7E40
0C78
2AC8
2AB0
2930
4AC8
0B04
ENDCHAR
STARTCHAR b4cc
ENCODING 46284
SWIDTH 84 0
DWIDTH 14 0
BBX 14 14 0 -2
BITMAP
0800
0800
0800
1FF8
1100
2100
7FFC
0100
1110
1110
1110
1110
1FF0
1010
ENDCHAR
STARTCHAR b4cd
ENCODING 46285
SWIDTH 84 0
DWIDTH 14 0
BBX 14 14 0 -2
BITMAP
0840
0840
7FA0
0890
3F08
23FC
3E48
2368
3ED8
08D8
7F68
0968
0848
08D8
ENDCHAR
STARTCHAR b4ce
ENCODING 46286
SWIDTH 84 0
DWIDTH 14 0
BBX 14 14 0 -2
BITMAP
0000
3FF8
2440
2440
2440
3C40
27FC
2440
3C40
2440
2440
2440
2440
4C40
ENDCHAR
STARTCHAR b4cf
ENCODING 46287
SWIDTH 84 0
DWIDTH 14 0
BBX 14 14 0 -2
BITMAP
0810
11F0
3D50
25FC
3530
2DE0
2D5C
7FE0
2400
2DF8
2D68
2D68
2568
4FFC
ENDCHAR
STARTCHAR b4d0
ENCODING 46288
SWIDTH 84 0
DWIDTH 14 0
BBX 14 14 0 -2
BITMAP
0440
0440
7FFC
0440
0100
3FFC
2008
4FE0
0000
3FFC
0280
0484
1884
607C
ENDCHAR
STARTCHAR b4d1
ENCODING 46289
SWIDTH 84 0
DWIDTH 14 0
BBX 14 14 0 -2
BITMAP
1000
10F8
3E88
4888
7FF8
1488
3FF8
6888
3EF8
2850
3E50
2894
3F14
220C
ENDCHAR
STARTCHAR b4d2
ENCODING 46290
SWIDTH 84 0
DWIDTH 14 0
BBX 14 14 0 -2
BITMAP
0040
3C40
03FC
7C40
01F8
3D48
01F8
3D48
01F8
3CE0
2550
2648
3C44
2440
ENDCHAR
STARTCHAR b4d3
ENCODING 46291
SWIDTH 84 0
DWIDTH 14 0
BBX 14 14 0 -2
BITMAP
0000
0FE0
0920
7FFC
1240
1FE0
0820
0FE0
0820
0FE0
0820
0FE0
0660
3818
ENDCHAR
STARTCHAR b4d4
ENCODING 46292
SWIDTH 84 0
DWIDTH 14 0
BBX 14 14 0 -2
BITMAP
0000
27F8
1528
17F8
0000
0FFC
73F0
1210
13F8
10C8
17B0
1888
2680
41FC
ENDCHAR
STARTCHAR b4d5
ENCODING 46293
SWIDTH 84 0
DWIDTH 14 0
BBX 14 14 0 -2
BITMAP
1010
13D0
1A90
27DC
2660
7BC0
129C
7FC0
1200
55F8
3968
3168
1FFC
6000
ENDCHAR
STARTCHAR b4d6
ENCODING 46294
SWIDTH 84 0
DWIDTH 14 0
BBX 14 14 0 -2
BITMAP
0000
3EF8
2288
3EF8
2288
3EF8
2008
27C8
2448
27C8
2448
27C8
2448
2018
ENDCHAR
STARTCHAR b4d7
ENCODING 46295
SWIDTH 84 0
DWIDTH 14 0
BBX 14 14 0 -2
BITMAP
0000
3EF8
2288
3EF8
2288
3EF8
2108
2108
2FE8
2388
2548
2928
2108
2018
ENDCHAR
STARTCHAR b4d8
ENCODING 46296
SWIDTH 84 0
DWIDTH 14 0
BBX 14 14 0 -2
BITMAP
0000
3EF8
2288
3EF8
2288
3EF8
2448
2288
27C8
2108
2FE8
2288
2448
2818
ENDCHAR
STARTCHAR b4d9
ENCODING 46297
SWIDTH 84 0
DWIDTH 14 0
BBX 14 14 0 -2
BITMAP
0040
3C40
24F8
2890
3110
2A20
2578
2548
2548
2578
3948
2148
2178
2148
ENDCHAR
STARTCHAR b4da
ENCODING 46298
SWIDTH 84 0
DWIDTH 14 0
BBX 14 14 0 -2
BITMAP
0820
08F8
7E28
09FC
3E00
22F8
3E88
22F8
3E10
08F8
7E90
09FC
0810
0810
ENDCHAR
STARTCHAR b4db
ENCODING 46299
SWIDTH 84 0
DWIDTH 14 0
BBX 14 14 0 -2
BITMAP
0820
0820
15FC
1B08
28F0
7E90
2290
3EF0
2280
3EF8
2488
2688
39F8
6088
ENDCHAR
STARTCHAR b4dc
ENCODING 46300
SWIDTH 84 0
DWIDTH 14 0
BBX 14 14 0 -2
BITMAP
0820
0820
15FC
1308
22F0
7E90
0890
7EF0
0880
3EF8
2288
2288
3EF8
2288
ENDCHAR
STARTCHAR b4dd
ENCODING 46301
SWIDTH 84 0
DWIDTH 14 0
BBX 14 14 0 -2
BITMAP
0200
0200
0200
0200
7FC0
0240
0240
1A40
0640
0540
08C4
1044
2044
403C
ENDCHAR
STARTCHAR b4de
ENCODING 46302
SWIDTH 84 0
DWIDTH 14 0
BBX 14 14 0 -2
BITMAP
0100
0100
0280
0440
1FF0
600C
1FE0
0040
0080
1FF0
1010
1010
1FF0
1010
ENDCHAR
STARTCHAR b4df
ENCODING 46303
SWIDTH 84 0
DWIDTH 14 0
BBX 14 14 0 -2
BITMAP
0100
1110
1110
1FF0
0000
1FFC
1000
17F0
1080
1080
2FF8
2080
4080
0080
ENDCHAR
STARTCHAR b4e0
ENCODING 46304
SWIDTH 84 0
DWIDTH 14 0
BBX 14 14 0 -2
BITMAP
0100
1108
1FF8
0910
3FFC
2F20
2220
3FBC
2948
2FA8
2F10
2FB0
3948
4184
ENDCHAR
STARTCHAR b4e1
ENCODING 46305
SWIDTH 84 0
DWIDTH 14 0
BBX 14 14 0 -2
BITMAP
0000
01F8
7C00
1000
1000
13FC
7CA0
10A0
10A0
1120
1D20
6224
0424
081C
ENDCHAR
STARTCHAR b4e2
ENCODING 46306
SWIDTH 84 0
DWIDTH 14 0
BBX 14 14 0 -2
BITMAP
0080
0FFC
0800
49F0
2910
29F0
0FBC
1CA4
2FBC
4C44
1248
1248
23F8
4208
ENDCHAR
STARTCHAR b4e3
ENCODING 46307
SWIDTH 84 0
DWIDTH 14 0
BBX 14 14 0 -2
BITMAP
0000
79F0
4910
4910
79F0
4910
4910
79F8
4948
4950
7920
4950
4188
0604
ENDCHAR
STARTCHAR b4e4
ENCODING 46308
SWIDTH 84 0
DWIDTH 14 0
BBX 14 14 0 -2
BITMAP
0100
1110
1110
1FF0
0000
7FFC
0400
0400
0FF0
0C10
1410
2410
47F0
0410
ENDCHAR
STARTCHAR b4e5
ENCODING 46309
SWIDTH 84 0
DWIDTH 14 0
BBX 14 14 0 -2
BITMAP
0000
7FF8
4C80
2A80
1B80
6CFC
19B0
0830
3F30
2130
3F50
2154
3F94
210C
ENDCHAR
STARTCHAR b4e6
ENCODING 46310
SWIDTH 84 0
DWIDTH 14 0
BBX 14 14 0 -2
BITMAP
0000
1FFC
1290
14FC
1DF8
16F8
14FC
13F0
13F0
13F0
2210
23F0
4330
1C0C
ENDCHAR
STARTCHAR b4e7
ENCODING 46311
SWIDTH 84 0
DWIDTH 14 0
BBX 14 14 0 -2
BITMAP
0000
1FFC
1248
1250
14FC
1490
1D90
16F8
1490
14F8
2490
2490
44FC
0480
ENDCHAR
STARTCHAR b4e8
ENCODING 46312
SWIDTH 84 0
DWIDTH 14 0
BBX 14 14 0 -2
BITMAP
0000
01FC
3E20
0040
00F8
7F88
14F8
1488
14F8
1588
23F8
2050
4188
0604
ENDCHAR
STARTCHAR b4e9
ENCODING 46313
SWIDTH 84 0
DWIDTH 14 0
BBX 14 14 0 -2
BITMAP
0800
09FC
7F20
2240
14F8
3F88
24F8
2888
32F8
2488
39F8
2250
4C88
3304
ENDCHAR
STARTCHAR b4ea
ENCODING 46314
SWIDTH 84 0
DWIDTH 14 0
BBX 14 14 0 -2
BITMAP
0000
3FFC
2210
2420
2F78
2948
2F78
2948
2F78
2648
2D78
3530
4448
0D84
ENDCHAR
STARTCHAR b4eb
ENCODING 46315
SWIDTH 84 0
DWIDTH 14 0
BBX 14 14 0 -2
BITMAP
0100
0100
0280
0440
1930
610C
0100
0900
09F0
0900
0900
0900
7FFC
0000
ENDCHAR
STARTCHAR b4ec
ENCODING 46316
SWIDTH 84 0
DWIDTH 14 0
BBX 14 14 0 -2
BITMAP
0840
0840
0840
17FC
1040
3040
53F8
1108
1110
1090
10A0
1040
11B0
160C
ENDCHAR
STARTCHAR b4ed
ENCODING 46317
SWIDTH 84 0
DWIDTH 14 0
BBX 14 14 0 -2
BITMAP
0200
07E0
18C0
6100
1FFC
1000
13F0
1210
1210
1210
1260
2204
2204
41FC
ENDCHAR
STARTCHAR b4ee
ENCODING 46318
SWIDTH 84 0
DWIDTH 14 0
BBX 14 14 0 -2
BITMAP
0100
7FFC
0100
1FF0
0000
0FE0
0820
0FE0
0440
7FFC
0000
1FF0
1010
1FF0
ENDCHAR
STARTCHAR b4ef
ENCODING 46319
SWIDTH 84 0
DWIDTH 14 0
BBX 14 14 0 -2
BITMAP
0000
1EF0
1290
1290
1EF0
0100
7FFC
0440
1830
7EFC
1290
1290
1EF0
1290
ENDCHAR
STARTCHAR b4f0
ENCODING 46320
SWIDTH 84 0
DWIDTH 14 0
BBX 14 14 0 -2
BITMAP
0440
7FFC
0440
07C0
0440
07C0
0440
7FFC
0920
1FF0
610C
0100
3FF8
0000
ENDCHAR
STARTCHAR b4f1
ENCODING 46321
SWIDTH 84 0
DWIDTH 14 0
BBX 14 14 0 -2
BITMAP
0100
0100
3FF8
0280
0440
1820
7FFC
0010
1F10
1110
1110
1F10
1110
0030
ENDCHAR
STARTCHAR b4f2
ENCODING 46322
SWIDTH 84 0
DWIDTH 14 0
BBX 14 14 0 -2
BITMAP
1040
17FC
1040
13F8
7DF8
2508
25F8
2490
7BFC
4800
0DF8
1508
21F8
4108
ENDCHAR
STARTCHAR b4f3
ENCODING 46323
SWIDTH 84 0
DWIDTH 14 0
BBX 14 14 0 -2
BITMAP
0100
0100
3FFC
2108
5FF8
0240
0C20
7FFC
0010
1F10
1110
1F10
1110
0030
ENDCHAR
STARTCHAR b4f4
ENCODING 46324
SWIDTH 84 0
DWIDTH 14 0
BBX 14 14 0 -2
BITMAP
0040
1040
1040
17FC
5440
5440
57F8
5508
5490
7C90
4460
4060
0190
060C
ENDCHAR
STARTCHAR b4f5
ENCODING 46325
SWIDTH 84 0
DWIDTH 14 0
BBX 14 14 0 -2
BITMAP
0620
01C0
0760
3910
0200
7FFC
0480
0FF8
1888
2888
4888
0888
08B0
0080
ENDCHAR
STARTCHAR b4f6
ENCODING 46326
SWIDTH 84 0
DWIDTH 14 0
BBX 14 14 0 -2
BITMAP
1120
1528
65C8
1930
0D30
1348
7FFC
0110
3FFC
0890
0CA0
1244
21B4
460C
ENDCHAR
STARTCHAR b4f7
ENCODING 46327
SWIDTH 84 0
DWIDTH 14 0
BBX 14 14 0 -2
BITMAP
0000
1FE0
0020
0020
1FE0
1020
1008
0FF8
0100
1490
1488
2424
4424
03E0
ENDCHAR
STARTCHAR b4f8
ENCODING 46328
SWIDTH 84 0
DWIDTH 14 0
BBX 14 14 0 -2
BITMAP
1000
13FC
1248
7FF8
1040
13F8
1248
1FF8
7248
13F8
1040
17FC
1040
3040
ENDCHAR
STARTCHAR b4f9
ENCODING 46329
SWIDTH 84 0
DWIDTH 14 0
BBX 14 14 0 -2
BITMAP
0800
08F0
0890
7F90
0890
1C90
1A90
1A90
2890
2890
4910
0914
0A14
0C0C
ENDCHAR
STARTCHAR b4fa
ENCODING 46330
SWIDTH 84 0
DWIDTH 14 0
BBX 14 14 0 -2
BITMAP
1080
1080
11FC
7E90
13FC
1090
1CF0
1490
14F0
1490
27FC
2450
4488
1B04
ENDCHAR
STARTCHAR b4fb
ENCODING 46331
SWIDTH 84 0
DWIDTH 14 0
BBX 14 14 0 -2
BITMAP
0000
3EFC
2250
2250
3E50
2250
23FC
3E30
2830
2450
2650
3A94
6114
020C
ENDCHAR
STARTCHAR b4fc
ENCODING 46332
SWIDTH 84 0
DWIDTH 14 0
BBX 14 14 0 -2
BITMAP
1200
1278
1248
7FC8
1278
1E48
1248
1E78
1248
7FC8
1448
1288
2288
4118
ENDCHAR
STARTCHAR b4fd
ENCODING 46333
SWIDTH 84 0
DWIDTH 14 0
BBX 14 14 0 -2
BITMAP
0890
0890
0890
7FFC
0890
1CF0
1A90
1AF0
2890
2BFC
4890
0888
0904
0A04
ENDCHAR
STARTCHAR b4fe
ENCODING 46334
SWIDTH 84 0
DWIDTH 14 0
BBX 14 14 0 -2
BITMAP
0100
7FFC
0240
1FE0
0930
7FFC
0920
0FE0
0100
7FFC
0380
0D60
711C
0100
ENDCHAR
STARTCHAR b5a1
ENCODING 46497
SWIDTH 84 0
DWIDTH 14 0
BBX 14 14 0 -2
BITMAP
1148
1148
16F4
7ED4
1148
1AD4
37FC
3450
33FC
5228
5328
1490
143C
18C4
ENDCHAR
STARTCHAR b5a2
ENCODING 46498
SWIDTH 84 0
DWIDTH 14 0
BBX 14 14 0 -2
BITMAP
0800
0BF8
0808
09F8
2808
2BF8
2800
4FFC
0C44
0BF8
0A48
1248
1258
2040
ENDCHAR
STARTCHAR b5a3
ENCODING 46499
SWIDTH 84 0
DWIDTH 14 0
BBX 14 14 0 -2
BITMAP
0800
0870
3F50
1250
0C54
7F94
190C
6DF8
1648
6D50
1530
6430
04C8
1B04
ENDCHAR
STARTCHAR b5a4
ENCODING 46500
SWIDTH 84 0
DWIDTH 14 0
BBX 14 14 0 -2
BITMAP
0800
0800
1FF8
1000
2FE0
4000
3FE0
0120
0120
1A20
0614
0514
180C
6004
ENDCHAR
STARTCHAR b5a5
ENCODING 46501
SWIDTH 84 0
DWIDTH 14 0
BBX 14 14 0 -2
BITMAP
1100
0900
0BF8
4200
25F0
2000
07F0
0010
0810
0810
1014
100C
200C
2004
ENDCHAR
STARTCHAR b5a6
ENCODING 46502
SWIDTH 84 0
DWIDTH 14 0
BBX 14 14 0 -2
BITMAP
1120
1528
65C8
1930
1528
7FFC
02A4
7FFC
3E88
2A48
3E50
2A20
3E54
218C
ENDCHAR
STARTCHAR b5a7
ENCODING 46503
SWIDTH 84 0
DWIDTH 14 0
BBX 14 14 0 -2
BITMAP
0808
0830
08C0
7E80
0480
08FC
0C90
1A90
2A90
4890
0910
0910
0A10
0C10
ENDCHAR
STARTCHAR b5a8
ENCODING 46504
SWIDTH 84 0
DWIDTH 14 0
BBX 14 14 0 -2
BITMAP
0060
1F80
0100
7FFC
0380
0540
1930
6FEC
0040
0180
7FFC
0100
0100
0700
ENDCHAR
STARTCHAR b5a9
ENCODING 46505
SWIDTH 84 0
DWIDTH 14 0
BBX 14 14 0 -2
BITMAP
0210
0CD0
3830
09C8
0840
7FFC
08A0
1CF8
1BA8
2AA8
48A8
08B8
0820
0820
ENDCHAR
STARTCHAR b5aa
ENCODING 46506
SWIDTH 84 0
DWIDTH 14 0
BBX 14 14 0 -2
BITMAP
0800
08F8
0A08
7208
1408
0CF8
1288
7D80
0880
2C80
2A80
2A84
4884
087C
ENDCHAR
STARTCHAR b5ab
ENCODING 46507
SWIDTH 84 0
DWIDTH 14 0
BBX 14 14 0 -2
BITMAP
1220
1AA0
2AA0
4FA0
147C
1548
3DC8
6228
2528
3FB0
2A90
2B30
32C8
2284
ENDCHAR
STARTCHAR b5ac
ENCODING 46508
SWIDTH 84 0
DWIDTH 14 0
BBX 14 14 0 -2
BITMAP
0800
09F8
0908
3FF8
0908
09F8
7F08
09F8
09A8
08A0
1520
1524
2224
441C
ENDCHAR
STARTCHAR b5ad
ENCODING 46509
SWIDTH 84 0
DWIDTH 14 0
BBX 14 14 0 -2
BITMAP
0000
3EF8
0008
7F08
0008
3EF8
0088
3E80
0080
3E80
2280
2284
3E84
227C
ENDCHAR
STARTCHAR b5ae
ENCODING 46510
SWIDTH 84 0
DWIDTH 14 0
BBX 14 14 0 -2
BITMAP
0100
0FE0
0920
0FE0
7FFC
0FE0
0820
0FE0
0820
0FE0
0820
0FE0
0660
3818
ENDCHAR
STARTCHAR b5af
ENCODING 46511
SWIDTH 84 0
DWIDTH 14 0
BBX 14 14 0 -2
BITMAP
0800
08F8
3E08
0808
0808
7FF8
0888
2880
2F80
2884
3884
287C
2600
41FC
ENDCHAR
STARTCHAR b5b0
ENCODING 46512
SWIDTH 84 0
DWIDTH 14 0
BBX 14 14 0 -2
BITMAP
0840
0840
7F40
0870
3FD0
2A50
3E50
2A50
3E50
0850
7F90
0894
0914
0A0C
ENDCHAR
STARTCHAR b5b1
ENCODING 46513
SWIDTH 84 0
DWIDTH 14 0
BBX 14 14 0 -2
BITMAP
0800
09FC
4B28
2BFC
2C20
08F8
7FA8
14F8
14A8
15F8
1620
25FC
2020
4020
ENDCHAR
STARTCHAR b5b2
ENCODING 46514
SWIDTH 84 0
DWIDTH 14 0
BBX 14 14 0 -2
BITMAP
0800
08F0
1490
1A90
2890
7E90
2290
3E90
2290
3E90
2890
2514
3B14
620C
ENDCHAR
STARTCHAR b5b3
ENCODING 46515
SWIDTH 84 0
DWIDTH 14 0
BBX 14 14 0 -2
BITMAP
0020
3F20
29FC
3E20
2850
3E88
29FC
3E08
0AE8
3EA8
3EE8
32A8
4208
0C18
ENDCHAR
STARTCHAR b5b4
ENCODING 46516
SWIDTH 84 0
DWIDTH 14 0
BBX 14 14 0 -2
BITMAP
0100
0200
1FF0
1110
1FF0
1110
1FF0
1510
0520
0520
0950
09FC
1104
20FC
ENDCHAR
STARTCHAR b5b5
ENCODING 46517
SWIDTH 84 0
DWIDTH 14 0
BBX 14 14 0 -2
BITMAP
0200
03C0
0C80
7FE0
0920
0FE0
0FE0
1FF0
1110
1FF0
1110
1FF4
1104
00FC
ENDCHAR
STARTCHAR b5b6
ENCODING 46518
SWIDTH 84 0
DWIDTH 14 0
BBX 14 14 0 -2
BITMAP
0A40
0940
0940
17F0
1090
3090
51F8
1108
13FC
1554
1CAC
1284
1204
1018
ENDCHAR
STARTCHAR b5b7
ENCODING 46519
SWIDTH 84 0
DWIDTH 14 0
BBX 14 14 0 -2
BITMAP
0910
08A0
0FFC
1040
13F8
3040
57FC
13A8
1124
1FFC
11A8
1710
116C
1304
ENDCHAR
STARTCHAR b5b8
ENCODING 46520
SWIDTH 84 0
DWIDTH 14 0
BBX 14 14 0 -2
BITMAP
0820
0820
09FC
0820
7E20
13F8
1288
1288
3C50
2450
0620
0A50
1188
2204
ENDCHAR
STARTCHAR b5b9
ENCODING 46521
SWIDTH 84 0
DWIDTH 14 0
BBX 14 14 0 -2
BITMAP
0100
0100
3FFC
2008
4FC0
0840
0840
0FC0
0840
0FC0
0840
0840
7FFC
0000
ENDCHAR
STARTCHAR b5ba
ENCODING 46522
SWIDTH 84 0
DWIDTH 14 0
BBX 14 14 0 -2
BITMAP
0430
0728
0428
3FA0
273C
3DE0
2328
2A28
2AB0
3B10
3A34
2B4C
4C8C
3004
ENDCHAR
STARTCHAR b5bb
ENCODING 46523
SWIDTH 84 0
DWIDTH 14 0
BBX 14 14 0 -2
BITMAP
1040
1040
1040
7FFC
1040
1040
13F8
1D08
7090
1090
1060
1060
1190
360C
ENDCHAR
STARTCHAR b5bc
ENCODING 46524
SWIDTH 84 0
DWIDTH 14 0
BBX 14 14 0 -2
BITMAP
1400
15FC
1628
7C90
1390
127C
1398
1D50
77DC
1150
1350
12F0
1490
390C
ENDCHAR
STARTCHAR b5bd
ENCODING 46525
SWIDTH 84 0
DWIDTH 14 0
BBX 14 14 0 -2
BITMAP
1240
1240
1240
7F40
127C
1EA8
1330
1E20
1220
7F20
1250
1190
2108
4204
ENDCHAR
STARTCHAR b5be
ENCODING 46526
SWIDTH 84 0
DWIDTH 14 0
BBX 14 14 0 -2
BITMAP
0910
08A0
2BFC
2840
3DF8
2840
4BFC
0DE8
18A4
6FFC
08E8
0B94
08AC
09C4
ENDCHAR
STARTCHAR b5bf
ENCODING 46527
SWIDTH 84 0
DWIDTH 14 0
BBX 14 14 0 -2
BITMAP
2000
27F8
3890
2260
1E20
11FC
1E28
28B0
7EA0
08B8
14A0
1360
2230
440C
ENDCHAR
STARTCHAR b5c0
ENCODING 46528
SWIDTH 84 0
DWIDTH 14 0
BBX 14 14 0 -2
BITMAP
1008
1030
11E0
7D20
0520
0920
09FC
1920
3510
5514
1114
11CC
160C
1004
ENDCHAR
STARTCHAR b5c1
ENCODING 46529
SWIDTH 84 0
DWIDTH 14 0
BBX 14 14 0 -2
BITMAP
0440
3FF8
0100
1FF0
0100
7FFC
0690
3888
7FFC
0848
0E50
7824
08D4
1B0C
ENDCHAR
STARTCHAR b5c2
ENCODING 46530
SWIDTH 84 0
DWIDTH 14 0
BBX 14 14 0 -2
BITMAP
1090
13FC
1040
7DF8
5440
57FC
54A8
7FA4
53FC
18A8
14D8
1F94
60EC
0184
ENDCHAR
STARTCHAR b5c3
ENCODING 46531
SWIDTH 84 0
DWIDTH 14 0
BBX 14 14 0 -2
BITMAP
0040
3C40
03FC
7E08
03F0
3D10
0110
3DF0
0110
3DF0
2510
2510
3FFC
2000
ENDCHAR
STARTCHAR b5c4
ENCODING 46532
SWIDTH 84 0
DWIDTH 14 0
BBX 14 14 0 -2
BITMAP
0110
38A0
07FC
7840
03F8
3840
07FC
3BA8
0124
3FFC
29A8
2F14
396C
2B04
ENDCHAR
STARTCHAR b5c5
ENCODING 46533
SWIDTH 84 0
DWIDTH 14 0
BBX 14 14 0 -2
BITMAP
1100
1100
1100
7FF8
1288
14A8
12A8
1AC8
77F8
11C8
11A8
1298
1488
30B0
ENDCHAR
STARTCHAR b5c6
ENCODING 46534
SWIDTH 84 0
DWIDTH 14 0
BBX 14 14 0 -2
BITMAP
0440
0440
7FFC
0C40
0800
1FF8
1248
2A48
4A88
3FE8
0708
0AC8
3228
0230
ENDCHAR
STARTCHAR b5c7
ENCODING 46535
SWIDTH 84 0
DWIDTH 14 0
BBX 14 14 0 -2
BITMAP
1480
1480
7FF8
14C8
1D58
0B58
3EE8
2BF8
3EE8
08D8
7F58
0A48
0848
0830
ENDCHAR
STARTCHAR b5c8
ENCODING 46536
SWIDTH 84 0
DWIDTH 14 0
BBX 14 14 0 -2
BITMAP
0100
0100
0100
7FFC
0100
0100
3FF8
0000
1FF0
1010
1010
1010
1FF0
1010
ENDCHAR
STARTCHAR b5c9
ENCODING 46537
SWIDTH 84 0
DWIDTH 14 0
BBX 14 14 0 -2
BITMAP
0100
0100
0100
79FC
4A00
4A00
4DF0
4820
4840
7880
4900
4204
0204
01FC
ENDCHAR
STARTCHAR b5ca
ENCODING 46538
SWIDTH 84 0
DWIDTH 14 0
BBX 14 14 0 -2
BITMAP
0200
02F8
7FA8
5228
5FA8
5228
53C8
5E58
5080
7FFC
5080
4140
0630
180C
ENDCHAR
STARTCHAR b5cb
ENCODING 46539
SWIDTH 84 0
DWIDTH 14 0
BBX 14 14 0 -2
BITMAP
0840
0840
0840
7FFC
0840
1C40
1BF8
1A00
29F8
2908
4908
0908
09F8
0908
ENDCHAR
STARTCHAR b5cc
ENCODING 46540
SWIDTH 84 0
DWIDTH 14 0
BBX 14 14 0 -2
BITMAP
1000
13F0
10A0
7FFC
10C8
1B50
34C0
37F8
32A8
5338
52E8
12A8
12E8
1218
ENDCHAR
STARTCHAR b5cd
ENCODING 46541
SWIDTH 84 0
DWIDTH 14 0
BBX 14 14 0 -2
BITMAP
0040
3C40
0040
7FFC
0040
3C40
01F8
3C00
01F8
3D08
2508
2508
3DF8
2508
ENDCHAR
STARTCHAR b5ce
ENCODING 46542
SWIDTH 84 0
DWIDTH 14 0
BBX 14 14 0 -2
BITMAP
0020
3F20
0820
083C
0820
1020
1E20
32F8
5288
1288
1288
1E88
10F8
0088
ENDCHAR
STARTCHAR b5cf
ENCODING 46543
SWIDTH 84 0
DWIDTH 14 0
BBX 14 14 0 -2
BITMAP
0880
0880
0880
7FFC
0920
1A20
1C20
1BFC
2A20
2820
4820
0820
0820
0820
ENDCHAR
STARTCHAR b5d0
ENCODING 46544
SWIDTH 84 0
DWIDTH 14 0
BBX 14 14 0 -2
BITMAP
0030
1FC0
0100
7FFC
0380
0D60
711C
0380
0D60
793C
07C0
0D60
3118
0300
ENDCHAR
STARTCHAR b5d1
ENCODING 46545
SWIDTH 84 0
DWIDTH 14 0
BBX 14 14 0 -2
BITMAP
0800
0878
0848
3F48
0848
0848
7FC8
0848
0C48
1248
1370
7D40
0140
0040
ENDCHAR
STARTCHAR b5d2
ENCODING 46546
SWIDTH 84 0
DWIDTH 14 0
BBX 14 14 0 -2
BITMAP
0100
0100
3FFC
2208
47E0
0C40
3280
0380
0C70
7FEC
0820
0820
0FE0
0820
ENDCHAR
STARTCHAR b5d3
ENCODING 46547
SWIDTH 84 0
DWIDTH 14 0
BBX 14 14 0 -2
BITMAP
0100
3938
2928
2FE8
3928
2928
2FE8
3928
2928
2AA8
2AF8
2F20
2820
5820
ENDCHAR
STARTCHAR b5d4
ENCODING 46548
SWIDTH 84 0
DWIDTH 14 0
BBX 14 14 0 -2
BITMAP
0100
01F8
0100
1FFC
12E8
1F10
11F0
1000
17F8
1400
27F8
2400
47F8
0400
ENDCHAR
STARTCHAR b5d5
ENCODING 46549
SWIDTH 84 0
DWIDTH 14 0
BBX 14 14 0 -2
BITMAP
0210
2110
1120
17FC
0040
0248
0248
7248
13F8
1248
1040
1880
2700
41FC
ENDCHAR
STARTCHAR b5d6
ENCODING 46550
SWIDTH 84 0
DWIDTH 14 0
BBX 14 14 0 -2
BITMAP
0020
00C0
0F00
0800
0800
0FF8
0840
0840
0840
0840
0840
0840
7FFC
0000
ENDCHAR
STARTCHAR b5d7
ENCODING 46551
SWIDTH 84 0
DWIDTH 14 0
BBX 14 14 0 -2
BITMAP
0200
0200
0200
03E0
0420
0420
0840
1040
20C0
0120
0220
0410
1808
6004
ENDCHAR
STARTCHAR b5d8
ENCODING 46552
SWIDTH 84 0
DWIDTH 14 0
BBX 14 14 0 -2
BITMAP
0900
0900
0900
1100
11E0
3F20
5120
1120
1120
1120
1224
1224
1424
181C
ENDCHAR
STARTCHAR b5d9
ENCODING 46553
SWIDTH 84 0
DWIDTH 14 0
BBX 14 14 0 -2
BITMAP
0840
0840
0840
1040
17FC
3040
50E0
10E0
1150
1150
1248
1444
1040
1040
ENDCHAR
STARTCHAR b5da
ENCODING 46554
SWIDTH 84 0
DWIDTH 14 0
BBX 14 14 0 -2
BITMAP
0000
3FE0
0420
0440
0440
06F0
0A10
0910
0920
08A0
1040
10A0
2310
4C0C
ENDCHAR
STARTCHAR b5db
ENCODING 46555
SWIDTH 84 0
DWIDTH 14 0
BBX 14 14 0 -2
BITMAP
0000
07F0
7910
4920
4920
49F8
4988
4988
7A50
4A50
4220
0450
0988
1604
ENDCHAR
STARTCHAR b5dc
ENCODING 46556
SWIDTH 84 0
DWIDTH 14 0
BBX 14 14 0 -2
BITMAP
0100
0100
3FFC
2008
4FE0
0820
0820
0FE0
0100
1FF0
1010
1010
1FF0
1010
ENDCHAR
STARTCHAR b5dd
ENCODING 46557
SWIDTH 84 0
DWIDTH 14 0
BBX 14 14 0 -2
BITMAP
0000
1FF0
0010
0010
1FF0
1010
1000
1FF8
1008
1008
0008
0008
0010
00E0
ENDCHAR
STARTCHAR b5de
ENCODING 46558
SWIDTH 84 0
DWIDTH 14 0
BBX 14 14 0 -2
BITMAP
0200
07C0
0880
3FF0
0010
0FF0
0010
1FF0
0100
1490
1488
2424
4424
03E0
ENDCHAR
STARTCHAR b5df
ENCODING 46559
SWIDTH 84 0
DWIDTH 14 0
BBX 14 14 0 -2
BITMAP
0840
0A40
0940
7F7C
0888
4A88
2B50
2C50
1C30
1A20
2A30
4850
0888
1B04
ENDCHAR
STARTCHAR b5e0
ENCODING 46560
SWIDTH 84 0
DWIDTH 14 0
BBX 14 14 0 -2
BITMAP
0800
09FC
0840
7F40
0840
1CF8
1A88
1A88
2908
2808
4808
0808
0808
0830
ENDCHAR
STARTCHAR b5e1
ENCODING 46561
SWIDTH 84 0
DWIDTH 14 0
BBX 14 14 0 -2
BITMAP
0120
0110
0110
7FFC
0100
0188
3188
0950
0360
0520
1910
6108
0104
0300
ENDCHAR
STARTCHAR b5e2
ENCODING 46562
SWIDTH 84 0
DWIDTH 14 0
BBX 14 14 0 -2
BITMAP
2000
17F0
1210
4220
2220
2378
0308
1290
1290
1260
2420
2450
4888
5304
ENDCHAR
STARTCHAR b5e3
ENCODING 46563
SWIDTH 84 0
DWIDTH 14 0
BBX 14 14 0 -2
BITMAP
1040
0840
0840
47FC
2010
2210
0110
0910
0890
10A0
10A0
2040
27FC
2000
ENDCHAR
STARTCHAR b5e4
ENCODING 46564
SWIDTH 84 0
DWIDTH 14 0
BBX 14 14 0 -2
BITMAP
0100
03C0
0C80
3180
0240
0D30
710C
0110
1110
12A0
2240
0420
1810
600C
ENDCHAR
STARTCHAR b5e5
ENCODING 46565
SWIDTH 84 0
DWIDTH 14 0
BBX 14 14 0 -2
BITMAP
0050
0048
7C48
13FC
1040
1248
7D68
1170
1050
14D0
1948
6644
0040
00C0
ENDCHAR
STARTCHAR b5e6
ENCODING 46566
SWIDTH 84 0
DWIDTH 14 0
BBX 14 14 0 -2
BITMAP
0100
0100
3FFC
2488
4480
0488
0978
1100
3FC0
0240
0240
0444
0844
303C
ENDCHAR
STARTCHAR b5e7
ENCODING 46567
SWIDTH 84 0
DWIDTH 14 0
BBX 14 14 0 -2
BITMAP
0100
3FFC
2488
4890
1470
1EF0
1210
1EF0
1E80
12F8
7E88
0608
1A08
6630
ENDCHAR
STARTCHAR b5e8
ENCODING 46568
SWIDTH 84 0
DWIDTH 14 0
BBX 14 14 0 -2
BITMAP
0840
0840
1FFC
14A0
2310
5FE0
0420
0440
06F0
0A10
0920
10C0
2360
4C1C
ENDCHAR
STARTCHAR b5e9
ENCODING 46569
SWIDTH 84 0
DWIDTH 14 0
BBX 14 14 0 -2
BITMAP
0800
08F8
0A88
7290
1490
0CB8
12C8
7EC8
08A8
2CB0
2A90
2B30
4948
0A84
ENDCHAR
STARTCHAR b5ea
ENCODING 46570
SWIDTH 84 0
DWIDTH 14 0
BBX 14 14 0 -2
BITMAP
0810
0890
0A90
7290
1490
0C90
1290
7D90
089C
2CF0
2B90
2A10
4810
0810
ENDCHAR
STARTCHAR b5eb
ENCODING 46571
SWIDTH 84 0
DWIDTH 14 0
BBX 14 14 0 -2
BITMAP
0820
0820
0A50
7250
1488
0DFC
1200
7E00
08F8
2C88
2A88
2A88
48F8
0888
ENDCHAR
STARTCHAR b5ec
ENCODING 46572
SWIDTH 84 0
DWIDTH 14 0
BBX 14 14 0 -2
BITMAP
2000
27F0
2410
2410
2410
2410
27F0
2410
2410
2410
2410
27F0
2410
2000
ENDCHAR
STARTCHAR b5ed
ENCODING 46573
SWIDTH 84 0
DWIDTH 14 0
BBX 14 14 0 -2
BITMAP
0100
0900
0900
0900
1FF0
1100
2100
0100
7FFC
0100
0100
0100
0100
0100
ENDCHAR
STARTCHAR b5ee
ENCODING 46574
SWIDTH 84 0
DWIDTH 14 0
BBX 14 14 0 -2
BITMAP
0100
0100
0100
1FF0
0100
0100
0100
7FFC
0200
0240
0420
08F0
3F08
0008
ENDCHAR
STARTCHAR b5ef
ENCODING 46575
SWIDTH 84 0
DWIDTH 14 0
BBX 14 14 0 -2
BITMAP
0000
1FF8
1008
1FF8
1088
1080
1FFC
1080
1080
17F0
2410
2410
47F0
0410
ENDCHAR
STARTCHAR b5f0
ENCODING 46576
SWIDTH 84 0
DWIDTH 14 0
BBX 14 14 0 -2
BITMAP
0000
3FF8
2000
2000
3FE0
2020
2020
2020
3FE0
2020
2000
2000
3FFC
2000
ENDCHAR
STARTCHAR b5f1
ENCODING 46577
SWIDTH 84 0
DWIDTH 14 0
BBX 14 14 0 -2
BITMAP
0800
09FC
0900
7F00
09F8
0908
0908
0F08
79F8
0908
0900
0900
09FC
1900
ENDCHAR
STARTCHAR b5f2
ENCODING 46578
SWIDTH 84 0
DWIDTH 14 0
BBX 14 14 0 -2
BITMAP
1000
1270
1250
7A50
1750
1550
1550
1B50
7290
1294
1514
190C
10C0
303C
ENDCHAR
STARTCHAR b5f3
ENCODING 46579
SWIDTH 84 0
DWIDTH 14 0
BBX 14 14 0 -2
BITMAP
1210
0910
0920
7FFC
0440
0860
1F98
6104
1FF0
0100
3FF8
0100
0100
0300
ENDCHAR
STARTCHAR b5f4
ENCODING 46580
SWIDTH 84 0
DWIDTH 14 0
BBX 14 14 0 -2
BITMAP
1000
0BF8
4A00
23F0
2210
0BF0
0A00
13F8
2100
7FFC
0380
0D60
711C
0100
ENDCHAR
STARTCHAR b5f5
ENCODING 46581
SWIDTH 84 0
DWIDTH 14 0
BBX 14 14 0 -2
BITMAP
0100
01F8
0100
1FFC
11E8
1F08
11F8
1140
1948
1548
2550
2140
5FFC
0000
ENDCHAR
STARTCHAR b5f6
ENCODING 46582
SWIDTH 84 0
DWIDTH 14 0
BBX 14 14 0 -2
BITMAP
0080
3C80
0080
7FF8
0140
3E40
0040
3FFC
0040
3C40
2440
2440
3C40
2440
ENDCHAR
STARTCHAR b5f7
ENCODING 46583
SWIDTH 84 0
DWIDTH 14 0
BBX 14 14 0 -2
BITMAP
0000
3EFC
2280
2280
3EF8
0888
2888
2E88
28F8
2888
2880
2E80
38FC
6080
ENDCHAR
STARTCHAR b5f8
ENCODING 46584
SWIDTH 84 0
DWIDTH 14 0
BBX 14 14 0 -2
BITMAP
0800
09F8
1508
1308
23F8
5D20
09FC
7F20
0920
2BF8
1D88
1988
0EF8
7088
ENDCHAR
STARTCHAR b5f9
ENCODING 46585
SWIDTH 84 0
DWIDTH 14 0
BBX 14 14 0 -2
BITMAP
1080
0880
09F0
4120
2240
27F8
0248
13F8
1248
13F8
2000
2548
44A4
48A4
ENDCHAR
STARTCHAR b5fa
ENCODING 46586
SWIDTH 84 0
DWIDTH 14 0
BBX 14 14 0 -2
BITMAP
1200
13F8
2D28
4FE8
1128
35E8
5528
15F8
1E20
1FF0
0000
7FFC
1930
630C
ENDCHAR
STARTCHAR b5fb
ENCODING 46587
SWIDTH 84 0
DWIDTH 14 0
BBX 14 14 0 -2
BITMAP
0400
07C0
0880
1100
3FF0
5110
1FF0
1110
1110
1FF0
0000
2488
2244
4244
ENDCHAR
STARTCHAR b5fc
ENCODING 46588
SWIDTH 84 0
DWIDTH 14 0
BBX 14 14 0 -2
BITMAP
0100
7FFC
0000
0FE0
0820
0FE0
0000
1FE0
0040
0180
0100
0100
0100
0300
ENDCHAR
STARTCHAR b5fd
ENCODING 46589
SWIDTH 84 0
DWIDTH 14 0
BBX 14 14 0 -2
BITMAP
0100
7FFC
0000
0FE0
0820
0FE0
0000
1FE0
0040
0180
7FFC
0100
0100
0300
ENDCHAR
STARTCHAR b5fe
ENCODING 46590
SWIDTH 84 0
DWIDTH 14 0
BBX 14 14 0 -2
BITMAP
0100
0100
7FFC
0000
0FE0
0820
0820
0FE0
0100
0920
0910
1108
2108
0300
ENDCHAR
STARTCHAR b6a1
ENCODING 46753
SWIDTH 84 0
DWIDTH 14 0
BBX 14 14 0 -2
BITMAP
0920
0920
0920
1120
17F8
3120
5120
1120
1FFC
1000
1120
1110
1208
1408
ENDCHAR
STARTCHAR b6a2
ENCODING 46754
SWIDTH 84 0
DWIDTH 14 0
BBX 14 14 0 -2
BITMAP
0840
0840
0840
17FC
1248
3148
5150
1FFC
1040
10A0
10A0
1110
1208
1404
ENDCHAR
STARTCHAR b6a3
ENCODING 46755
SWIDTH 84 0
DWIDTH 14 0
BBX 14 14 0 -2
BITMAP
0830
0BC0
0880
1FFC
1120
33F0
5528
19E4
17F8
1408
15E8
1528
15E8
1418
ENDCHAR
STARTCHAR b6a4
ENCODING 46756
SWIDTH 84 0
DWIDTH 14 0
BBX 14 14 0 -2
BITMAP
0080
2090
2D10
2310
2290
2490
2810
3FF0
2490
0480
0880
0884
1084
607C
ENDCHAR
STARTCHAR b6a5
ENCODING 46757
SWIDTH 84 0
DWIDTH 14 0
BBX 14 14 0 -2
BITMAP
0820
0820
3FF8
1450
1450
7FFC
0000
3EF8
2288
3EF8
1450
1550
2694
450C
ENDCHAR
STARTCHAR b6a6
ENCODING 46758
SWIDTH 84 0
DWIDTH 14 0
BBX 14 14 0 -2
BITMAP
0440
0440
0440
0440
3FF8
0440
0440
0440
7FFC
0000
0440
0420
0810
3010
ENDCHAR
STARTCHAR b6a7
ENCODING 46759
SWIDTH 84 0
DWIDTH 14 0
BBX 14 14 0 -2
BITMAP
0040
0040
4048
5888
4688
4108
4188
4248
4428
4828
5008
7FF8
4008
4008
ENDCHAR
STARTCHAR b6a8
ENCODING 46760
SWIDTH 84 0
DWIDTH 14 0
BBX 14 14 0 -2
BITMAP
1040
1040
13F8
1048
7C88
1108
1230
1210
1FFC
1294
1294
14A4
14A4
19CC
ENDCHAR
STARTCHAR b6a9
ENCODING 46761
SWIDTH 84 0
DWIDTH 14 0
BBX 14 14 0 -2
BITMAP
0000
3FFC
2000
2FF8
2080
2080
27F0
2080
2080
2080
2FF8
2000
3FFC
2000
ENDCHAR
STARTCHAR b6aa
ENCODING 46762
SWIDTH 84 0
DWIDTH 14 0
BBX 14 14 0 -2
BITMAP
0800
33B8
22A8
2AA8
2BA8
2AA8
2AA8
2BA8
2A28
3B28
6AA8
13F0
1620
2020
ENDCHAR
STARTCHAR b6ab
ENCODING 46763
SWIDTH 84 0
DWIDTH 14 0
BBX 14 14 0 -2
BITMAP
0010
0010
7910
4910
4910
4910
4910
4910
491C
79F0
4F10
4010
0010
0010
ENDCHAR
STARTCHAR b6ac
ENCODING 46764
SWIDTH 84 0
DWIDTH 14 0
BBX 14 14 0 -2
BITMAP
0060
0F80
0100
7FFC
0440
1FF0
644C
07C0
3FF8
2008
27C8
2448
27C8
2018
ENDCHAR
STARTCHAR b6ad
ENCODING 46765
SWIDTH 84 0
DWIDTH 14 0
BBX 14 14 0 -2
BITMAP
0040
13F8
1120
10A0
7FFC
1000
11F0
1110
15F0
1910
61F0
00A0
0324
0C1C
ENDCHAR
STARTCHAR b6ae
ENCODING 46766
SWIDTH 84 0
DWIDTH 14 0
BBX 14 14 0 -2
BITMAP
0040
1040
13F8
1040
5648
5548
5550
57FC
5440
7CA0
4490
4110
0208
0C04
ENDCHAR
STARTCHAR b6af
ENCODING 46767
SWIDTH 84 0
DWIDTH 14 0
BBX 14 14 0 -2
BITMAP
0040
7850
0888
0FFC
7844
4BF8
4248
7A48
4BF8
4A50
0848
087C
17C4
6004
ENDCHAR
STARTCHAR b6b0
ENCODING 46768
SWIDTH 84 0
DWIDTH 14 0
BBX 14 14 0 -2
BITMAP
0000
7BF8
0950
09F0
7950
49F0
43F8
79F0
4950
49F0
0950
09F0
17FC
6000
ENDCHAR
STARTCHAR b6b1
ENCODING 46769
SWIDTH 84 0
DWIDTH 14 0
BBX 14 14 0 -2
BITMAP
1040
1040
1040
13F8
3840
3440
3440
57FC
1040
1090
1088
1138
17C4
1004
ENDCHAR
STARTCHAR b6b2
ENCODING 46770
SWIDTH 84 0
DWIDTH 14 0
BBX 14 14 0 -2
BITMAP
0000
7FF0
0910
0910
0990
0F54
7254
040C
0100
1490
1488
2424
4424
03E0
ENDCHAR
STARTCHAR b6b3
ENCODING 46771
SWIDTH 84 0
DWIDTH 14 0
BBX 14 14 0 -2
BITMAP
0440
0440
3FF8
0440
0440
7FFC
0440
0A20
1210
620C
1290
1248
2248
0600
ENDCHAR
STARTCHAR b6b4
ENCODING 46772
SWIDTH 84 0
DWIDTH 14 0
BBX 14 14 0 -2
BITMAP
1040
1040
17FC
7840
1248
1148
1150
1FFC
7040
10A0
1090
1110
1208
3404
ENDCHAR
STARTCHAR b6b5
ENCODING 46773
SWIDTH 84 0
DWIDTH 14 0
BBX 14 14 0 -2
BITMAP
0840
0940
3F40
0A40
0AFC
7F88
0988
1F48
2250
4730
3C20
0450
0588
0E04
ENDCHAR
STARTCHAR b6b6
ENCODING 46774
SWIDTH 84 0
DWIDTH 14 0
BBX 14 14 0 -2
BITMAP
1018
13E0
1040
7FFC
10A0
19F0
36A8
34E4
33F8
5208
52E8
12A8
12E8
1218
ENDCHAR
STARTCHAR b6b7
ENCODING 46775
SWIDTH 84 0
DWIDTH 14 0
BBX 14 14 0 -2
BITMAP
1000
0BF8
0A08
4208
2208
23F8
02A8
10A0
10A0
1120
2120
2224
4424
481C
ENDCHAR
STARTCHAR b6b8
ENCODING 46776
SWIDTH 84 0
DWIDTH 14 0
BBX 14 14 0 -2
BITMAP
0800
4FFC
3040
1040
3040
4840
0BF8
1840
2840
4840
0840
0840
3FFC
1000
ENDCHAR
STARTCHAR b6b9
ENCODING 46777
SWIDTH 84 0
DWIDTH 14 0
BBX 14 14 0 -2
BITMAP
0440
4440
2840
17FC
3248
4948
0950
1FFC
2840
48A0
08A0
0910
3208
1404
ENDCHAR
STARTCHAR b6ba
ENCODING 46778
SWIDTH 84 0
DWIDTH 14 0
BBX 14 14 0 -2
BITMAP
1018
13E0
1040
3FFC
28A0
49F0
0AA8
7EE4
0BF8
0E08
16E8
12A8
22E8
4218
ENDCHAR
STARTCHAR b6bb
ENCODING 46779
SWIDTH 84 0
DWIDTH 14 0
BBX 14 14 0 -2
BITMAP
0080
3C80
2480
25FC
2524
3E24
25D4
2574
3DB4
2514
25F4
2514
2404
4C18
ENDCHAR
STARTCHAR b6bc
ENCODING 46780
SWIDTH 84 0
DWIDTH 14 0
BBX 14 14 0 -2
BITMAP
0200
0FC0
0240
0CC0
7FF8
1248
2698
4FE0
0820
0FE0
0820
0FE0
0820
0860
ENDCHAR
STARTCHAR b6bd
ENCODING 46781
SWIDTH 84 0
DWIDTH 14 0
BBX 14 14 0 -2
BITMAP
0800
37F8
2448
27C8
3C78
27C8
3EF8
27C8
2448
7FFC
0000
0460
1810
6008
ENDCHAR
STARTCHAR b6be
ENCODING 46782
SWIDTH 84 0
DWIDTH 14 0
BBX 14 14 0 -2
BITMAP
0440
7FFC
0460
1FC0
0100
3FF8
07C0
1C70
67CC
1FF0
17D0
1450
17D0
1030
ENDCHAR
STARTCHAR b6bf
ENCODING 46783
SWIDTH 84 0
DWIDTH 14 0
BBX 14 14 0 -2
BITMAP
1000
13B8
16A8
66A8
2BB0
1AB0
12A8
1BA8
2B24
7AA4
12E4
1378
2C20
4020
ENDCHAR
STARTCHAR b6c0
ENCODING 46784
SWIDTH 84 0
DWIDTH 14 0
BBX 14 14 0 -2
BITMAP
0820
09F8
1490
13FC
2200
5CF8
0888
7EF8
0888
2AF8
1C50
1854
0E94
730C
ENDCHAR
STARTCHAR b6c1
ENCODING 46785
SWIDTH 84 0
DWIDTH 14 0
BBX 14 14 0 -2
BITMAP
13B8
6AA8
2BB8
1FA4
6AF8
1360
3FF8
0440
7FFC
0FE0
0FE0
0820
0FE0
0820
ENDCHAR
STARTCHAR b6c2
ENCODING 46786
SWIDTH 84 0
DWIDTH 14 0
BBX 14 14 0 -2
BITMAP
1138
5BA8
2BB0
16A8
7FE4
0BF8
33A0
07C0
1FF0
67CC
07C0
04B0
0760
3818
ENDCHAR
STARTCHAR b6c3
ENCODING 46787
SWIDTH 84 0
DWIDTH 14 0
BBX 14 14 0 -2
BITMAP
1440
7F40
14FC
3F48
7A30
2ACC
3FF0
0880
0FE0
0FE0
0FF8
2A48
2528
4030
ENDCHAR
STARTCHAR b6c4
ENCODING 46788
SWIDTH 84 0
DWIDTH 14 0
BBX 14 14 0 -2
BITMAP
0840
0880
0B78
1248
1248
3248
5248
1248
1248
13C8
1E70
1040
1040
1040
ENDCHAR
STARTCHAR b6c5
ENCODING 46789
SWIDTH 84 0
DWIDTH 14 0
BBX 14 14 0 -2
BITMAP
0800
09FC
4E08
28B0
2790
047C
1798
1A50
225C
3FD0
4650
4570
4890
110C
ENDCHAR
STARTCHAR b6c6
ENCODING 46790
SWIDTH 84 0
DWIDTH 14 0
BBX 14 14 0 -2
BITMAP
0100
0100
3FF8
0100
0920
7FFC
0820
0820
7FFC
0480
0480
0884
1084
607C
ENDCHAR
STARTCHAR b6c7
ENCODING 46791
SWIDTH 84 0
DWIDTH 14 0
BBX 14 14 0 -2
BITMAP
0040
0040
7BF8
4840
4950
4FFC
7910
4910
4FFC
48A0
78A0
4924
4224
0C1C
ENDCHAR
STARTCHAR b6c8
ENCODING 46792
SWIDTH 84 0
DWIDTH 14 0
BBX 14 14 0 -2
BITMAP
0280
1290
0AA0
7FFC
0440
3FF8
0100
1FF0
0100
7FFC
0380
0D60
711C
0100
ENDCHAR
STARTCHAR b6c9
ENCODING 46793
SWIDTH 84 0
DWIDTH 14 0
BBX 14 14 0 -2
BITMAP
0000
1FF8
1008
1008
1FF8
1000
1FFC
1004
13E4
1224
1224
23E4
2224
4018
ENDCHAR
STARTCHAR b6ca
ENCODING 46794
SWIDTH 84 0
DWIDTH 14 0
BBX 14 14 0 -2
BITMAP
0440
0440
0440
3FF8
2448
2448
2448
3FF8
2448
2448
2448
3FF8
2008
2008
ENDCHAR
STARTCHAR b6cb
ENCODING 46795
SWIDTH 84 0
DWIDTH 14 0
BBX 14 14 0 -2
BITMAP
1000
17FC
1080
7C80
11DC
1124
3BB4
36A8
36A8
53B4
5224
1040
17FC
1000
ENDCHAR
STARTCHAR b6cc
ENCODING 46796
SWIDTH 84 0
DWIDTH 14 0
BBX 14 14 0 -2
BITMAP
0000
3FF8
0100
0100
0100
0100
1FF0
0100
0120
0110
0110
0100
7FFC
0000
ENDCHAR
STARTCHAR b6cd
ENCODING 46797
SWIDTH 84 0
DWIDTH 14 0
BBX 14 14 0 -2
BITMAP
1000
13F8
1208
7E08
13F8
1208
3AE8
36A8
36A8
52E8
52A8
1208
1208
1218
ENDCHAR
STARTCHAR b6ce
ENCODING 46798
SWIDTH 84 0
DWIDTH 14 0
BBX 14 14 0 -2
BITMAP
0808
4A10
2AE0
2C20
0820
7E20
09FC
1C20
1A20
2A20
4820
0820
0820
0820
ENDCHAR
STARTCHAR b6cf
ENCODING 46799
SWIDTH 84 0
DWIDTH 14 0
BBX 14 14 0 -2
BITMAP
0910
0910
0FFC
1110
13F8
3248
53F8
1040
13F8
1040
13F8
1040
17FC
1000
ENDCHAR
STARTCHAR b6d0
ENCODING 46800
SWIDTH 84 0
DWIDTH 14 0
BBX 14 14 0 -2
BITMAP
1440
7F40
1440
3E40
2BF8
2A48
3E48
0848
3E48
0848
3E48
0888
0E88
7930
ENDCHAR
STARTCHAR b6d1
ENCODING 46801
SWIDTH 84 0
DWIDTH 14 0
BBX 14 14 0 -2
BITMAP
0100
1100
1100
11F8
7E08
1308
1488
1088
1028
14C8
1B08
6008
0008
0030
ENDCHAR
STARTCHAR b6d2
ENCODING 46802
SWIDTH 84 0
DWIDTH 14 0
BBX 14 14 0 -2
BITMAP
0100
0100
0100
3FF8
2108
2108
2108
2108
2108
2108
2108
2130
0100
0100
ENDCHAR
STARTCHAR b6d3
ENCODING 46803
SWIDTH 84 0
DWIDTH 14 0
BBX 14 14 0 -2
BITMAP
0820
0840
14F8
1288
22F8
5C88
08F8
7E20
09FC
2B24
1D24
1924
0F38
7020
ENDCHAR
STARTCHAR b6d4
ENCODING 46804
SWIDTH 84 0
DWIDTH 14 0
BBX 14 14 0 -2
BITMAP
0010
0060
0F80
0800
0800
0FFC
0840
0840
0840
1040
1040
2040
4040
0040
ENDCHAR
STARTCHAR b6d5
ENCODING 46805
SWIDTH 84 0
DWIDTH 14 0
BBX 14 14 0 -2
BITMAP
0140
0240
1C40
1040
10FC
1FA8
1530
1420
1420
1460
2450
2490
4508
0604
ENDCHAR
STARTCHAR b6d6
ENCODING 46806
SWIDTH 84 0
DWIDTH 14 0
BBX 14 14 0 -2
BITMAP
0840
0840
1440
1240
22FC
5CA8
0930
7E20
0820
2A60
1C50
1890
0F08
7204
ENDCHAR
STARTCHAR b6d7
ENCODING 46807
SWIDTH 84 0
DWIDTH 14 0
BBX 14 14 0 -2
BITMAP
0000
3EF8
0820
3EF8
0820
0FFC
7280
0440
1FF0
600C
0FE0
0040
0080
0100
ENDCHAR
STARTCHAR b6d8
ENCODING 46808
SWIDTH 84 0
DWIDTH 14 0
BBX 14 14 0 -2
BITMAP
0820
0820
7FFC
1C60
1A70
2AA8
4924
0FE0
0000
7FFC
0920
1110
6108
0300
ENDCHAR
STARTCHAR b6d9
ENCODING 46809
SWIDTH 84 0
DWIDTH 14 0
BBX 14 14 0 -2
BITMAP
0100
0280
0540
1FF0
6AAC
09A0
0E60
0FE0
0100
1FF0
1290
1FD0
1050
1030
ENDCHAR
STARTCHAR b6da
ENCODING 46810
SWIDTH 84 0
DWIDTH 14 0
BBX 14 14 0 -2
BITMAP
0840
0840
1FFC
14A0
2310
4040
1E40
13F8
1E48
1248
1E48
2288
2288
4730
ENDCHAR
STARTCHAR b6db
ENCODING 46811
SWIDTH 84 0
DWIDTH 14 0
BBX 14 14 0 -2
BITMAP
0000
3FF8
2488
3E50
2220
3ED0
3F0C
2120
0E60
0198
7FE4
0D30
3108
0100
ENDCHAR
STARTCHAR b6dc
ENCODING 46812
SWIDTH 84 0
DWIDTH 14 0
BBX 14 14 0 -2
BITMAP
0440
0440
7FFC
0440
0470
0FC0
0800
0FFC
0840
0840
1040
1040
2040
4040
ENDCHAR
STARTCHAR b6dd
ENCODING 46813
SWIDTH 84 0
DWIDTH 14 0
BBX 14 14 0 -2
BITMAP
0440
7FFC
0440
3FF8
2068
2F88
2108
3FF8
2388
2548
3928
2108
3FF8
2008
ENDCHAR
STARTCHAR b6de
ENCODING 46814
SWIDTH 84 0
DWIDTH 14 0
BBX 14 14 0 -2
BITMAP
1040
1040
1060
7CA0
0890
0BF8
1204
3C00
55F8
1210
1010
1020
1020
1020
ENDCHAR
STARTCHAR b6df
ENCODING 46815
SWIDTH 84 0
DWIDTH 14 0
BBX 14 14 0 -2
BITMAP
1090
1090
13FC
7CD0
09B8
0AD4
1490
19F8
3400
57FC
1128
1124
1224
1060
ENDCHAR
STARTCHAR b6e0
ENCODING 46816
SWIDTH 84 0
DWIDTH 14 0
BBX 14 14 0 -2
BITMAP
0090
3C90
03FC
7C90
03F8
3E48
03F8
3C40
03F8
3C40
27F8
2440
3FFC
2000
ENDCHAR
STARTCHAR b6e1
ENCODING 46817
SWIDTH 84 0
DWIDTH 14 0
BBX 14 14 0 -2
BITMAP
0010
2060
1380
1200
0200
03FC
0220
7220
1220
1420
1420
1820
2600
41FC
ENDCHAR
STARTCHAR b6e2
ENCODING 46818
SWIDTH 84 0
DWIDTH 14 0
BBX 14 14 0 -2
BITMAP
0100
0100
0280
0440
1830
67CC
0100
3FF8
0100
0920
0520
0540
3FF8
0000
ENDCHAR
STARTCHAR b6e3
ENCODING 46819
SWIDTH 84 0
DWIDTH 14 0
BBX 14 14 0 -2
BITMAP
0040
0040
78A0
48A0
4910
4BF8
4C04
4800
4BF8
7808
4810
4010
0020
0020
ENDCHAR
STARTCHAR b6e4
ENCODING 46820
SWIDTH 84 0
DWIDTH 14 0
BBX 14 14 0 -2
BITMAP
0800
08F8
1488
1288
22F8
5C88
0888
7EF8
08A4
2AA8
1C90
18B0
0EC8
7304
ENDCHAR
STARTCHAR b6e5
ENCODING 46821
SWIDTH 84 0
DWIDTH 14 0
BBX 14 14 0 -2
BITMAP
0200
0200
0200
0200
7FC0
0240
0240
0240
0440
0440
0844
1044
2044
403C
ENDCHAR
STARTCHAR b6e6
ENCODING 46822
SWIDTH 84 0
DWIDTH 14 0
BBX 14 14 0 -2
BITMAP
0800
0BF0
0A10
1210
13F0
3210
53F0
1210
13F0
1000
1FFC
1120
1210
1C08
ENDCHAR
STARTCHAR b6e7
ENCODING 46823
SWIDTH 84 0
DWIDTH 14 0
BBX 14 14 0 -2
BITMAP
0800
0800
0800
1FF8
1008
2F88
4888
0888
0888
0F88
0888
0008
0008
0030
ENDCHAR
STARTCHAR b6e8
ENCODING 46824
SWIDTH 84 0
DWIDTH 14 0
BBX 14 14 0 -2
BITMAP
0000
3FF8
2020
2020
2040
2C40
2380
2080
2140
2220
2420
2800
3FFC
2000
ENDCHAR
STARTCHAR b6e9
ENCODING 46825
SWIDTH 84 0
DWIDTH 14 0
BBX 14 14 0 -2
BITMAP
0880
4880
3080
11F8
3108
4A08
0DE8
1928
2928
49E8
0928
0808
3008
1030
ENDCHAR
STARTCHAR b6ea
ENCODING 46826
SWIDTH 84 0
DWIDTH 14 0
BBX 14 14 0 -2
BITMAP
0080
0080
7C80
10F0
1110
1110
7E20
1020
1060
1460
1890
6110
0208
0C04
ENDCHAR
STARTCHAR b6eb
ENCODING 46827
SWIDTH 84 0
DWIDTH 14 0
BBX 14 14 0 -2
BITMAP
1000
10FC
1080
3F80
28F8
4888
0888
7F88
08F8
0C88
1480
1280
22FC
4080
ENDCHAR
STARTCHAR b6ec
ENCODING 46828
SWIDTH 84 0
DWIDTH 14 0
BBX 14 14 0 -2
BITMAP
0440
0440
7FFC
0440
0540
0100
7FFC
0100
0100
0FE0
0820
0820
0FE0
0820
ENDCHAR
STARTCHAR b6ed
ENCODING 46829
SWIDTH 84 0
DWIDTH 14 0
BBX 14 14 0 -2
BITMAP
0800
10FC
3E80
2288
3E88
22C8
3EB0
2390
3E90
66A8
0AC8
1280
62FC
0680
ENDCHAR
STARTCHAR b6ee
ENCODING 46830
SWIDTH 84 0
DWIDTH 14 0
BBX 14 14 0 -2
BITMAP
0000
3FFC
2888
3E88
28C8
3EB0
2890
3E90
0AA8
3EA8
3EC0
3280
42FC
0C80
ENDCHAR
STARTCHAR b6ef
ENCODING 46831
SWIDTH 84 0
DWIDTH 14 0
BBX 14 14 0 -2
BITMAP
0008
3F10
28E0
3E80
2880
3EFC
2890
3E90
0A90
3E90
3E90
3290
43FC
0C00
ENDCHAR
STARTCHAR b6f0
ENCODING 46832
SWIDTH 84 0
DWIDTH 14 0
BBX 14 14 0 -2
BITMAP
0040
3F40
2840
3EF8
2888
3FE8
28A8
3EA8
0AE8
3EA8
3E08
3208
4208
0C30
ENDCHAR
STARTCHAR b6f1
ENCODING 46833
SWIDTH 84 0
DWIDTH 14 0
BBX 14 14 0 -2
BITMAP
0000
0FE0
0820
0820
0FE0
0820
0FE0
0820
0FE0
0000
7FFC
0460
1810
6008
ENDCHAR
STARTCHAR b6f2
ENCODING 46834
SWIDTH 84 0
DWIDTH 14 0
BBX 14 14 0 -2
BITMAP
0000
0FE0
0920
0FE0
0920
0FE0
3FF8
2148
2FE8
2138
1488
24A4
4424
03E0
ENDCHAR
STARTCHAR b6f3
ENCODING 46835
SWIDTH 84 0
DWIDTH 14 0
BBX 14 14 0 -2
BITMAP
0100
01F0
1FFC
11E8
1F08
10F8
15F0
1510
15F0
17E0
2020
3FFC
4630
180C
ENDCHAR
STARTCHAR b6f4
ENCODING 46836
SWIDTH 84 0
DWIDTH 14 0
BBX 14 14 0 -2
BITMAP
0040
0040
78A0
49F0
4E0C
49F0
4910
49F0
4910
79F8
4948
4130
01D8
0F04
ENDCHAR
STARTCHAR b6f5
ENCODING 46837
SWIDTH 84 0
DWIDTH 14 0
BBX 14 14 0 -2
BITMAP
0100
0100
3FFC
2488
4480
0888
1078
0000
1FF0
0100
0100
0100
7FFC
0000
ENDCHAR
STARTCHAR b6f6
ENCODING 46838
SWIDTH 84 0
DWIDTH 14 0
BBX 14 14 0 -2
BITMAP
0800
0BF0
0A90
13F0
1290
33F0
5080
17F8
14A8
14F8
1718
1408
1408
1418
ENDCHAR
STARTCHAR b6f7
ENCODING 46839
SWIDTH 84 0
DWIDTH 14 0
BBX 14 14 0 -2
BITMAP
0100
3FFC
2008
4FE0
0920
0FE0
0920
0FE0
0100
3FF8
2148
2FE8
2028
2018
ENDCHAR
STARTCHAR b6f8
ENCODING 46840
SWIDTH 84 0
DWIDTH 14 0
BBX 14 14 0 -2
BITMAP
0000
23F0
1290
13F0
0290
03F0
7080
17F8
14A8
14F8
1708
1C18
2600
41FC
ENDCHAR
STARTCHAR b6f9
ENCODING 46841
SWIDTH 84 0
DWIDTH 14 0
BBX 14 14 0 -2
BITMAP
0000
3DF8
2548
2948
31F8
2948
25F8
2440
27FC
2654
3A7C
238C
2204
220C
ENDCHAR
STARTCHAR b6fa
ENCODING 46842
SWIDTH 84 0
DWIDTH 14 0
BBX 14 14 0 -2
BITMAP
0100
0100
1FF0
1110
1110
1FF0
0100
3FF8
2108
2108
3FF8
2108
0100
0100
ENDCHAR
STARTCHAR b6fb
ENCODING 46843
SWIDTH 84 0
DWIDTH 14 0
BBX 14 14 0 -2
BITMAP
1220
13FC
1330
7CC8
1000
1BB8
36A8
37A8
32A8
53A8
5328
12B0
13E0
1C20
ENDCHAR
STARTCHAR b6fc
ENCODING 46844
SWIDTH 84 0
DWIDTH 14 0
BBX 14 14 0 -2
BITMAP
0808
0888
14A8
12A8
22A8
5CA8
08A8
7EA8
08A8
2AA8
1D28
1928
0E08
7408
ENDCHAR
STARTCHAR b6fd
ENCODING 46845
SWIDTH 84 0
DWIDTH 14 0
BBX 14 14 0 -2
BITMAP
0000
1FF8
1008
1FF8
1490
12A0
17F0
1410
17F0
1410
27F0
2410
4410
0430
ENDCHAR
STARTCHAR b6fe
ENCODING 46846
SWIDTH 84 0
DWIDTH 14 0
BBX 14 14 0 -2
BITMAP
0000
1FF8
1008
1FF8
1088
1490
1490
17F0
1490
1888
2888
2888
4FF8
0808
ENDCHAR
STARTCHAR b7a1
ENCODING 47009
SWIDTH 84 0
DWIDTH 14 0
BBX 14 14 0 -2
BITMAP
1000
13FC
1204
7FFC
1224
12A8
12A8
1EF8
72A8
1324
1524
1524
19FC
3104
ENDCHAR
STARTCHAR b7a2
ENCODING 47010
SWIDTH 84 0
DWIDTH 14 0
BBX 14 14 0 -2
BITMAP
0100
3FFC
2688
5878
1FF8
1008
1FF8
1490
1490
17F0
2888
2888
4FF8
0808
ENDCHAR
STARTCHAR b7a3
ENCODING 47011
SWIDTH 84 0
DWIDTH 14 0
BBX 14 14 0 -2
BITMAP
0100
0108
3F90
0560
0920
1110
630C
0FE0
0820
0FE0
0820
0820
0FE0
0820
ENDCHAR
STARTCHAR b7a4
ENCODING 47012
SWIDTH 84 0
DWIDTH 14 0
BBX 14 14 0 -2
BITMAP
1460
1460
7F60
14A4
1CA4
09A8
3EB0
2AA0
3EA0
08A0
7FA0
08A4
08A4
089C
ENDCHAR
STARTCHAR b7a5
ENCODING 47013
SWIDTH 84 0
DWIDTH 14 0
BBX 14 14 0 -2
BITMAP
2110
2FD4
4FE4
3558
2FD4
7D7C
37D8
5FF4
1110
0FE0
0820
0820
0FE0
0820
ENDCHAR
STARTCHAR b7a6
ENCODING 47014
SWIDTH 84 0
DWIDTH 14 0
BBX 14 14 0 -2
BITMAP
0100
3FFC
2488
4488
0878
1040
0BF8
4840
27FC
2040
0BF8
0840
17FC
2000
ENDCHAR
STARTCHAR b7a7
ENCODING 47015
SWIDTH 84 0
DWIDTH 14 0
BBX 14 14 0 -2
BITMAP
0840
1248
7F70
0144
3E3C
2240
3E4C
2270
3E40
2244
263C
1490
2248
4244
ENDCHAR
STARTCHAR b7a8
ENCODING 47016
SWIDTH 84 0
DWIDTH 14 0
BBX 14 14 0 -2
BITMAP
0000
3DF8
2548
29F8
3148
29F8
2400
27FC
2548
2530
3920
2150
2188
2604
ENDCHAR
STARTCHAR b7a9
ENCODING 47017
SWIDTH 84 0
DWIDTH 14 0
BBX 14 14 0 -2
BITMAP
0100
07E0
1840
01C0
0730
792C
0920
0540
3FF8
0380
0540
1930
610C
0100
ENDCHAR
STARTCHAR b7aa
ENCODING 47018
SWIDTH 84 0
DWIDTH 14 0
BBX 14 14 0 -2
BITMAP
0000
7FFC
0280
1FF0
1290
1290
1FF0
0100
7FFC
0380
0540
1930
610C
0100
ENDCHAR
STARTCHAR b7ab
ENCODING 47019
SWIDTH 84 0
DWIDTH 14 0
BBX 14 14 0 -2
BITMAP
0800
08F8
0A88
72F8
1400
0DDC
1354
7FDC
0820
2DFC
2A70
2AA8
4924
0820
ENDCHAR
STARTCHAR b7ac
ENCODING 47020
SWIDTH 84 0
DWIDTH 14 0
BBX 14 14 0 -2
BITMAP
0000
1FE0
0440
0380
3EF8
1248
0D30
1BC8
6104
3FF8
0380
0D60
711C
0100
ENDCHAR
STARTCHAR b7ad
ENCODING 47021
SWIDTH 84 0
DWIDTH 14 0
BBX 14 14 0 -2
BITMAP
1050
1090
1B90
2494
24B4
7BF4
10B8
7DD0
11B0
5598
3AA8
30A8
1CC4
6084
ENDCHAR
STARTCHAR b7ae
ENCODING 47022
SWIDTH 84 0
DWIDTH 14 0
BBX 14 14 0 -2
BITMAP
0240
3C40
7F40
3FF8
2A48
3E48
2A48
3E48
3E88
0F88
7930
0000
2488
4244
ENDCHAR
STARTCHAR b7af
ENCODING 47023
SWIDTH 84 0
DWIDTH 14 0
BBX 14 14 0 -2
BITMAP
0000
1FE0
0220
0220
7FFC
0220
0220
1FE0
0400
0FF0
1410
2410
47F0
0410
ENDCHAR
STARTCHAR b7b0
ENCODING 47024
SWIDTH 84 0
DWIDTH 14 0
BBX 14 14 0 -2
BITMAP
0440
7FFC
0460
0FC0
7FFC
0FE0
0920
0FE0
0920
0FE0
1FF0
7FFC
1248
6124
ENDCHAR
STARTCHAR b7b1
ENCODING 47025
SWIDTH 84 0
DWIDTH 14 0
BBX 14 14 0 -2
BITMAP
0008
3E88
00A8
7FA8
00A8
3EA8
00A8
3EA8
00A8
3EA8
22A8
2308
3F08
2208
ENDCHAR
STARTCHAR b7b2
ENCODING 47026
SWIDTH 84 0
DWIDTH 14 0
BBX 14 14 0 -2
BITMAP
0088
3E48
1250
13FC
7F20
1220
3EF8
1020
1E20
33FC
3220
5220
1E20
1020
ENDCHAR
STARTCHAR b7b3
ENCODING 47027
SWIDTH 84 0
DWIDTH 14 0
BBX 14 14 0 -2
BITMAP
0000
3FFC
2108
7FF8
0100
1FF0
1110
1FF0
1110
1FF0
0100
7FFC
0100
0100
ENDCHAR
STARTCHAR b7b4
ENCODING 47028
SWIDTH 84 0
DWIDTH 14 0
BBX 14 14 0 -2
BITMAP
0000
3F78
0948
0950
7FD0
0960
3F50
0848
0F44
1944
1964
2958
4F40
0940
ENDCHAR
STARTCHAR b7b5
ENCODING 47029
SWIDTH 84 0
DWIDTH 14 0
BBX 14 14 0 -2
BITMAP
0420
0420
0420
3FA0
0420
0430
7FE8
0424
0424
3FA0
0420
0420
07A0
7C20
ENDCHAR
STARTCHAR b7b6
ENCODING 47030
SWIDTH 84 0
DWIDTH 14 0
BBX 14 14 0 -2
BITMAP
1000
10F8
7E88
1288
1288
22F8
4D88
0100
7FFC
0310
0CA0
7440
0730
380C
ENDCHAR
STARTCHAR b7b7
ENCODING 47031
SWIDTH 84 0
DWIDTH 14 0
BBX 14 14 0 -2
BITMAP
0800
08F8
0888
7E90
0290
04A0
0890
1C88
2A84
4A84
08C4
08B8
0880
0880
ENDCHAR
STARTCHAR b7b8
ENCODING 47032
SWIDTH 84 0
DWIDTH 14 0
BBX 14 14 0 -2
BITMAP
0818
08E0
0F90
1090
1320
30D0
5098
11E4
1740
1050
1248
1244
1444
1040
ENDCHAR
STARTCHAR b7b9
ENCODING 47033
SWIDTH 84 0
DWIDTH 14 0
BBX 14 14 0 -2
BITMAP
0800
09FC
0810
1420
1578
3548
5678
1448
1478
1548
1578
1330
1048
1184
ENDCHAR
STARTCHAR b7ba
ENCODING 47034
SWIDTH 84 0
DWIDTH 14 0
BBX 14 14 0 -2
BITMAP
0008
3FC8
1248
1248
1248
1248
7FC8
1248
1248
1248
1248
2208
2208
4218
ENDCHAR
STARTCHAR b7bb
ENCODING 47035
SWIDTH 84 0
DWIDTH 14 0
BBX 14 14 0 -2
BITMAP
0000
1FE0
1020
1020
1020
1FE0
1520
0500
0500
0900
0908
1108
2108
40F8
ENDCHAR
STARTCHAR b7bc
ENCODING 47036
SWIDTH 84 0
DWIDTH 14 0
BBX 14 14 0 -2
BITMAP
0040
7F40
00FC
3F90
2290
2260
3E60
2390
200C
4FE0
0820
0820
0FE0
0820
ENDCHAR
STARTCHAR b7bd
ENCODING 47037
SWIDTH 84 0
DWIDTH 14 0
BBX 14 14 0 -2
BITMAP
0100
0100
1FF0
0100
0100
7FFC
0100
0100
3FF8
0100
0100
0100
7FFC
0000
ENDCHAR
STARTCHAR b7be
ENCODING 47038
SWIDTH 84 0
DWIDTH 14 0
BBX 14 14 0 -2
BITMAP
0040
0040
7FF8
1040
1040
17FC
7C40
1040
13F8
1440
1840
6040
0FFC
0000
ENDCHAR
STARTCHAR b7bf
ENCODING 47039
SWIDTH 84 0
DWIDTH 14 0
BBX 14 14 0 -2
BITMAP
0008
3FC8
1248
1248
7FC8
1248
1248
2218
4100
1FF0
0100
0100
7FFC
0000
ENDCHAR
STARTCHAR b7c0
ENCODING 47040
SWIDTH 84 0
DWIDTH 14 0
BBX 14 14 0 -2
BITMAP
0800
09F8
7F48
0848
3E48
0888
0F08
7130
0100
7FFC
0280
0440
1830
600C
ENDCHAR
STARTCHAR b7c1
ENCODING 47041
SWIDTH 84 0
DWIDTH 14 0
BBX 14 14 0 -2
BITMAP
0010
3F10
1220
1220
1248
1208
7F90
1210
1224
1204
1208
2208
2210
4220
ENDCHAR
STARTCHAR b7c2
ENCODING 47042
SWIDTH 84 0
DWIDTH 14 0
BBX 14 14 0 -2
BITMAP
0800
0BF8
1110
24A0
0440
09F0
1E4C
2840
4BF8
0840
0840
0840
0FFC
0800
ENDCHAR
STARTCHAR b7c3
ENCODING 47043
SWIDTH 84 0
DWIDTH 14 0
BBX 14 14 0 -2
BITMAP
0100
7FFC
0100
1FF0
1110
1FF0
1110
1FF0
0100
0490
2488
2424
4424
03E0
ENDCHAR
STARTCHAR b7c4
ENCODING 47044
SWIDTH 84 0
DWIDTH 14 0
BBX 14 14 0 -2
BITMAP
0080
1FFC
1240
1FF8
1248
1FF8
1FFC
1558
19E4
13F4
2D20
20C0
4360
1C1C
ENDCHAR
STARTCHAR b7c5
ENCODING 47045
SWIDTH 84 0
DWIDTH 14 0
BBX 14 14 0 -2
BITMAP
0820
7FFC
0820
3EF8
0FFC
7820
0FE0
07E0
0020
0FE0
2508
24A4
4424
03E0
ENDCHAR
STARTCHAR b7c6
ENCODING 47046
SWIDTH 84 0
DWIDTH 14 0
BBX 14 14 0 -2
BITMAP
0220
3CF8
0888
7FF8
0888
3EF8
2288
3EF8
2088
0500
2488
24A4
4424
03E0
ENDCHAR
STARTCHAR b7c7
ENCODING 47047
SWIDTH 84 0
DWIDTH 14 0
BBX 14 14 0 -2
BITMAP
1000
11F8
1108
7DF8
1108
11F8
1080
1DFC
7334
15C4
1104
1114
10F4
3018
ENDCHAR
STARTCHAR b7c8
ENCODING 47048
SWIDTH 84 0
DWIDTH 14 0
BBX 14 14 0 -2
BITMAP
1120
11FC
1320
7FF8
1520
11F8
1120
15FC
1FE0
7120
113C
1104
1204
3418
ENDCHAR
STARTCHAR b7c9
ENCODING 47049
SWIDTH 84 0
DWIDTH 14 0
BBX 14 14 0 -2
BITMAP
1440
1440
7F40
147C
1088
1E88
2348
7A50
2A30
2A20
3A30
2250
0288
0D04
ENDCHAR
STARTCHAR b7ca
ENCODING 47050
SWIDTH 84 0
DWIDTH 14 0
BBX 14 14 0 -2
BITMAP
0000
0FE0
0820
0FE0
0820
0FE0
0100
7FFC
0FE0
0820
0FE0
0560
0910
3308
ENDCHAR
STARTCHAR b7cb
ENCODING 47051
SWIDTH 84 0
DWIDTH 14 0
BBX 14 14 0 -2
BITMAP
0840
0840
09F8
7E40
0840
1BFC
1C40
1A40
2BF8
2840
4840
0840
0FFC
0800
ENDCHAR
STARTCHAR b7cc
ENCODING 47052
SWIDTH 84 0
DWIDTH 14 0
BBX 14 14 0 -2
BITMAP
1008
0870
0B88
4248
2150
2120
0040
13F8
1040
17FC
20C0
20A0
4110
460C
ENDCHAR
STARTCHAR b7cd
ENCODING 47053
SWIDTH 84 0
DWIDTH 14 0
BBX 14 14 0 -2
BITMAP
0040
0040
7FF8
5440
5440
57FC
7C40
5440
57F8
5440
7C40
4440
07FC
0000
ENDCHAR
STARTCHAR b7ce
ENCODING 47054
SWIDTH 84 0
DWIDTH 14 0
BBX 14 14 0 -2
BITMAP
0228
0DFC
7860
08A4
099C
7EF0
0884
1C7C
1AF8
2A88
48F8
0888
08F8
0888
ENDCHAR
STARTCHAR b7cf
ENCODING 47055
SWIDTH 84 0
DWIDTH 14 0
BBX 14 14 0 -2
BITMAP
0038
3FC0
0220
0220
1C40
0390
0108
7FFC
0104
0920
0910
1108
2108
0100
ENDCHAR
STARTCHAR b7d0
ENCODING 47056
SWIDTH 84 0
DWIDTH 14 0
BBX 14 14 0 -2
BITMAP
0800
09F8
0A88
7250
1420
0C70
13AC
7F20
0CF8
2A20
2A20
2820
4BFC
0800
ENDCHAR
STARTCHAR b7d1
ENCODING 47057
SWIDTH 84 0
DWIDTH 14 0
BBX 14 14 0 -2
BITMAP
0820
0920
0BA8
7368
1570
0D20
13FC
7F20
0970
2DA8
2B28
2B20
49FC
0900
ENDCHAR
STARTCHAR b7d2
ENCODING 47058
SWIDTH 84 0
DWIDTH 14 0
BBX 14 14 0 -2
BITMAP
0800
7F70
3E54
2A8C
3FF8
2A90
3E60
7FB0
0A4C
0EC0
0170
7F88
0D30
3108
ENDCHAR
STARTCHAR b7d3
ENCODING 47059
SWIDTH 84 0
DWIDTH 14 0
BBX 14 14 0 -2
BITMAP
0000
3FF8
2448
3FF8
0420
3F20
0430
7FA8
0424
3F24
0420
07A0
7820
0020
ENDCHAR
STARTCHAR b7d4
ENCODING 47060
SWIDTH 84 0
DWIDTH 14 0
BBX 14 14 0 -2
BITMAP
0440
0440
7FFC
0440
1FF0
0460
0380
0D60
711C
0FE0
0100
0100
7FFC
0000
ENDCHAR
STARTCHAR b7d5
ENCODING 47061
SWIDTH 84 0
DWIDTH 14 0
BBX 14 14 0 -2
BITMAP
0440
0440
7FFC
0440
0000
3F48
1248
1248
7FC8
1248
1248
1248
2208
4218
ENDCHAR
STARTCHAR b7d6
ENCODING 47062
SWIDTH 84 0
DWIDTH 14 0
BBX 14 14 0 -2
BITMAP
1210
0910
0920
3FFC
2108
4100
0FE0
0920
0920
0FE0
0920
0110
01F8
3E08
ENDCHAR
STARTCHAR b7d7
ENCODING 47063
SWIDTH 84 0
DWIDTH 14 0
BBX 14 14 0 -2
BITMAP
0020
3C20
0020
7E20
01FC
3C20
0020
3C20
0020
3C20
2420
2420
3C20
2420
ENDCHAR
STARTCHAR b7d8
ENCODING 47064
SWIDTH 84 0
DWIDTH 14 0
BBX 14 14 0 -2
BITMAP
0080
3C98
00E0
7E80
0084
3C7C
0000
3CF8
0088
3CF8
2488
2488
3CF8
2488
ENDCHAR
STARTCHAR b7d9
ENCODING 47065
SWIDTH 84 0
DWIDTH 14 0
BBX 14 14 0 -2
BITMAP
1240
7FFC
1FC8
3D50
5530
1ECC
07C0
7FFC
07C0
07C0
0FE0
0820
0FE0
0820
ENDCHAR
STARTCHAR b7da
ENCODING 47066
SWIDTH 84 0
DWIDTH 14 0
BBX 14 14 0 -2
BITMAP
0800
09F8
7E88
0850
3E20
2AF0
3F2C
2A20
3EF8
0820
7F20
0820
09FC
0800
ENDCHAR
STARTCHAR b7db
ENCODING 47067
SWIDTH 84 0
DWIDTH 14 0
BBX 14 14 0 -2
BITMAP
0000
7FFC
0220
3440
0CF8
1A88
29F8
4888
3EF8
0888
08F8
0E50
7088
0304
ENDCHAR
STARTCHAR b7dc
ENCODING 47068
SWIDTH 84 0
DWIDTH 14 0
BBX 14 14 0 -2
BITMAP
0220
0C40
72F8
4A88
2CF8
0888
3EF8
08FC
7E80
08FC
1454
13AC
2144
4238
ENDCHAR
STARTCHAR b7dd
ENCODING 47069
SWIDTH 84 0
DWIDTH 14 0
BBX 14 14 0 -2
BITMAP
0440
0440
7FFC
0440
0440
1FF0
0000
0000
7FFC
0240
0220
04F0
3F08
0008
ENDCHAR
STARTCHAR b7de
ENCODING 47070
SWIDTH 84 0
DWIDTH 14 0
BBX 14 14 0 -2
BITMAP
0040
2080
1378
1248
0248
0248
7248
1248
13C8
1E70
1040
1840
2640
41FC
ENDCHAR
STARTCHAR b7df
ENCODING 47071
SWIDTH 84 0
DWIDTH 14 0
BBX 14 14 0 -2
BITMAP
0820
0820
1FFC
2400
7EF8
2A88
3E88
2AF8
3E20
04B0
3AA8
2EA4
2924
4060
ENDCHAR
STARTCHAR b7e0
ENCODING 47072
SWIDTH 84 0
DWIDTH 14 0
BBX 14 14 0 -2
BITMAP
0408
07A8
3FE8
26A8
3BA8
3FA8
26A8
3CA8
2728
3B28
26A8
3A88
4208
0C18
ENDCHAR
STARTCHAR b7e1
ENCODING 47073
SWIDTH 84 0
DWIDTH 14 0
BBX 14 14 0 -2
BITMAP
0840
0850
7F48
085C
3FE0
2248
3E48
2250
3E30
0820
7F60
0894
090C
0804
ENDCHAR
STARTCHAR b7e2
ENCODING 47074
SWIDTH 84 0
DWIDTH 14 0
BBX 14 14 0 -2
BITMAP
0800
7F70
3E54
2A8C
3FF8
3E50
7F30
08CC
0F00
1FF0
0100
7FFC
0100
0300
ENDCHAR
STARTCHAR b7e3
ENCODING 47075
SWIDTH 84 0
DWIDTH 14 0
BBX 14 14 0 -2
BITMAP
2120
1220
17A0
44A0
27FC
24C8
07A8
1228
1FE8
1390
2490
24A8
4B48
5084
ENDCHAR
STARTCHAR b7e4
ENCODING 47076
SWIDTH 84 0
DWIDTH 14 0
BBX 14 14 0 -2
BITMAP
0040
3D50
2548
2A48
31F0
2910
25F0
2510
25F0
2550
3948
2244
2444
20C0
ENDCHAR
STARTCHAR b7e5
ENCODING 47077
SWIDTH 84 0
DWIDTH 14 0
BBX 14 14 0 -2
BITMAP
0880
08F8
0900
7E00
0880
1CFC
1B10
1B10
2910
2910
4910
0910
0910
0930
ENDCHAR
STARTCHAR b7e6
ENCODING 47078
SWIDTH 84 0
DWIDTH 14 0
BBX 14 14 0 -2
BITMAP
0908
0908
0BFC
12A8
15A8
317C
5248
1448
1FFC
10E0
1150
1248
1444
1040
ENDCHAR
STARTCHAR b7e7
ENCODING 47079
SWIDTH 84 0
DWIDTH 14 0
BBX 14 14 0 -2
BITMAP
0800
0800
0800
0800
1FFC
1108
2110
4120
0180
0280
0240
0420
1810
600C
ENDCHAR
STARTCHAR b7e8
ENCODING 47080
SWIDTH 84 0
DWIDTH 14 0
BBX 14 14 0 -2
BITMAP
1080
0880
0880
47F0
2090
2090
0090
1FFC
10C0
1120
2120
2210
4408
4804
ENDCHAR
STARTCHAR b7e9
ENCODING 47081
SWIDTH 84 0
DWIDTH 14 0
BBX 14 14 0 -2
BITMAP
2200
1FF8
1228
4FA8
2228
23D8
0CA0
1120
1750
10B8
2FC8
22B0
4C88
4080
ENDCHAR
STARTCHAR b7ea
ENCODING 47082
SWIDTH 84 0
DWIDTH 14 0
BBX 14 14 0 -2
BITMAP
0100
0100
3FFC
2008
4000
01C0
0440
0440
0440
0820
0820
1010
2008
4004
ENDCHAR
STARTCHAR b7eb
ENCODING 47083
SWIDTH 84 0
DWIDTH 14 0
BBX 14 14 0 -2
BITMAP
0820
0820
0A20
73FC
1420
0C20
12F8
7E00
08F8
2C88
2A88
2A88
48F8
0888
ENDCHAR
STARTCHAR b7ec
ENCODING 47084
SWIDTH 84 0
DWIDTH 14 0
BBX 14 14 0 -2
BITMAP
0100
0100
0100
0200
1FF0
1290
1290
1290
1290
1290
1290
1290
7FFC
0000
ENDCHAR
STARTCHAR b7ed
ENCODING 47085
SWIDTH 84 0
DWIDTH 14 0
BBX 14 14 0 -2
BITMAP
0040
3C40
0040
7FF8
0048
3C48
0048
3FFC
0040
3CA0
24A0
2510
3E08
2404
ENDCHAR
STARTCHAR b7ee
ENCODING 47086
SWIDTH 84 0
DWIDTH 14 0
BBX 14 14 0 -2
BITMAP
0000
0FF0
0810
0810
0810
0FF0
0810
0810
0FF0
0810
1010
1010
2010
4030
ENDCHAR
STARTCHAR b7ef
ENCODING 47087
SWIDTH 84 0
DWIDTH 14 0
BBX 14 14 0 -2
BITMAP
0840
0940
0940
13F8
1240
3440
5040
17FC
1040
1040
1040
1040
1040
1040
ENDCHAR
STARTCHAR b7f0
ENCODING 47088
SWIDTH 84 0
DWIDTH 14 0
BBX 14 14 0 -2
BITMAP
0880
0880
0940
1220
17F0
3888
57F0
1490
17F0
1490
1140
1120
1210
1408
ENDCHAR
STARTCHAR b7f1
ENCODING 47089
SWIDTH 84 0
DWIDTH 14 0
BBX 14 14 0 -2
BITMAP
0840
0A48
0950
13F8
1040
37FC
50A0
11F0
1228
15E4
1120
1108
1108
10F8
ENDCHAR
STARTCHAR b7f2
ENCODING 47090
SWIDTH 84 0
DWIDTH 14 0
BBX 14 14 0 -2
BITMAP
0820
08F8
0E28
13FC
1228
34F8
5F20
11F8
1520
15FC
1220
1320
14C0
183C
ENDCHAR
STARTCHAR b7f3
ENCODING 47091
SWIDTH 84 0
DWIDTH 14 0
BBX 14 14 0 -2
BITMAP
0820
0440
7FFC
0480
3FF0
0490
7FFC
0490
3FF0
04C0
1CB0
648C
0480
0480
ENDCHAR
STARTCHAR b7f4
ENCODING 47092
SWIDTH 84 0
DWIDTH 14 0
BBX 14 14 0 -2
BITMAP
0100
1110
0920
3FF8
0280
7FFC
0440
1830
6FEC
0220
0220
0420
0820
30C0
ENDCHAR
STARTCHAR b7f5
ENCODING 47093
SWIDTH 84 0
DWIDTH 14 0
BBX 14 14 0 -2
BITMAP
0408
0408
0A48
1148
7FC8
0448
3F48
2548
3F48
2448
0A48
0908
1108
6018
ENDCHAR
STARTCHAR b7f6
ENCODING 47094
SWIDTH 84 0
DWIDTH 14 0
BBX 14 14 0 -2
BITMAP
0040
0040
7BF8
4A08
4BF8
4800
49F0
4910
49F0
7910
49F0
4000
0FFC
0000
ENDCHAR
STARTCHAR b7f7
ENCODING 47095
SWIDTH 84 0
DWIDTH 14 0
BBX 14 14 0 -2
BITMAP
0000
3FF8
2548
2FE8
2288
3FF8
2448
2FE8
3058
27C8
2428
23E8
3FF8
2008
ENDCHAR
STARTCHAR b7f8
ENCODING 47096
SWIDTH 84 0
DWIDTH 14 0
BBX 14 14 0 -2
BITMAP
0000
3FF8
2488
3E50
2250
3E20
24D0
3F0C
2100
1FF0
0100
0100
7FFC
0000
ENDCHAR
STARTCHAR b7f9
ENCODING 47097
SWIDTH 84 0
DWIDTH 14 0
BBX 14 14 0 -2
BITMAP
1108
1090
13FC
10A0
7DF8
24A8
27FC
24A8
79F8
48A0
0DB0
16A8
24A4
40A0
ENDCHAR
STARTCHAR b7fa
ENCODING 47098
SWIDTH 84 0
DWIDTH 14 0
BBX 14 14 0 -2
BITMAP
0040
0040
7BF8
0848
17FC
1048
3BF8
0840
4BF8
2840
17FC
1840
2640
41FC
ENDCHAR
STARTCHAR b7fb
ENCODING 47099
SWIDTH 84 0
DWIDTH 14 0
BBX 14 14 0 -2
BITMAP
0100
3FFC
2108
7FF8
1FF0
0100
7FFC
1FF0
1290
1FF0
2508
24A4
4424
03E0
ENDCHAR
STARTCHAR b7fc
ENCODING 47100
SWIDTH 84 0
DWIDTH 14 0
BBX 14 14 0 -2
BITMAP
1E18
52E0
5E28
5ED0
5228
5FFC
7E64
2AA8
2924
4920
0480
2488
2424
43E4
ENDCHAR
STARTCHAR b7fd
ENCODING 47101
SWIDTH 84 0
DWIDTH 14 0
BBX 14 14 0 -2
BITMAP
0920
1110
1FF0
0280
7FFC
0820
1FD8
6104
1FF0
0100
3FF8
0100
0100
0300
ENDCHAR
STARTCHAR b7fe
ENCODING 47102
SWIDTH 84 0
DWIDTH 14 0
BBX 14 14 0 -2
BITMAP
1040
1248
1150
7FF8
10A0
17FC
1110
13E8
1C24
71E0
1120
1108
1108
30F8
ENDCHAR
STARTCHAR b8a1
ENCODING 47265
SWIDTH 84 0
DWIDTH 14 0
BBX 14 14 0 -2
BITMAP
0840
0840
08A0
7F10
0BF8
1844
1DF8
1B48
2B48
29F8
4860
0890
0B08
0C04
ENDCHAR
STARTCHAR b8a2
ENCODING 47266
SWIDTH 84 0
DWIDTH 14 0
BBX 14 14 0 -2
BITMAP
1080
1080
11F8
7E40
13FC
3090
39FC
3720
55F8
5120
11F8
1120
11FC
1100
ENDCHAR
STARTCHAR b8a3
ENCODING 47267
SWIDTH 84 0
DWIDTH 14 0
BBX 14 14 0 -2
BITMAP
0100
0100
3FF8
06C0
0300
7FFC
4448
5FE0
0910
0FE0
1100
7FFC
0100
0100
ENDCHAR
STARTCHAR b8a4
ENCODING 47268
SWIDTH 84 0
DWIDTH 14 0
BBX 14 14 0 -2
BITMAP
0100
0120
0110
0110
7FFC
0100
0300
0280
0280
0440
0440
0820
1010
600C
ENDCHAR
STARTCHAR b8a5
ENCODING 47269
SWIDTH 84 0
DWIDTH 14 0
BBX 14 14 0 -2
BITMAP
0420
0428
7FA4
0424
3FFC
3320
2D20
3F30
2550
3F50
2548
2588
2584
2304
ENDCHAR
STARTCHAR b8a6
ENCODING 47270
SWIDTH 84 0
DWIDTH 14 0
BBX 14 14 0 -2
BITMAP
0000
3FF8
0890
0890
0890
1090
1FFC
3290
5290
1290
1290
1F10
1110
0210
ENDCHAR
STARTCHAR b8a7
ENCODING 47271
SWIDTH 84 0
DWIDTH 14 0
BBX 14 14 0 -2
BITMAP
0000
7FF8
1108
1108
11F8
1108
3DF8
2508
65F8
24A0
24A0
3D24
2224
041C
ENDCHAR
STARTCHAR b8a8
ENCODING 47272
SWIDTH 84 0
DWIDTH 14 0
BBX 14 14 0 -2
BITMAP
0800
08F8
0A88
7288
14F8
0C00
12F8
7E88
08F8
2C88
2AF8
2A88
4888
0898
ENDCHAR
STARTCHAR b8a9
ENCODING 47273
SWIDTH 84 0
DWIDTH 14 0
BBX 14 14 0 -2
BITMAP
0000
07F0
2410
27F0
2410
27F0
2410
27F0
2000
3FFC
2560
1918
6104
0100
ENDCHAR
STARTCHAR b8aa
ENCODING 47274
SWIDTH 84 0
DWIDTH 14 0
BBX 14 14 0 -2
BITMAP
0000
3FFC
0000
0FF0
0810
0FF0
0800
0FF0
1410
17F0
2410
47F0
0410
0430
ENDCHAR
STARTCHAR b8ab
ENCODING 47275
SWIDTH 84 0
DWIDTH 14 0
BBX 14 14 0 -2
BITMAP
0000
0FE0
0820
0820
0FE0
0820
0FE0
0820
0FE0
0AA0
0280
0484
1884
607C
ENDCHAR
STARTCHAR b8ac
ENCODING 47276
SWIDTH 84 0
DWIDTH 14 0
BBX 14 14 0 -2
BITMAP
0110
38A0
03FC
7CA0
03F8
38A8
07FC
38A8
03F8
38A0
29B0
2AA8
3CA4
20A0
ENDCHAR
STARTCHAR b8ad
ENCODING 47277
SWIDTH 84 0
DWIDTH 14 0
BBX 14 14 0 -2
BITMAP
0000
3FF8
2488
3E50
3E70
3F8C
2FE0
0820
0FE0
0FE0
0820
0FE0
0660
3818
ENDCHAR
STARTCHAR b8ae
ENCODING 47278
SWIDTH 84 0
DWIDTH 14 0
BBX 14 14 0 -2
BITMAP
0800
08F8
7F20
0820
3E20
2A20
3FFC
2A20
3E20
0820
7F20
0820
0820
0820
ENDCHAR
STARTCHAR b8af
ENCODING 47279
SWIDTH 84 0
DWIDTH 14 0
BBX 14 14 0 -2
BITMAP
0040
23F8
1248
13F8
0040
0FFC
71F0
1110
11F0
11F8
1108
19F8
2600
41FC
ENDCHAR
STARTCHAR b8b0
ENCODING 47280
SWIDTH 84 0
DWIDTH 14 0
BBX 14 14 0 -2
BITMAP
1020
1020
1BF8
24A8
25FC
7928
13F8
7CA0
12F8
56A0
39FC
3120
1AA0
647C
ENDCHAR
STARTCHAR b8b1
ENCODING 47281
SWIDTH 84 0
DWIDTH 14 0
BBX 14 14 0 -2
BITMAP
0040
3C40
24A0
2910
2BF8
3044
2BF8
2648
2648
27F8
3840
20A0
2110
260C
ENDCHAR
STARTCHAR b8b2
ENCODING 47282
SWIDTH 84 0
DWIDTH 14 0
BBX 14 14 0 -2
BITMAP
0000
3FFC
2220
3E40
22F8
3E88
14F8
1588
55F8
3688
34F8
1650
1888
6304
ENDCHAR
STARTCHAR b8b3
ENCODING 47283
SWIDTH 84 0
DWIDTH 14 0
BBX 14 14 0 -2
BITMAP
0020
3F20
2850
3E88
29FC
3E20
28F8
3EA8
0AA8
3EF8
3E60
3250
4288
0D04
ENDCHAR
ENDFONT
